<svg xmlns="http://www.w3.org/2000/svg" width="256" height="256" viewBox="-9.293 -20.046 256 256"><path fill="#F3705A" stroke="#000" stroke-width="3" stroke-miterlimit="10" d="M178.336 54.698l-45.533 134.151s1.456 6.957 8.091 10.389c6.865 3.551 15.372-1.166 15.372-1.166l58.275-126.451-18.648-14.553-17.557-2.37z"/><path fill="#F3705A" stroke="#000" stroke-width="3" stroke-miterlimit="10" d="M170.23 79.518l3.536-12.352 37.02 13.36-6.403 12.993s-11.425 4.814-22.185.42c-9.437-3.854-11.968-14.421-11.968-14.421z"/><path fill="#CED6E1" stroke="#000" stroke-width="3" stroke-miterlimit="10" d="M150.624 64.87c-.475-27.483-24.853-50.938-41.31-57.094C100.215 3.826 89.51 1.5 78.199 1.5c-29.118 0-66.547 31.084-72.321 52.656C3.087 61.574 1.5 69.681 1.5 77.829c0 .252.012.501.015.753-.002.224-.015.444-.015.668 0 8.029 1.699 15.616 4.71 22.359 5.965 14.117 17.069 24.336 30.217 26.778a41.623 41.623 0 0 0 10.785 1.429c15.892 0 29.884-8.975 38.076-22.587.016.019.033.035.049.053 1.128-1.4 2.886-2.134 5.027-2.063 4.307.141 4.953.875 7.633 5.27 3.211 5.809 9.982 9.824 17.841 9.824 6.579 0 12.393-2.818 16.001-7.141 10.439-9.609 19.116-29.101 18.785-48.302z"/><path fill="#A56352" stroke="#000" stroke-width="3" stroke-miterlimit="10" d="M81.33 100.288l-9.122 2.489 30.91 97.031s1.132 6.796 12.459 1.133c7.098-3.549 4.854-9.871 4.854-9.871L81.33 100.288z"/><path fill="#52C2F0" stroke="#000" stroke-width="3" stroke-miterlimit="10" d="M77.207 102.371c6.438-1.464 9.21-9.088 8.875-13.386-.427-5.479-3.994-10.704-7.656-13.813-1.809-1.536-6.094-3.813-6.844-7.625-.338-1.721.352-4.668 2.063-6.469 1.217-1.281 3.494-1.962 3.063-2.625-.493-.758-2.456.716-4.406 1.657-3.931 1.896-8.418 4.132-11.313 7.375-6.461 7.239-5.07 12.489-5 17.239.041 2.781 2.441 10.924 6.136 14.397 5.738 5.395 15.082 3.25 15.082 3.25"/><circle fill="#CED6E1" stroke="#000" stroke-width="3" stroke-miterlimit="10" cx="201.351" cy="48.691" r="33.197"/><circle fill="#67C6BA" stroke="#000" stroke-width="3" stroke-miterlimit="10" cx="72.789" cy="25.494" r="14.18"/><circle fill="#52C2F0" stroke="#000" stroke-width="3" stroke-miterlimit="10" cx="41.33" cy="42.888" r="13.197"/><circle fill="#F3705A" stroke="#000" stroke-width="3" stroke-miterlimit="10" cx="29.084" cy="73.773" r="12.951"/><circle fill="#FFD05C" stroke="#000" stroke-width="3" stroke-miterlimit="10" cx="41.658" cy="108.773" r="14.672"/><circle fill="#CED6E1" stroke="#000" stroke-width="3" stroke-miterlimit="10" cx="124.248" cy="83.543" r="9.426"/><path fill="none" stroke="#000" stroke-width="3" stroke-miterlimit="10" d="M171.077 35.109s4.345 19.132 23.834 25.384c21.625 6.938 37.1 1.017 37.1 1.017s1.305-3.122 1.65-4.37c.275-.996.887-4.725.887-4.725s-22.479 4.467-36.949-1.734c-15.313-6.563-21.854-23.065-21.854-23.065s-2.082 2.571-2.649 3.525c-.561.941-2.019 3.968-2.019 3.968z"/></svg>