<svg xmlns="http://www.w3.org/2000/svg" width="256" height="256" viewBox="-17.231 -14.374 256 256"><path fill="#FFF" stroke="#000" stroke-width="3" stroke-miterlimit="10" d="M62.464 1.5h103.552v43.024H62.464z"/><path fill="#F3705A" stroke="#000" stroke-width="3" stroke-miterlimit="10" d="M127.619 19.385h-10.331V9.05h-7.784v10.335H99.171v7.783h10.333v10.331h7.784V27.168h10.331z"/><path fill="#67C6BA" stroke="#000" stroke-width="3" stroke-miterlimit="10" d="M1.863 318.562S-3.423 232.39 26.326 213.9c16.027-9.963 51.641-16.639 51.641-16.639l72.159.609s44.695 3.76 60.729 20.871c16.798 17.928 16.798 99.82 16.798 99.82H1.863z"/><path fill="#D78E51" stroke="#000" stroke-width="3" stroke-miterlimit="10" d="M137.245 165.017l-47.138.063s1.222 8.746 1.387 11.684c.116 2.096-.056 8.4-.056 8.4s.334 6.357-1.024 8.148c-.764 1.008-3.56 2.529-4.803 2.768-2.659.504-7.644 1.182-7.644 1.182l37.022 61.602 35.525-61.023s-6.946-.293-9.147-.959c-1.277-.387-3.691-1.924-4.371-3.072-1.318-2.236-1.113-10.318-1.113-10.318s.264-5.51.393-7.342c.196-2.789.969-11.133.969-11.133z"/><path fill="#E5985A" stroke="#000" stroke-width="3" stroke-miterlimit="10" d="M169.384 89.181s5.117 3.336 5.116 7.97c-.011 30.292-11.216 27.988-11.216 27.988s-8.526 23.816-20.071 34.822c-7.915 7.545-21.102 15.299-29.327 14.57-7.73-.688-15.982-4.271-23.14-8.686a84.27 84.27 0 0 1-9.476-6.789c-11.399-9.453-18.256-32.25-18.256-32.25s-12.475-2.721-11.177-30.223c.266-5.651 5.894-7.402 5.894-7.402l52.452-44.78h7.092l52.115 44.601"/><path fill="#9E7B52" stroke="#000" stroke-width="3" stroke-miterlimit="10" d="M65.33 44.4s-4.982 9.327-6.765 19.666c-1.389 8.063-.833 25.114-.833 25.114L61.994 94s.489.73 1.236.526c.643-.177 2.1-1.082 2.1-1.082v-7.505s12.604-6.86 25.485-17.98c10.843-9.36 19.368-23.558 19.368-23.558H65.33zM161.784 44.4s4.981 9.327 6.763 19.666c1.391 8.063.837 25.114.837 25.114L165.12 94s-1.294 1.318-2.039 1.113c-.644-.177-1.297-1.668-1.297-1.668V85.94s-12.605-6.86-25.483-17.98c-10.844-9.36-19.369-23.558-19.369-23.558h44.852z"/><path fill="#CED6E1" stroke="#000" stroke-width="3" stroke-miterlimit="10" d="M91.542 180.654c-.001-.445 0-.74-.121-1.953-.463.09-.942.174-1.372.275-6.146 1.402-18.336 5.246-25.038 10.742-7.172 5.881-12.358 11.742-14.353 21.234-2.398 11.418-2.25 46.381-2.242 47.828 0 0 1.75-.385 2.28-.389.583-.002 2.178 0 2.178 0-.002-.348-.165-35.57 2.137-46.523 1.728-8.225 6.374-13.426 12.82-18.709 6.063-4.973 17.736-8.598 23.505-9.918.147-.033.207-1.566.206-2.587zM189.275 231.48c-2.207-3.709-8.232-4.973-11.558-5.396-.247-3.447-.91-10.789-2.354-16.229-1.64-6.168-5.118-12.404-9.542-17.104-8.317-8.834-19.414-11.932-29.173-13.795-.26-.051-.256-.064-.529-.111-.029.504-.104 1.123-.118 1.602-.038 1.264-.028 2.912.015 2.92 12.839 2.451 20.644 6.143 26.569 12.436 1.86 1.977 6.41 7.414 8.478 15.191 1.319 4.963 1.957 11.896 2.203 15.254-2.978.57-7.985 1.896-9.943 4.58-2.555 3.512-3.115 13.123-3.201 15.014l4.441.203c.191-4.148 1.047-10.801 2.358-12.6.954-1.309 5.25-2.607 8.781-3.092 3.428.246 8.581 1.438 9.751 3.4 1.519 2.553 2.053 9.309 2.072 12.182l4.45-.031c-.004-.408-.106-10.059-2.7-14.424z"/><path fill="none" stroke="#000" stroke-width="3" stroke-miterlimit="10" d="M95.434 147.566s6.41-4.164 8.989-4.234c2.038-.055 4.295.422 5.561.928.756.301 2.175 1.432 3.459 1.391 1.003-.035 2.008-1.205 3.202-1.625 1.17-.412 2.719-.762 4.83-.762 3.139 0 9.977 4.951 9.977 4.951s-3.49 3.49-6.362 5.127c-2.555 1.455-8.369 2.93-11.306 2.996-3.039.07-8.556-.863-11.771-2.502-2.062-1.053-6.579-6.27-6.579-6.27z"/><path fill="none" stroke="#000" stroke-width="4" stroke-miterlimit="10" d="M81.811 101.537s8.958-10.07 17.36 0M127.776 101.537c2.041-2.294 10.871-7.776 17.362 0"/><path fill="none" stroke="#000" stroke-width="3" stroke-miterlimit="10" d="M95.434 147.41s13.557 3.047 17.979 3.113c4.584.068 18.038-2.588 18.038-2.588"/></svg>