<svg xmlns="http://www.w3.org/2000/svg" width="256" height="256" viewBox="-36.291 -5.515 256 256"><path fill="#90C6DE" stroke="#000" stroke-width="1.5" stroke-miterlimit="10" d="M55.093 249.485H25.682s2.179-6.912 2.519-13.856c.334-6.808-6.195-26.556-6.195-26.556s-1.361-17.016-1.361-18.377c0-1.362 34.003 45.907 34.003 45.907l.445 12.882z"/><path fill="#EDBE95" stroke="#000" stroke-width="1.5" stroke-miterlimit="10" d="M157.077 54.126s1.699.599 1.975 1.226c.449 1.021-.016 3.368-.204 4.425-.633 3.559.568 10.417.2 14.301-.142 1.498-.064 4.285-2.175 7.008-.778 1.004-3.186 1.619-3.608 2.655-2.246 5.514-4.755 10.325-7.579 14.216-3.289 4.531-17.27 16.212-17.27 16.212l12.935-48.605 15.755-11.655"/><path fill="#9E7B52" stroke="#000" stroke-width="1.5" stroke-miterlimit="10" d="M69.989 39.625s-3.189-3.275-7.271-4.8c-3.817-1.426-9.225-1.802-12.561-1.77-5 .049-13.894 1.942-19.777 5.071-6.399 3.404-13.344 8.034-15.727 10.927C9 55.919 3.386 71.316 2.024 82.073c-1.026 8.106-.437 24.62.375 32.774.45 4.525 1.191 9.197.953 13.351-.232 4.053-.416 12.188-1.021 16.203-.885 5.872-1.701 12.712-1.566 16.85.183 5.604 1.967 16.703 4.311 21.588 2.078 4.329 8.486 11.031 11.007 15.016 1.895 2.994 6.059 12.993 6.059 12.993s-.543-7.072-.749-9.838c-.169-2.271-.749-10.313-.749-10.313l98.512-54.396-49.167-96.676z"/><path fill="#EDBE95" stroke="#000" stroke-width="1.5" stroke-miterlimit="10" d="M95.873 126.496s.885-.953 1.158-4.017c.271-3.064.531-10.583.531-10.583l30.319 2.923s-.487 5.957.534 7.931c1.021 1.974-15.932 5.447-15.932 5.447l-16.61-1.701z"/><path fill="#E5985A" stroke="#000" stroke-width="1.5" stroke-miterlimit="10" d="M97.031 110.527s-2.641 15.981-12.395 21.07l-48.088 5.774s-4.942-4.506-6.373-6.042c-1.593-1.711-5.719-6.944-5.719-6.944l.408-41.393s.533-7.146 1.43-9.327c.456-1.108 3.014-5.882 7.489-8.374 7.332-4.083 8.296-4.357 19.675-5.514 14.249-1.448 19.887 4.521 19.887 4.521l23.686 46.229z"/><path fill="#9F6D48" stroke="#000" stroke-width="1.5" stroke-miterlimit="10" d="M127.122 115.739l-25.553.566s-11.675-12.583-14.887-17.654c-4.33-6.838-9.982-21.625-12.323-30.192-2.718-9.95-6.397-33.844-4.188-44.158.621-2.899 4.384-8.727 6.64-10.887 4.909-4.7 17.328-10.229 24.85-11.778C108.99.127 128.134.549 134.909 2.873c7.32 2.511 17.7 12.45 20.943 21.093 2.089 5.563 2.032 24.272 1.226 30.16-1.262 9.213-6.65 27.21-10.531 35.136-3.749 7.655-19.425 26.477-19.425 26.477z"/><path fill="#FFF" stroke="#000" stroke-width="1.5" stroke-miterlimit="10" d="M51.451 128.947c.073-.228 1.705-.09 2.313-.122 2.444-.129 7.772-.551 13.413-2.295 3.692-1.141 7.708-4.072 9.626-5.557.541-.419 1.363-1.373 1.607-1.251.193.096-.007 1.534-.068 2.076-.31 2.759-1.895 10.072-9.633 11.574-7.617 1.479-14.158-2.121-16.237-3.506-.411-.273-1.08-.735-1.021-.919z"/><path fill="none" stroke="#000" stroke-width="1.5" stroke-miterlimit="10" d="M27.418 112.573s4.683 3.368 12.05 1.906c8.238-1.634 8.85-8.272 8.85-8.272M67.586 99.57s3.564 3.458 11.131.749c5.038-1.804 5.33-6.443 5.33-6.443"/><path fill="#9E7B52" stroke="#000" stroke-width="1.5" stroke-miterlimit="10" d="M25.75 96.404c-.156-.247 1.123-1.154 1.668-1.6 1.76-1.436 3.309-2.325 4.084-2.723 1.944-.998 5.953-1.766 8.136-1.668 1.382.062 4.247.588 5.344 1.43.573.438 1.426 1.234 2.315 2.033.729.656.923.985.649 1.255-.279.274-.76.03-1.568-.395-1.472-.772-3.721-1.417-4.8-1.634-2.071-.416-6.396-.214-8.442.307-1.403.356-3.202 1.132-4.883 1.882-.632.283-2.35 1.355-2.503 1.113zM61.992 89.483c-.159-.062-.006-.906-.009-1.318-.006-1.081.299-2.467.644-3.267.827-1.92 4.431-4.535 6.354-5.355 3.086-1.316 8.442-1.547 8.442-1.547l.634 1.742s-4.94.715-6.581 1.438c-3.086 1.362-6.83 5.62-8.517 7.324-.367.373-.772 1.058-.967.983z"/><path fill="#97D1A6" stroke="#000" stroke-width="1.5" stroke-miterlimit="10" d="M110.511 123.16s17.734-1.442 22.262.885c1.929.991 4.307 4.266 6.332 5.038 1.103.421 4.391.592 5.515.953 1.051.341 1.754 1.255 2.791 1.634 4.27 1.562 13.751-1.511 18.178-.477 1.632.383 4.368 2.59 5.514 3.813 1.543 1.649 4.248 5.555 4.971 7.693 1.269 3.759.979 11.923.477 15.727-.708 5.345-3.75 16.01-5.583 21.037-1.588 4.356-6.276 13.267-7.218 17.716-.578 2.729.138 10.197.138 10.197l3.744 24.236 3.2 17.873H55.093l-.409-12.495-2.587-27.231s-.632-14.555-2.383-18.45c-2.246-4.995-13.646-14.019-13.646-14.019s-7.222-4.188-9.633-5.833c-2.086-1.424-8.378-6.359-8.378-6.359s-.89-13.589.545-17.974c.761-2.325 4.112-6.84 5.991-8.441 1.883-1.604 8.034-4.493 8.034-4.493l3.676 3.268s9.828-3.402 13.276-4.085c8.549-1.691 34.653-1.565 34.653-1.565s9.266-4.838 12.404-5.845c4.052-1.301 13.875-2.803 13.875-2.803z"/><path fill="#E5985A" stroke="#000" stroke-width="1.5" stroke-miterlimit="10" d="M18.025 164.554s-2.412.556-3.093 3.211c-1.527 5.953 2.785 16.503 5.712 22.931 3.171 6.965 9.525 20.902 13.149 27.641 7.615 14.16 12.247 18.413 19.121 18.381 6.773-.029 18.246-5.582 25.579-10.893 10.677-7.731 35.558-39.351 35.558-39.351s4.206-.072 5.105-.598c8.442-4.917 10.376-12.32 19.222-18.748.828-.602.669-1.555-.057-2.134-.501-.397-1.954.241-2.349.511-.819.564-1.771 1.566-2.587 1.021-.427-.283.212-1.583.544-1.973 1.106-1.287 4.074-3.217 4.902-4.699.231-.415.337-1.568 0-1.906-.36-.359-1.591-.236-2.043 0-1.356.708-3.361 3.134-4.561 4.085-.528.419-2.047 1.434-2.52.953-.488-.494.56-2.068 1.021-2.587 1.402-1.577 4.604-4.222 5.995-5.944.386-.479 1.289-1.272.54-2.43-.425-.657-1.839-.186-2.519.204-2.058 1.181-5.022 4.768-7.013 6.06-.708.459-2.773 1.176-3.336.544-.411-.462.682-2.383.682-2.383l4.289-4.152s1.188-2.217.748-2.792c-.477-.621-1.97.028-2.654.409-4.438 2.47-14.842 13.956-14.842 13.956s-2.167 1.034-2.724.613c-.516-.392-.436-2.013-.136-2.588.775-1.48 3.71-3.399 4.766-4.697.408-.502 1.045-2.036.612-2.519-.537-.601-2.478.049-3.199.408-1.944.97-5.55 3.497-7.081 5.038-1.392 1.404-3.443 4.916-4.017 6.808-.89 2.937-.681 12.255-.681 12.255s-13.139 11.438-18.994 15.25c-3.976 2.589-12.274 6.91-16.97 8.49-1.292.437-4.677 1.041-6.041 1.79-1.604.881-6.059 5.038-6.059 5.038s-.744-15.159-2.993-19.567c-2.152-4.221-13.482-13.315-13.482-13.315-3.439-2.068-3.448-2.021-10.417-6.468-1.95-1.244-7.177-5.853-7.177-5.853zM163.642 197.854s5.527 5.809 7.098 7.798c1.607 2.034 4.367 6.132 4.562 8.804.316 4.357-1.035 9.38-2.77 11.71-2.314 3.11-5.974 5.338-8.328 6.037-6.681 1.985-20.688.713-27.421 1.632-2.007.274-2.636 1.045-6.767 2.066-1.31.323-4.207.159-5.515.646-6.084 2.266-3.263 3.525-10.587 5.141-4.322.953-6.711.055-10.283.446-3.49.385-13.013 2.91-13.013 2.91s-3.323 1.409-4.39.23c-.625-.694.383-1.832.93-2.202 1.152-.781 2.779-1.471 3.949-2.066 1.249-.634 1.448-1.717 1.158-2.178-.688-1.088-2.147-.431-2.757-.171-2.174.928-2.834 1.581-3.872 1.975-.984.374-3.781.996-4.423.126-.896-1.215.845-2.347 1.351-2.713 1.821-1.315 4.129-1.825 5.753-2.87.473-.307 1.625-1.271 1.318-1.807-.774-1.349-1.734-.749-2.635-.508-1.594.425-4.675 2.14-6.286 2.723-.748.271-2.477.626-2.928-.136-.738-1.249.084-1.809.567-2.314 1.185-1.243 4.355-1.886 5.878-2.679.51-.264 1.804-.647 1.702-1.771-.035-.381-.091-.816-1.521-.771-.46.016-2.041.238-2.768.205-1.868-.092-3.03-.523-2.587-2.157.278-1.026 2.406-1.334 4.8-1.94 2.651-.671 7.594-1.379 10.377-1.613 2.527-.213 6.812.094 9.332-.191.439-.049 1.452-.321 1.543-.861.089-.523-.438-1.219-.858-1.446-1.338-.722-5.116-1.007-6.653-1.549-1.156-.409-2.223-1.188-.805-2.645.838-.862 2.356-.52 3.031-.417 7.405 1.116 8.031 1.45 9.053 1.676 1.807.402 4.628 1.298 6.258 1.975 1.364.565 2.885 2.085 4.09 2.814.467.283.477.568 2.11.613.621.017 1.911-.267 2.429-.63 4.362-3.062 15.089-4.648 20.016-6.679 3.618-1.489 10.509-5.461 14.184-6.808 1.425-.521 5.862-1.572 5.862-1.572s-.531-7.322-.184-8.833z"/><path fill="none" stroke="#000" stroke-width="1.5" stroke-miterlimit="10" d="M163.825 206.688s1.354-.347 2.511 0M52.107 209.758s-3.958 4.425-4.367 7.216"/></svg>