<svg xmlns="http://www.w3.org/2000/svg" width="256" height="256" viewBox="-3.131 -67.415 256 256"><path fill="#67C6BA" stroke="#000" stroke-width="1.5" stroke-miterlimit="10" d="M132.242 114.62v8.642H90.896v-8.642c0-2.033 1.186-3.39 3.389-4.406.339-.169 1.525-.508 3.389-1.355l-.678-1.863-6.1-16.606H42.095l-6.27 17.453-.508 1.017c1.864.848 3.05 1.187 3.389 1.355 2.203 1.017 3.389 2.373 3.389 4.406v8.642H.75v-8.642c0-2.033 1.186-3.39 3.389-4.406.847-.339 4.067-1.694 9.32-3.897L54.804.75h23.384l41.515 105.566c5.253 2.203 8.473 3.559 9.32 3.897 2.203.849 3.219 2.374 3.219 4.407zM48.026 74.291h37.109L71.071 36.165c-.678-1.864-1.356-3.897-2.203-6.27-.847-2.373-1.525-5.253-2.372-8.134-.848 2.881-1.695 5.592-2.373 8.134-.678 2.542-1.525 4.575-2.203 6.439L48.026 74.291z"/><g fill="#67C6BA" stroke="#000" stroke-width="1.5" stroke-miterlimit="10"><path d="M191.633 104.093c0 2.79-.54 5.31-1.62 7.649s-2.61 4.41-4.59 6.12-4.41 2.97-7.38 3.96c-2.97.989-6.3 1.439-10.079 1.439h-31.409v-5.31c0-1.53.72-2.43 2.25-2.79.09 0 .27-.09.54-.09s.72-.181 1.35-.271 1.62-.27 2.7-.449V67.104c-1.08-.181-2.07-.36-2.7-.451-.63-.09-1.08-.27-1.35-.27-.271 0-.45-.09-.54-.09-1.53-.359-2.25-1.26-2.25-2.79v-5.31h29.249c4.229 0 7.829.36 10.89 1.17 3.06.81 5.58 1.98 7.47 3.51 1.979 1.53 3.33 3.33 4.229 5.49.9 2.16 1.35 4.41 1.35 7.109 0 1.53-.18 2.97-.63 4.41-.449 1.439-1.26 2.79-2.159 3.96-.99 1.26-2.16 2.249-3.601 3.239-1.439.99-3.149 1.8-5.13 2.521 8.91 1.981 13.41 6.84 13.41 14.491zm-36.179-17.73h9.72c4.14 0 7.199-.72 9.359-2.25s3.15-3.96 3.15-7.199c0-3.421-.99-5.761-2.88-7.2-1.891-1.439-4.95-2.16-9-2.16h-10.35v18.809zm24.209 17.459c0-1.439-.271-2.609-.72-3.779-.45-1.08-1.08-2.07-2.07-2.88-.99-.811-2.16-1.351-3.689-1.8-1.53-.45-3.33-.631-5.49-.631h-12.239v19.08h12.329c2.25 0 4.141-.271 5.67-.811 1.53-.54 2.7-1.26 3.6-2.16.9-.899 1.62-1.979 1.98-3.149.449-1.17.629-2.519.629-3.87zM240.592 77.094c-.18-.811-.45-3.24-.81-7.2-4.95-1.439-9-2.069-12.42-2.069-3.06 0-5.85.45-8.46 1.53-2.609 1.08-4.77 2.609-6.569 4.589-1.8 1.98-3.24 4.32-4.32 7.2-1.079 2.88-1.619 6.12-1.619 9.63 0 3.689.54 6.839 1.619 9.719 1.08 2.88 2.34 5.221 4.141 7.2 1.8 1.979 3.869 3.42 6.3 4.5 2.43 1.08 4.949 1.529 7.739 1.529 1.62 0 3.149-.09 4.5-.27 1.35-.18 2.609-.45 3.689-.81 1.08-.36 2.16-.9 3.15-1.53.989-.63 1.979-1.44 2.97-2.34.27-.271.63-.45.99-.63.359-.181.72-.181 1.079-.181.63 0 1.261.181 1.71.721l4.771 5.22c-2.61 3.239-5.851 5.76-9.72 7.47-3.87 1.71-8.55 2.609-13.949 2.609-4.86 0-9.09-.899-12.96-2.52s-7.199-3.87-9.899-6.84-4.86-6.479-6.3-10.529c-1.44-4.05-2.16-8.46-2.16-13.319 0-4.86.811-9.45 2.43-13.5 1.62-4.05 3.87-7.47 6.84-10.439s6.39-5.31 10.53-6.93c4.05-1.62 8.64-2.43 13.589-2.43 5.4 0 12.239 1.53 20.43 4.68v16.56h-5.22c-1.171 0-1.802-.54-2.071-1.62z"/></g></svg>