<svg xmlns="http://www.w3.org/2000/svg" viewBox="0 0 75.775 125"><path fill="#fff" d="M24.964 49.799c-.46-1.758-.943-3.517-1.421-5.296C13.313 43.8 5.2 35.306 5.2 24.899c0-10.867 8.833-19.7 19.7-19.7s19.667 8.833 19.667 19.7c0 5.99-2.69 11.346-6.91 14.953.233.606.477 1.215.71 1.808.518 1.318.893 2.204 1.324 3.262 6.126-4.536 10.108-11.815 10.108-20.023C49.799 11.146 38.653 0 24.899 0 11.147 0 0 11.146 0 24.899c0 13.752 11.147 24.899 24.899 24.899l.065.001z"/><path fill="#fff" d="M68.398 56.526c-4.626-1.575-11.563-2.507-17.375-2.971-5.88-.47-10.561-.517-10.561-.517h-.484l-.161-.42s-1.964-4.677-4.038-9.947c-2.073-5.27-4.261-11.062-4.747-13.725-.448-2.45-.898-4.423-1.647-5.652-.75-1.228-1.651-1.83-3.649-1.711-.901.054-1.403.411-1.809 1.001-.406.591-.669 1.48-.775 2.519-.212 2.078.158 4.679.419 6.491 1.198 8.289 4.143 16.19 5.749 24.544.956 4.972 1.35 10.044 2.261 14.889l.258 1.453-1.292-.679c-.615-.319-1.045-.879-1.486-1.55s-.855-1.488-1.292-2.325c-.873-1.672-1.802-3.485-2.648-4.489-1.313-1.556-2.935-3.289-4.65-4.327-1.695-1.026-3.361-1.359-5.167-.452-.799.727-1.091 1.383-1.098 2.131-.009.781.308 1.688.807 2.648.997 1.922 2.693 3.958 3.197 6.071 1.255 5.26 4.439 9.369 7.267 13.854 2.209 3.508 3.852 7.373 7.266 9.107 4.503 2.289 8.42 5.905 12.887 6.653 5.423.908 11.486 1.18 16.696.484 5.163-.689 9.409-2.377 11.399-5.07 4.268-17.313 1.572-28.583-5.327-38.01z"/></svg>