<svg xmlns="http://www.w3.org/2000/svg" width="256" height="256" viewBox="-35.975 -13.947 256 256"><path fill="#F3705A" stroke="#000" stroke-width="1.5" stroke-miterlimit="10" d="M164.944 204.656a5.115 5.115 0 0 0 5.114-5.115v.512V22.694v.563c0-12.43-10.076-22.507-22.506-22.507l.492.006H40.907l.504-.006c-12.43 0-22.507 10.077-22.507 22.507v-.563 177.168-.322a5.116 5.116 0 0 0 5.115 5.115h-.444 141.953"/><path fill="#FFF" stroke="#000" stroke-width="1.5" stroke-miterlimit="10" d="M27.056 21.835h135.641v43.951H27.056zM27.056 94.075h63.147v65.167H27.056z"/><path fill="#CED6E1" stroke="#000" stroke-width="1.5" stroke-miterlimit="10" d="M99.55 94.075h63.146v65.167H99.55z"/><circle fill="#FFD05C" stroke="#000" stroke-width="1.5" stroke-miterlimit="10" cx="41.284" cy="181.849" r="8.209"/><circle fill="#FFD05C" stroke="#000" stroke-width="1.5" stroke-miterlimit="10" cx="148.646" cy="181.849" r="8.209"/><path fill="none" stroke="#000" stroke-width="1.5" stroke-miterlimit="10" d="M159.665 80.519a3.914 3.914 0 0 1-3.915 3.915H32.992a3.915 3.915 0 1 1 0-7.83H155.75a3.914 3.914 0 0 1 3.915 3.915zM118.241 181.849a3.915 3.915 0 0 1-3.915 3.916H75.174a3.914 3.914 0 1 1 0-7.83h39.151a3.915 3.915 0 0 1 3.916 3.914zM109.653 117.819l12.377-9.346M109.653 129.437l30.783-23.742"/><path fill="#CED6E1" stroke="#000" stroke-width="1.5" stroke-miterlimit="10" d="M170.058 90.286h11.33s2.034 0 4.547 1.769c2.487 1.75 2.272 5.304 2.272 5.304v29.302s-.415 4.039-3.789 4.039c-3.741 0-4.293-4.039-4.293-4.039V101.64s.064-1.749-.99-2.542c-1.191-.896-2.423-.864-2.423-.864l-6.654-.001v-7.947zM18.904 90.286H7.574s-2.034 0-4.546 1.769C.54 93.805.755 97.359.755 97.359v29.302s.415 4.039 3.789 4.039c3.742 0 4.293-4.039 4.293-4.039V101.64s-.064-1.749.99-2.542c1.191-.896 2.423-.864 2.423-.864l6.653-.001v-7.947zM45.153 222.217a3.558 3.558 0 0 1-3.558 3.559H28.988a3.56 3.56 0 0 1-3.559-3.559v.043-17.155h19.724v17.366M164.714 222.217a3.559 3.559 0 0 1-3.558 3.559h-12.607a3.558 3.558 0 0 1-3.558-3.559v.043-17.155h19.723v17.366"/></svg>