<svg xmlns="http://www.w3.org/2000/svg" width="256" height="256" viewBox="-2 -25.999 256 256"><path fill="#90C6DE" stroke="#000" stroke-width="4" stroke-miterlimit="10" d="M239.648 45.718h-42.465L179.161 2.62l-.261.109V2.62H76.279v.123l-.293-.123-18.023 43.098H14.039C7.39 45.718 2 51.2 2 57.959v134.058c0 6.76 5.39 12.241 12.039 12.241H239.65c6.647 0 12.039-5.481 12.039-12.241V57.959c-.001-6.759-5.391-12.241-12.041-12.241z"/><circle fill="#FBE28B" stroke="#000" stroke-width="4" stroke-miterlimit="10" cx="222.591" cy="75.145" r="12.869"/><path fill="#90C6DE" stroke="#000" stroke-width="4" stroke-miterlimit="10" d="M28.082 23.111h17.869v22.606H28.082z"/><circle fill="#E1E1E1" stroke="#000" stroke-width="4" stroke-miterlimit="10" cx="127.928" cy="114.668" r="77.459"/><circle fill="#C9C0C1" stroke="#000" stroke-width="4" stroke-miterlimit="10" cx="127.721" cy="114.817" r="64.902"/><circle fill="#C9C0C1" stroke="#000" stroke-width="4" stroke-miterlimit="10" cx="128.818" cy="114.439" r="43.803"/><circle fill="#97D1A6" stroke="#000" stroke-width="4" stroke-miterlimit="10" cx="130.578" cy="100.994" r="17.51"/><circle fill="#F3797A" stroke="#000" stroke-width="4" stroke-miterlimit="10" cx="117.746" cy="108.518" r="10.29"/><circle fill="#FFF" stroke="#000" stroke-width="4" stroke-miterlimit="10" cx="106.171" cy="100.685" r="9.735"/></svg>