<svg xmlns="http://www.w3.org/2000/svg" width="256" height="256" viewBox="-1.479 -1.246 256 256"><circle fill="#FBBF54" stroke="#2B3B4E" stroke-width="3" stroke-miterlimit="10" cx="126.51" cy="126.51" r="125.01"/><circle fill="#FFF" stroke="#231F20" stroke-width="1.5" stroke-miterlimit="10" cx="75.229" cy="109.486" r="7.246"/><circle fill="#FFF" stroke="#231F20" stroke-width="1.5" stroke-miterlimit="10" cx="181.503" cy="109.486" r="7.246"/><path fill="#2B3B4E" stroke="#2B3B4E" stroke-width="2.5" stroke-miterlimit="10" d="M76.838 96.482c-8.383 0-15.179 6.796-15.179 15.178 0 8.383 6.796 15.18 15.179 15.18 8.382 0 15.178-6.797 15.178-15.18 0-8.381-6.796-15.178-15.178-15.178zm.931 17.82a4.418 4.418 0 1 1 .001-8.835 4.418 4.418 0 0 1-.001 8.835zM178.08 96.482c-8.384 0-15.18 6.796-15.18 15.178 0 8.383 6.796 15.18 15.18 15.18 8.382 0 15.18-6.797 15.18-15.18-.001-8.381-6.799-15.178-15.18-15.178zm.929 17.82a4.416 4.416 0 0 1-4.415-4.417 4.416 4.416 0 1 1 8.832 0 4.416 4.416 0 0 1-4.417 4.417z"/><path fill="none" stroke="#2B3B4E" stroke-width="2.5" stroke-miterlimit="10" d="M77.042 63.01S84 94.517 45.165 96.482M178.564 63.01s-6.957 31.508 31.877 33.473M76.395 175.042s17.476-23.139 50.155-23.139c33.34 0 48.389 21.683 48.389 21.683"/></svg>