<svg xmlns="http://www.w3.org/2000/svg" width="256" height="256" viewBox="-2.25 -26.116 256 256"><path fill="#52C2F0" stroke="#000" stroke-width="1.5" stroke-miterlimit="10" d="M238.399 44.081h-42.466L177.911.982l-.26.109V.982H75.029v.123l-.293-.123-18.023 43.099H12.789C6.141 44.081.75 49.562.75 56.323V190.38c0 6.761 5.39 12.242 12.039 12.242H238.4c6.648 0 12.039-5.481 12.039-12.242V56.322c-.001-6.76-5.391-12.241-12.04-12.241z"/><circle fill="#FFD05C" stroke="#000" stroke-width="1.5" stroke-miterlimit="10" cx="221.341" cy="73.506" r="12.869"/><path fill="#52C2F0" stroke="#000" stroke-width="1.5" stroke-miterlimit="10" d="M26.832 21.474h17.869V44.08H26.832z"/><circle fill="#E1E1E1" stroke="#000" stroke-width="1.5" stroke-miterlimit="10" cx="126.678" cy="113.031" r="77.459"/><circle fill="#CED6E1" stroke="#000" stroke-width="1.5" stroke-miterlimit="10" cx="126.767" cy="113.476" r="69.246"/><circle fill="#E1E1E1" stroke="#000" stroke-width="1.5" stroke-miterlimit="10" cx="127.578" cy="112.974" r="51.435"/><circle fill="#C9C0C1" stroke="#000" stroke-width="1.5" stroke-miterlimit="10" cx="127.569" cy="113.802" r="43.803"/><path fill="#CED6E1" stroke="#000" stroke-width="1.5" stroke-miterlimit="10" d="M152.791 149.148s-14.123-9.334-14.615-38.486c-.361-21.413 12.31-33.82 12.31-33.82l.282-.191a43.585 43.585 0 0 0-23.197-6.652 43.59 43.59 0 0 0-25.687 8.331c1.701 2.531 13.197 20.339 11.375 36.895-2.359 21.435-11.788 30.776-13.567 32.365a43.627 43.627 0 0 0 27.879 10.016 43.587 43.587 0 0 0 25.539-8.228l-.319-.23z"/><circle fill="#67C6BA" stroke="#000" stroke-width="1.5" stroke-miterlimit="10" cx="132.174" cy="97.341" r="15.342"/><circle fill="#F3705A" stroke="#000" stroke-width="1.5" stroke-miterlimit="10" cx="120.93" cy="103.933" r="9.016"/><circle fill="#FFF" stroke="#000" stroke-width="1.5" stroke-miterlimit="10" cx="110.788" cy="97.069" r="8.53"/></svg>