<svg xmlns="http://www.w3.org/2000/svg" width="256" height="256" viewBox="-13.96 -40.577 256 256"><path fill="#EA7643" stroke="#282425" stroke-width="2" stroke-miterlimit="10" d="M113.563 1C82.06 1 51.994 6.548 31.713 19.222 12.343 31.326 2.04 50.135 2.04 68.289h223.048c0-19.943-13.181-39.644-36.025-51.966C169.338 5.685 142.103 1 113.563 1zM1 127.819c0 11.756 5.384 26.507 19.74 35.197 20.551 12.44 56.198 16.563 92.786 16.563 34.958 0 67.942-2.781 88.581-14.285 16.053-8.947 23.945-24.97 23.945-37.476 0-.415-.013-.828-.034-1.241H1.034c-.021.414-.034.827-.034 1.242z"/><path fill="#A65643" stroke="#282425" stroke-width="2" stroke-miterlimit="10" d="M16.46 87.706c-7.852 0-14.218 6.128-14.218 13.688s6.366 13.688 14.218 13.688c.506 0 1.005-.027 1.498-.077H16.46v.077h196.205l-.843-.077s-.506.077 0 .077c7.852 0 14.218-6.128 14.218-13.688s-6.366-13.688-14.218-13.688h.843l-197.138.032.933-.032z"/><path fill="#909137" stroke="#282425" stroke-width="2" stroke-miterlimit="10" d="M6.165 68.289H220.79s.11 6.324-1.875 8.821c-3.875 4.875-6.5 4.563-6.5 4.563H15.665s-4.375-2.5-6.25-5c-2.281-3.042-3.25-8.384-3.25-8.384z"/><path fill="#BCD85E" stroke="#282425" stroke-width="2" stroke-miterlimit="10" d="M6.165 126.578s.415-4.606 2.152-7.453c2.056-3.368 5.431-4.077 5.431-4.077H214.79s2.855 1.582 4.809 4.007c2.177 2.702 2.177 7.523 2.177 7.523H6.165z"/><path fill="#BDD85E" stroke="#282425" stroke-width="2" stroke-miterlimit="10" d="M9.767 68.289s2.523 8.076 10.973 9.732c3.598.705 22.425 2.277 36.332-.546 10.735-2.18 25.469-5.927 41.101-5.872 9.8.035 29.366 1.532 39.13 2.367 11.583.991 39.258 3.119 50.862 3.828 21.25 1.299 32.185-4.414 32.185-4.414s.285-.652.441-2.461c.051-.583-.001-2.634-.001-2.634H9.767z"/><path fill="#F3705A" stroke="#282425" stroke-width="2" stroke-miterlimit="10" d="M23.017 81.677h90.94v6.029h-90.94zM127.158 81.677h77.019v6.029h-77.019z"/><path fill="#909137" stroke="#282425" stroke-width="2" stroke-miterlimit="10" d="M12.29 116.265c15.649 4.524 21.012 5.844 41.5 7.158 23.375 1.5 80.076.213 105.249-2.489 13.138-1.41 21.668-4.368 45.746-2.852 9.38.591 15.127 8.496 15.127 8.496H6.165s.125-1.479.927-4.599c.917-3.57 3.78-6.125 5.198-5.714z"/><ellipse fill="none" stroke="#282425" stroke-width="2" stroke-miterlimit="10" cx="64.264" cy="12.798" rx="4.224" ry="1.625"/><ellipse fill="none" stroke="#282425" stroke-width="2" stroke-miterlimit="10" cx="87.978" cy="6.923" rx="3.938" ry="1.75"/><ellipse fill="none" stroke="#282425" stroke-width="2" stroke-miterlimit="10" cx="104.103" cy="14.548" rx="4.188" ry="1.75"/><ellipse fill="none" stroke="#282425" stroke-width="2" stroke-miterlimit="10" cx="122.665" cy="6.048" rx="3.75" ry="1.75"/><ellipse fill="none" stroke="#282425" stroke-width="2" stroke-miterlimit="10" cx="141.103" cy="14.548" rx="3.938" ry="1.75"/><ellipse fill="none" stroke="#282425" stroke-width="2" stroke-miterlimit="10" cx="156.54" cy="10.298" rx="3.75" ry="1.625"/></svg>