<svg xmlns="http://www.w3.org/2000/svg" width="256" height="256" viewBox="-1.729 -1.496 256 256"><circle fill="#FBBF54" stroke="#2B3B4E" stroke-width="2.5" stroke-miterlimit="10" cx="126.26" cy="126.26" r="125.01"/><circle fill="#FFF" stroke="#2B3B4E" stroke-width="2.5" stroke-miterlimit="10" cx="74.979" cy="99.236" r="7.246"/><circle fill="#FFF" stroke="#2B3B4E" stroke-width="2.5" stroke-miterlimit="10" cx="181.253" cy="99.236" r="7.246"/><path fill="#2B3B4E" stroke="#2B3B4E" stroke-width="2.5" stroke-miterlimit="10" d="M74.588 86.232c-8.383 0-15.179 6.796-15.179 15.178 0 8.383 6.796 15.179 15.179 15.179 8.382 0 15.178-6.796 15.178-15.179 0-8.381-6.796-15.178-15.178-15.178zm.931 17.82a4.418 4.418 0 1 1 .001-8.835 4.418 4.418 0 0 1-.001 8.835zM178.83 86.232c-8.384 0-15.18 6.796-15.18 15.178 0 8.383 6.796 15.179 15.18 15.179 8.382 0 15.18-6.796 15.18-15.179-.001-8.381-6.799-15.178-15.18-15.178zm.929 17.82a4.416 4.416 0 0 1-4.415-4.417 4.416 4.416 0 1 1 8.832 0 4.416 4.416 0 0 1-4.417 4.417z"/><path fill="#FFF" stroke="#2B3B4E" stroke-width="2.5" stroke-miterlimit="10" d="M59.607 133.172c-.173.524-.198 1.49-.185 2.04.855 36.396 29.92 65.631 65.651 65.631 35.942 0 63.829-30.418 63.829-67.121 0-1.903-2.608-1.801-2.608-1.801l-124.225.183c-.001 0-2.028-.244-2.462 1.068z"/><path fill="#E85A5A" stroke="#2B3B4E" stroke-width="2.5" stroke-miterlimit="10" d="M62.259 153.18c8.198 27.585 33.208 47.663 62.815 47.663 29.332 0 53.291-20.262 61.113-47.663H62.259z"/><path fill="#F2797A" stroke="#2B3B4E" stroke-width="2.5" stroke-miterlimit="10" d="M140.33 170.009c-3.949.007-9.224 6.587-14.281 7.027-4.304.376-10.754-7.027-15.951-6.661-13.224.934-22.726 13.491-24.871 16.471 11.071 8.729 25.062 13.997 40.115 13.997 14.69 0 28.545-5.869 39.188-14.387 0 .001-9.551-16.473-24.2-16.447z"/></svg>