<svg xmlns="http://www.w3.org/2000/svg" width="256" height="256" viewBox="-0.631 -18.044 256 256"><path fill="#FFF" stroke="#231F20" stroke-width="4" stroke-miterlimit="10" d="M252.943 205.933c0 6.627-5.373 12-12 12H14c-6.627 0-12-5.373-12-12V55.3c0-6.627 5.373-12 12-12h226.943c6.627 0 12 5.373 12 12v150.633z"/><path fill="#E1E1E1" stroke="#231F20" stroke-width="4" stroke-miterlimit="10" d="M143.83 2h-29.668c-6.627 0-12 5.373-12 12v46.859c0 6.627 5.373 12 12 12h29.668c6.627 0 12-5.373 12-12V14c0-6.627-5.373-12-12-12zm-15.527 38.413c-6.947 0-12.579-5.632-12.579-12.579s5.632-12.579 12.579-12.579 12.578 5.632 12.578 12.579-5.631 12.579-12.578 12.579z"/><path fill="#E0E0E0" stroke="#231F20" stroke-width="4" stroke-miterlimit="10" d="M128.996 101.791h50.525M128.996 127.367h102.097M128.996 152.314h102.097M128.996 174.327h10.692M150.589 174.327h15.305M177.214 174.327h10.063M197.969 174.327h15.932M223.126 174.327h7.967"/><path fill="#90DFAA" stroke="#231F20" stroke-width="4" stroke-miterlimit="10" d="M44.559 81.248l7.061 6.208s1.681.997 2.513 1.188c2.987.687 13.112-.563 20.237.187 6 .631 12.2 4.234 15.125 6.625 7.75 6.334 7 14.986 7 14.986s3.875 2.264 5 5.514c.664 1.919.21 7.288-.655 9.126-.972 2.065-5.72 5.534-5.72 5.534s-.859 7.132-5.5 11.09c-3.806 3.246-9.875 8-9.875 8s-.545 4.56-.125 6c.126.433 1 1.5 1 1.5s8.091 4.305 14.875 7.875c9.5 5 9.977 8.017 10.227 11.436.196 2.682-.102 8.564-.102 8.564s-5.758 3.298-7.875 3.875c-8.25 2.25-14.375 2.25-14.375 2.25l-37.625-.875s-6.517-.547-9.125-1.688c-5-2.188-7.75-5.313-7.75-5.313s-.324-7.036.294-9.004c.87-2.769 4.019-5.434 7.331-7.996 5.953-4.605 17.875-8.688 18.688-10.313.68-1.359.438-6.063.438-6.063s-6.5-3.938-10.438-7.563c-3.284-3.023-4.625-11.777-4.625-11.777s-2.803-1.451-3.938-2.598c-.637-.645-2.631-2.558-3-3.688-.68-2.08-.68-6.77.25-8.75.808-1.723 4.323-3.9 5.125-5.625.765-1.645.181-6.387.537-8.166.577-2.878 4.735-6.563 5.213-9.459.404-2.453-2.205-8.869-2.205-8.869s-.545-1.506.267-2.006c1.261-.773 1.752-.205 1.752-.205z"/></svg>