<svg xmlns="http://www.w3.org/2000/svg" width="256" height="256" viewBox="-7.254 -31.336 256 256"><path fill="#CDD5E1" stroke="#231F20" stroke-width="3" stroke-miterlimit="10" d="M1.5 1.5v188.36h239.216V1.5H1.5zm41.64 180.574H9.205v-38.033H43.14v38.033zm0-45H9.205V99.041H43.14v38.033zm0-45H9.205V54.041H43.14v38.033zm0-45H9.205V9.041H43.14v38.033zm190 135h-33.935v-38.033h33.935v38.033zm0-45h-33.935V99.041h33.935v38.033zm0-45h-33.935V54.041h33.935v38.033zm0-45h-33.935V9.041h33.935v38.033z"/><path fill="#FF7058" stroke="#231F20" stroke-width="3" stroke-miterlimit="10" d="M51.188 9.041h139.836v173.033H51.188z"/><path fill="#FFF" stroke="#231F20" stroke-width="3" stroke-miterlimit="10" d="M96.746 132.319V60.188l63.935 36.066-64.427 36.065"/></svg>