<svg xmlns="http://www.w3.org/2000/svg" width="256" height="256" viewBox="-1 -24.48 256 256"><path fill="#90C6DE" stroke="#000" stroke-width="4" stroke-miterlimit="10" d="M239.649 45.717h-42.466L179.161 2.618l-.26.109v-.109H76.279v.123l-.293-.123-18.023 43.099H14.039C7.39 45.717 2 51.198 2 57.958v134.057c0 6.761 5.39 12.242 12.039 12.242H239.65c6.648 0 12.039-5.481 12.039-12.242V57.958c-.001-6.76-5.391-12.241-12.04-12.241z"/><circle fill="#FBE28B" stroke="#000" stroke-width="4" stroke-miterlimit="10" cx="222.591" cy="75.143" r="12.869"/><path fill="#90C6DE" stroke="#000" stroke-width="4" stroke-miterlimit="10" d="M28.082 23.11h17.869v22.606H28.082z"/><circle fill="#E1E1E1" stroke="#000" stroke-width="4" stroke-miterlimit="10" cx="127.928" cy="114.667" r="77.459"/><circle fill="#C9C0C1" stroke="#000" stroke-width="4" stroke-miterlimit="10" cx="127.721" cy="114.816" r="64.902"/><circle fill="#C9C0C1" stroke="#000" stroke-width="4" stroke-miterlimit="10" cx="128.819" cy="114.438" r="43.803"/><circle fill="#97D1A6" stroke="#000" stroke-width="4" stroke-miterlimit="10" cx="130.578" cy="100.993" r="17.51"/><circle fill="#F3797A" stroke="#000" stroke-width="4" stroke-miterlimit="10" cx="117.746" cy="108.516" r="10.29"/><circle fill="#FFF" stroke="#000" stroke-width="4" stroke-miterlimit="10" cx="106.171" cy="100.683" r="9.735"/></svg>