<svg xmlns="http://www.w3.org/2000/svg" width="256" height="256" viewBox="-8.004 -32.086 256 256"><path fill="#E1E1E1" stroke="#231F20" stroke-width="1.5" stroke-miterlimit="10" d="M.75.75v188.36h239.216V.75H.75zm41.64 180.574H8.455v-38.033H42.39v38.033zm0-45H8.455V98.291H42.39v38.033zm0-45H8.455V53.291H42.39v38.033zm0-45H8.455V8.291H42.39v38.033zm190 135h-33.935v-38.033h33.935v38.033zm0-45h-33.935V98.291h33.935v38.033zm0-45h-33.935V53.291h33.935v38.033zm0-45h-33.935V8.291h33.935v38.033z"/><path fill="#F3797A" stroke="#231F20" stroke-width="1.5" stroke-miterlimit="10" d="M50.438 8.291h139.836v173.033H50.438z"/><path fill="#FFF" stroke="#231F20" stroke-width="1.5" stroke-miterlimit="10" d="M95.996 131.569V59.438l63.935 36.066-64.427 36.065"/></svg>