<svg xmlns="http://www.w3.org/2000/svg" width="256" height="256" viewBox="-7.504 -31.586 256 256"><path fill="#CDD5E1" stroke="#231F20" stroke-width="2.5" stroke-miterlimit="10" d="M1.25 1.25v188.36h239.216V1.25H1.25zm41.64 180.574H8.955v-38.033H42.89v38.033zm0-45H8.955V98.791H42.89v38.033zm0-45H8.955V53.791H42.89v38.033zm0-45H8.955V8.791H42.89v38.033zm190 135h-33.935v-38.033h33.935v38.033zm0-45h-33.935V98.791h33.935v38.033zm0-45h-33.935V53.791h33.935v38.033zm0-45h-33.935V8.791h33.935v38.033z"/><path fill="#FF7058" stroke="#231F20" stroke-width="2.5" stroke-miterlimit="10" d="M50.938 8.791h139.836v173.033H50.938z"/><path fill="#FFF" stroke="#231F20" stroke-width="2.5" stroke-miterlimit="10" d="M96.496 132.069V59.938l63.935 36.066-64.427 36.065"/></svg>