<svg xmlns="http://www.w3.org/2000/svg" width="256" height="256" viewBox="-1.347 -2.392 256 256"><path fill="#CDD5E1" stroke="#231F20" stroke-width="1.5" stroke-miterlimit="10" d="M149.874 64.12c-.475-27.483-24.852-50.938-41.31-57.094C99.465 3.076 88.76.75 77.449.75 48.331.75 10.902 31.834 5.128 53.406 2.337 60.824.75 68.931.75 77.079c0 .252.012.501.015.753-.002.224-.015.444-.015.668 0 8.029 1.699 15.616 4.71 22.359 5.965 14.117 17.069 24.335 30.217 26.778a41.622 41.622 0 0 0 10.785 1.428c15.892 0 29.884-8.974 38.076-22.586.016.019.033.035.049.053 1.128-1.4 2.886-2.134 5.027-2.063 4.307.141 4.953.875 7.633 5.27 3.211 5.808 9.982 9.824 17.841 9.824 6.579 0 12.393-2.818 16-7.14 10.44-9.61 19.118-29.102 18.786-48.303z"/><path fill="#9E7B52" stroke="#231F20" stroke-width="1.5" stroke-miterlimit="10" d="M80.58 99.538l-9.122 2.489 30.91 97.03s1.132 6.795 12.459 1.133c7.098-3.549 4.854-9.871 4.854-9.871L80.58 99.538z"/><path fill="#44E2C8" stroke="#231F20" stroke-width="1.5" stroke-miterlimit="10" d="M76.457 101.621c6.438-1.464 9.21-9.088 8.875-13.386-.427-5.479-3.994-10.704-7.656-13.813-1.809-1.536-6.094-3.813-6.844-7.625-.338-1.721.352-4.668 2.063-6.469 1.217-1.281 3.494-1.962 3.063-2.625-.493-.758-2.456.716-4.406 1.657-3.931 1.896-8.418 4.132-11.313 7.375-6.461 7.239-5.07 12.489-5 17.239.041 2.781 2.441 10.924 6.136 14.397 5.738 5.395 15.082 3.25 15.082 3.25"/><circle fill="#44E2C8" stroke="#231F20" stroke-width="1.5" stroke-miterlimit="10" cx="72.687" cy="24.744" r="14.18"/><circle fill="#4CC3F3" stroke="#231F20" stroke-width="1.5" stroke-miterlimit="10" cx="40.58" cy="42.138" r="13.197"/><circle fill="#FF7058" stroke="#231F20" stroke-width="1.5" stroke-miterlimit="10" cx="28.334" cy="73.023" r="12.951"/><circle fill="#FFD05B" stroke="#231F20" stroke-width="1.5" stroke-miterlimit="10" cx="40.908" cy="108.023" r="14.672"/><circle fill="#CDD5E1" stroke="#231F20" stroke-width="1.5" stroke-miterlimit="10" cx="123.498" cy="82.793" r="9.426"/><path fill="#4CC3F3" stroke="#231F20" stroke-width="1.5" stroke-miterlimit="10" d="M187.282 58.506l-45.533 134.151s1.456 6.957 8.091 10.389c6.865 3.551 15.372-1.166 15.372-1.166l58.275-126.451-18.648-14.553-17.557-2.37z"/><path fill="#4CC3F3" stroke="#231F20" stroke-width="1.5" stroke-miterlimit="10" d="M179.176 83.326l3.536-12.352 37.02 13.36-6.403 12.993s-11.425 4.814-22.185.42c-9.437-3.853-11.968-14.421-11.968-14.421z"/><circle fill="#CDD5E1" stroke="#231F20" stroke-width="1.5" stroke-miterlimit="10" cx="210.297" cy="52.499" r="33.197"/><path fill="none" stroke="#231F20" stroke-width="1.5" stroke-miterlimit="10" d="M180.023 38.917s4.345 19.132 23.834 25.384c21.625 6.938 37.1 1.017 37.1 1.017s1.305-3.122 1.65-4.37c.275-.996.887-4.725.887-4.725s-22.479 4.467-36.949-1.734c-15.313-6.563-21.854-23.065-21.854-23.065s-2.082 2.571-2.649 3.525c-.561.941-2.019 3.968-2.019 3.968z"/><path fill="#FF7058" stroke="#231F20" stroke-width="1.5" stroke-miterlimit="10" d="M82.927 200.903h91.372v-45.131a85.78 85.78 0 0 0-42.479-11.205c-18.16 0-34.999 5.63-48.893 15.221v41.115z"/><path fill="#FFD05B" stroke="#231F20" stroke-width="1.5" stroke-miterlimit="10" d="M46.646 229.742l37.038-18.081 12.395-23.314s-6.94-9.789-8.245-13.53c-2.581-7.397-3.022-15.544-3.022-15.544l-.576-.425c-22.622 15.472-37.493 41.44-37.59 70.894z"/><path fill="#FF7058" stroke="#231F20" stroke-width="1.5" stroke-miterlimit="10" d="M58.245 219.717c-8.569 5.096-10.942 8.729-11.601 10.354.068 29.331 14.794 55.208 37.235 70.724l9.723-66.377-9.918-22.756c.001-.001-11.987.054-25.439 8.055z"/><path fill="#FFD05B" stroke="#231F20" stroke-width="1.5" stroke-miterlimit="10" d="M117.911 233.935l-24.308.482s-10.098 21.77-11.101 39.319c-1.002 17.537.082 24.58.746 27.116 13.914 9.634 30.789 15.292 48.994 15.292 19.507 0 37.495-6.489 51.94-17.416l-66.271-64.793z"/><path fill="#FF7058" stroke="#231F20" stroke-width="1.5" stroke-miterlimit="10" d="M218.519 229.957c0-.475-.027-.941-.035-1.414l-.783-2.53-3.594-8.441-62.791-20.218-20.139 11.87-13.267 24.711s16.89 24.663 29.448 38.254c14.207 15.375 32.177 24.666 36.574 26.808 20.997-15.721 34.587-40.793 34.587-69.04z"/><path fill="#FFD05B" stroke="#231F20" stroke-width="1.5" stroke-miterlimit="10" d="M217.597 226.767l.922-.312c-1.729-33.133-22.178-61.289-50.963-74.146l-2.319-.627c-15.839 7.015-15.513 5.425-26.511 13.844-13.935 10.666-18.99 22.634-18.99 22.634l10.377 21.063s35.276 1.818 49.728 3.784c26.114 3.553 37.756 13.76 37.756 13.76z"/><path fill="#F9F9F9" stroke="#231F20" stroke-width="1.5" stroke-miterlimit="10" d="M131.177 211.07c0 10.188-5.718 25.873-27.538 25.873-13.716 0-19.955-10.623-19.955-25.254 0-16.401 11.119-26.492 24.834-26.492 13.717 0 22.659 8.348 22.659 25.873z"/><ellipse fill="#CDD5E1" stroke="#231F20" stroke-width="1.5" stroke-miterlimit="10" cx="106.961" cy="209.972" rx="4.358" ry="4.828"/></svg>