<svg xmlns="http://www.w3.org/2000/svg" width="256" height="256" viewBox="-35.225 -13.197 256 256"><path fill="#F3797A" stroke="#000" stroke-width="3" stroke-miterlimit="10" d="M165.694 205.406a5.115 5.115 0 0 0 5.114-5.115v.512V23.444v.563c0-12.43-10.076-22.507-22.506-22.507l.492.006H41.657l.504-.006c-12.43 0-22.507 10.077-22.507 22.507v-.563 177.168-.322a5.116 5.116 0 0 0 5.115 5.115h-.444 141.953"/><path fill="#FFF" stroke="#000" stroke-width="3" stroke-miterlimit="10" d="M27.806 22.585h135.641v43.951H27.806zM27.806 94.825h63.147v65.167H27.806z"/><path fill="#E1E1E1" stroke="#000" stroke-width="3" stroke-miterlimit="10" d="M100.3 94.825h63.146v65.167H100.3z"/><circle fill="#FEF6AA" stroke="#000" stroke-width="3" stroke-miterlimit="10" cx="42.034" cy="182.599" r="8.209"/><circle fill="#FEF6AA" stroke="#000" stroke-width="3" stroke-miterlimit="10" cx="149.396" cy="182.599" r="8.209"/><path fill="none" stroke="#000" stroke-width="3" stroke-miterlimit="10" d="M118.991 182.599a3.915 3.915 0 0 1-3.915 3.916H75.924a3.914 3.914 0 1 1 0-7.83h39.151a3.915 3.915 0 0 1 3.916 3.914z"/><path fill="#E1E1E1" stroke="#000" stroke-width="3" stroke-miterlimit="10" d="M170.808 91.036h11.33s2.034 0 4.547 1.769c2.487 1.75 2.272 5.304 2.272 5.304v29.302s-.415 4.039-3.789 4.039c-3.741 0-4.293-4.039-4.293-4.039V102.39s.064-1.749-.99-2.542c-1.191-.896-2.423-.864-2.423-.864l-6.654-.001v-7.947zM19.654 91.036H8.324s-2.034 0-4.546 1.769c-2.488 1.75-2.273 5.304-2.273 5.304v29.302s.415 4.039 3.789 4.039c3.742 0 4.293-4.039 4.293-4.039V102.39s-.064-1.749.99-2.542c1.192-.897 2.423-.865 2.423-.865l6.653-.001v-7.946zM45.903 222.967a3.558 3.558 0 0 1-3.558 3.559H29.738a3.56 3.56 0 0 1-3.559-3.559v.043-17.155h19.724v17.366M165.464 222.967a3.559 3.559 0 0 1-3.558 3.559h-12.607a3.558 3.558 0 0 1-3.558-3.559v.043-17.155h19.723v17.366"/></svg>