<svg xmlns="http://www.w3.org/2000/svg" width="406" height="313" viewBox="-0.936 -3.062 406 313"><path fill-rule="evenodd" clip-rule="evenodd" fill="#44E2C8" stroke="#202020" stroke-width="1.5" stroke-linecap="round" d="M403.378 47.056v248.653l-172.908.598s-6.195 11.257-24.279 11.257c-20.875 0-26.541-11.389-26.541-11.389L.771 295.708C.765 295.504.728 44.624.77 44.432c1.195-5.523 21.662-5.939 21.662-5.939l-.167-23.514S58.438-5.317 122.65 3.762c32.09 4.537 52.616 13.488 81.804 37.474 30.145-27.131 74.219-45.3 135.07-39.357 19.615 1.916 51.857 12.694 51.857 17.511 0 9.607-.068 22.684-.068 22.684s12.065 1.739 12.065 4.982"/><path fill-rule="evenodd" clip-rule="evenodd" fill="#FFF" stroke="#202020" stroke-width="1.5" stroke-linecap="round" d="M203.932 184.939c-5.132 3.925-6.136 4.908-10.5 8.374 0-19.874-.621-144.232-.621-144.232S147.657 6.645 67.235 16.459c-20.257 2.472-32.323 8.236-32.323 8.236s.588 19.715.588 32.656c0 57.784-.393 152.233-.393 203.02 56.982-19.588 115.334-1.678 169.347 16.557"/><path fill-rule="evenodd" clip-rule="evenodd" fill="#EBEBEB" stroke="#202020" stroke-width="1.5" stroke-linecap="round" d="M204.454 276.927c54.285-20.632 115.835-34.183 173.458-15.397 0-17.293-.188-115.155-.188-179.76 0-24.244-.291-54.815-.291-54.815S352.978 7.43 293.251 14.481c-51.875 6.125-78.781 34.625-78.781 34.625s.188 112.833.188 144c-3.281-2.583-7.029-5.602-10.727-8.167"/><path fill-rule="evenodd" clip-rule="evenodd" fill="#CDD5E1" stroke="#202020" stroke-width="1.5" stroke-linecap="round" d="M54.47 144.4V99.961c0-11.015.06-32.599.06-45.957 0-5.072 15.508-8.984 30.89-7.958s30.636 6.992 30.636 6.992.313 33.923.313 43.749v44.565c-19.533-1.882-42.773-2.345-61.899 3.048"/><path clip-rule="evenodd" fill="none" stroke="#202020" stroke-width="1.5" stroke-linecap="round" d="M129.859 57.107c14.702 3.712 29.073 7.888 42.853 14.284M240.165 72.185c34.572-14.508 74.154-21.895 111.102-12.697M240.165 99.167c34.52-15.003 74.65-24.074 111.895-12.697M129.859 84.089c13.771 4.457 27.965 8.713 41.266 14.284M239.372 123.768c35.461-13.928 75.842-23.274 113.48-11.904M130.653 110.277c13.797 3.25 26.981 8.489 40.472 11.904M240.165 151.542c35.471-14.203 75.535-23.136 113.482-13.491M129.859 138.052c13.969 3.456 27.73 7.728 41.266 12.697M240.165 178.524c34.527-15.822 75.164-25.392 112.688-14.284M171.125 176.143c-34.999-16.689-76.053-19.267-114.275-12.696M172.712 203.125c-34.697-18.427-75.892-19.091-114.274-14.284M239.372 204.712c35.146-15.203 75.402-23.835 113.48-15.078M58.438 215.822c37.608-8.245 78.782-3.45 112.688 14.285M240.165 230.9c34.992-16.041 74.822-23.703 112.688-14.284M204.454 41.236c0 94.205-1.26 185.57.133 235.691"/></svg>