<svg xmlns="http://www.w3.org/2000/svg" width="406" height="313" viewBox="-0.686 -2.812 406 313"><path fill-rule="evenodd" clip-rule="evenodd" fill="#44E2C8" stroke="#202020" stroke-width="2" stroke-linecap="round" d="M403.628 47.306v248.653l-172.908.598s-6.195 11.257-24.279 11.257c-20.875 0-26.541-11.389-26.541-11.389l-178.879-.467c-.006-.204-.043-251.084-.001-251.276 1.195-5.523 21.662-5.939 21.662-5.939l-.167-23.514S58.688-5.067 122.9 4.012c32.09 4.537 52.616 13.488 81.804 37.474 30.145-27.131 74.219-45.3 135.07-39.357 19.615 1.916 51.857 12.694 51.857 17.511 0 9.607-.068 22.684-.068 22.684s12.065 1.739 12.065 4.982"/><path fill-rule="evenodd" clip-rule="evenodd" fill="#FFF" stroke="#202020" stroke-width="2" stroke-linecap="round" d="M204.182 185.189c-5.132 3.925-6.136 4.908-10.5 8.374 0-19.874-.621-144.232-.621-144.232S147.907 6.895 67.485 16.709c-20.257 2.472-32.323 8.236-32.323 8.236s.588 19.715.588 32.656c0 57.784-.393 152.233-.393 203.02 56.982-19.588 115.334-1.678 169.347 16.557"/><path fill-rule="evenodd" clip-rule="evenodd" fill="#EBEBEB" stroke="#202020" stroke-width="2" stroke-linecap="round" d="M204.704 277.177c54.285-20.632 115.835-34.183 173.458-15.397 0-17.293-.188-115.155-.188-179.76 0-24.244-.291-54.815-.291-54.815S353.228 7.68 293.501 14.731c-51.875 6.125-78.781 34.625-78.781 34.625s.188 112.833.188 144c-3.281-2.583-7.029-5.602-10.727-8.167"/><path fill-rule="evenodd" clip-rule="evenodd" fill="#CDD5E1" stroke="#202020" stroke-width="2" stroke-linecap="round" d="M54.72 144.65v-44.439c0-11.015.06-32.599.06-45.957 0-5.072 15.508-8.984 30.89-7.958s30.636 6.992 30.636 6.992.313 33.923.313 43.749v44.565c-19.533-1.882-42.773-2.345-61.899 3.048"/><path clip-rule="evenodd" fill="none" stroke="#202020" stroke-width="2" stroke-linecap="round" d="M130.109 57.357c14.702 3.712 29.073 7.888 42.853 14.284M240.415 72.435c34.572-14.508 74.154-21.895 111.102-12.697M240.415 99.417c34.52-15.003 74.65-24.074 111.895-12.697M130.109 84.339c13.771 4.457 27.965 8.713 41.266 14.284M239.622 124.018c35.461-13.928 75.842-23.274 113.48-11.904M130.903 110.527c13.797 3.25 26.981 8.489 40.472 11.904M240.415 151.792c35.471-14.203 75.535-23.136 113.482-13.491M130.109 138.302c13.969 3.456 27.73 7.728 41.266 12.697M240.415 178.774c34.527-15.822 75.164-25.392 112.688-14.284M171.375 176.393c-34.999-16.689-76.053-19.267-114.275-12.696M172.962 203.375c-34.697-18.427-75.892-19.091-114.274-14.284M239.622 204.962c35.146-15.203 75.402-23.835 113.48-15.078M58.688 216.072c37.608-8.245 78.782-3.45 112.688 14.285M240.415 231.15c34.992-16.041 74.822-23.703 112.688-14.284M204.704 41.486c0 94.205-1.26 185.57.133 235.691"/></svg>