<svg xmlns="http://www.w3.org/2000/svg" width="256" height="256" viewBox="-2 -25.789 256 256"><path fill="#52C2F0" stroke="#000" stroke-width="2" stroke-miterlimit="10" d="M238.649 44.408h-42.466L178.161 1.309l-.26.109v-.109H75.279v.123l-.293-.123-18.023 43.099H13.039C6.39 44.408 1 49.889 1 56.649v134.057c0 6.761 5.39 12.242 12.039 12.242H238.65c6.648 0 12.039-5.481 12.039-12.242V56.649c-.001-6.76-5.391-12.241-12.04-12.241z"/><circle fill="#FFD05C" stroke="#000" stroke-width="2" stroke-miterlimit="10" cx="221.591" cy="73.833" r="12.869"/><path fill="#52C2F0" stroke="#000" stroke-width="2" stroke-miterlimit="10" d="M27.082 21.801h17.869v22.606H27.082z"/><circle fill="#E1E1E1" stroke="#000" stroke-width="2" stroke-miterlimit="10" cx="126.928" cy="113.358" r="77.459"/><circle fill="#CED6E1" stroke="#000" stroke-width="2" stroke-miterlimit="10" cx="127.017" cy="113.803" r="69.246"/><circle fill="#E1E1E1" stroke="#000" stroke-width="2" stroke-miterlimit="10" cx="127.828" cy="113.301" r="51.435"/><circle fill="#C9C0C1" stroke="#000" stroke-width="2" stroke-miterlimit="10" cx="127.819" cy="114.129" r="43.803"/><path fill="#CED6E1" stroke="#000" stroke-width="2" stroke-miterlimit="10" d="M153.041 149.476s-14.123-9.334-14.615-38.486c-.361-21.413 12.31-33.82 12.31-33.82l.282-.191a43.585 43.585 0 0 0-23.197-6.652 43.59 43.59 0 0 0-25.687 8.331c1.701 2.531 13.197 20.339 11.375 36.895-2.359 21.435-11.788 30.776-13.567 32.365a43.627 43.627 0 0 0 27.879 10.016 43.587 43.587 0 0 0 25.539-8.228l-.319-.23z"/><circle fill="#67C6BA" stroke="#000" stroke-width="2" stroke-miterlimit="10" cx="132.424" cy="97.668" r="15.342"/><circle fill="#F3705A" stroke="#000" stroke-width="2" stroke-miterlimit="10" cx="121.18" cy="104.26" r="9.016"/><circle fill="#FFF" stroke="#000" stroke-width="2" stroke-miterlimit="10" cx="111.038" cy="97.396" r="8.53"/></svg>