<svg xmlns="http://www.w3.org/2000/svg" width="256" height="256" viewBox="-43.774 -13.093 256 256"><path fill="#FFF" stroke="#000" stroke-width="1.5" stroke-miterlimit="10" d="M47.216.75h78.925v32.792H47.216z"/><circle fill="#F3797A" stroke="#000" stroke-width="1.5" stroke-miterlimit="10" cx="86.418" cy="17.35" r="12.32"/><path fill="#FFF" stroke="#000" stroke-width="1.5" stroke-miterlimit="10" d="M94.098 14.91h-5.814V9.095h-4.38v5.815h-5.815v4.381h5.815v5.813h4.38v-5.813h5.814z"/><path fill="#97D1A6" stroke="#000" stroke-width="1.5" stroke-miterlimit="10" d="M1.027 242.409s-4.028-65.679 18.646-79.772c12.215-7.593 39.359-12.682 39.359-12.682l54.999.465s34.065 2.865 46.286 15.907c12.803 13.665 12.803 76.082 12.803 76.082H1.027z"/><path fill="#D78E51" stroke="#000" stroke-width="1.5" stroke-miterlimit="10" d="M104.212 125.378l-35.928.048s.931 6.666 1.058 8.906c.088 1.596-.042 6.401-.042 6.401s.255 4.845-.781 6.211c-.582.769-2.713 1.928-3.66 2.109-2.026.384-5.827.9-5.827.9l28.218 46.952 27.076-46.511s-5.294-.225-6.972-.731c-.974-.294-2.813-1.466-3.331-2.342-1.005-1.704-.849-7.864-.849-7.864s.2-4.199.299-5.595c.149-2.122.739-8.484.739-8.484z"/><path fill="#E5985A" stroke="#000" stroke-width="1.5" stroke-miterlimit="10" d="M128.707 67.579s3.9 2.542 3.899 6.074c-.008 23.087-8.548 21.331-8.548 21.331s-6.498 18.153-15.298 26.542c-6.032 5.751-16.083 11.661-22.353 11.105-5.892-.523-12.182-3.255-17.637-6.62a64.249 64.249 0 0 1-7.223-5.175c-8.688-7.205-13.915-24.581-13.915-24.581s-9.508-2.072-8.519-23.034c.203-4.308 4.492-5.642 4.492-5.642l39.978-34.131h5.406l39.721 33.994"/><path fill="#9E7B52" stroke="#000" stroke-width="1.5" stroke-miterlimit="10" d="M49.399 33.448s-3.797 7.108-5.156 14.989c-1.059 6.146-.636 19.142-.636 19.142l3.249 3.673s.373.557.942.4c.49-.135 1.601-.824 1.601-.824v-5.721s9.606-5.228 19.424-13.703c8.264-7.134 14.762-17.956 14.762-17.956H49.399zM122.915 33.448s3.797 7.108 5.155 14.989c1.06 6.146.637 19.142.637 19.142l-3.249 3.673s-.986 1.004-1.555.848c-.49-.134-.988-1.272-.988-1.272v-5.721s-9.607-5.228-19.423-13.703c-8.265-7.134-14.763-17.956-14.763-17.956h34.186z"/><circle fill="#F9F9FA" stroke="#000" stroke-width="1.5" stroke-miterlimit="10" cx="38.975" cy="205.366" r="8.817"/><circle fill="none" stroke="#000" stroke-width="1.5" stroke-miterlimit="10" cx="38.873" cy="205.439" r="5.266"/><path fill="#B0AFB0" stroke="#000" stroke-width="1.5" stroke-miterlimit="10" d="M69.378 137.298c0-.341 0-.564-.092-1.489-.353.068-.718.133-1.046.209-4.685 1.069-13.975 4-19.083 8.188-5.466 4.481-9.419 8.949-10.939 16.186-1.828 8.701-1.715 35.35-1.709 36.453 0 0 1.334-.294 1.738-.296.444-.002 1.66 0 1.66 0-.001-.267-.125-27.111 1.629-35.46 1.316-6.268 4.858-10.233 9.771-14.26 4.622-3.79 13.519-6.553 17.915-7.558.111-.026.157-1.195.156-1.973zM143.868 176.036c-1.682-2.826-6.274-3.79-8.809-4.112-.188-2.627-.694-8.224-1.795-12.369-1.249-4.702-3.9-9.454-7.272-13.035-6.34-6.734-14.797-9.095-22.234-10.515-.198-.039-.195-.05-.404-.086-.022.385-.079.856-.09 1.221-.029.963-.021 2.22.012 2.226 9.785 1.868 15.733 4.683 20.25 9.479 1.418 1.507 4.886 5.651 6.462 11.578 1.005 3.783 1.491 9.068 1.679 11.626-2.27.436-6.086 1.445-7.578 3.492-1.948 2.676-2.375 10.001-2.44 11.442l3.386.155c.146-3.163.797-8.231 1.797-9.603.728-.998 4.002-1.988 6.693-2.358 2.612.189 6.54 1.096 7.432 2.593 1.157 1.945 1.564 7.095 1.58 9.284l3.391-.023c-.005-.314-.082-7.669-2.06-10.995z"/><path fill="none" stroke="#000" stroke-width="1.5" stroke-miterlimit="10" d="M123.346 187.05s-.329 12.703 2.044 17.79c3.46 7.417 13.984 9.817 13.984 9.817"/><path fill="none" stroke="#000" stroke-width="1.5" stroke-miterlimit="10" d="M144.474 187.05s.33 12.703-2.043 17.79c-3.463 7.417-13.985 9.817-13.985 9.817"/><circle fill="none" stroke="#000" stroke-width="1.5" stroke-miterlimit="10" cx="126.59" cy="214.941" r="1.978"/><circle fill="none" stroke="#000" stroke-width="1.5" stroke-miterlimit="10" cx="141.281" cy="214.941" r="1.978"/><path fill="none" stroke="#000" stroke-width="1.5" stroke-miterlimit="10" d="M72.344 112.077s4.886-3.172 6.852-3.226c1.553-.042 3.273.323 4.238.707.577.229 1.658 1.091 2.637 1.059.765-.025 1.53-.918 2.44-1.238.892-.313 2.072-.581 3.682-.581 2.392 0 7.604 3.773 7.604 3.773s-2.66 2.66-4.85 3.908c-1.946 1.109-6.378 2.232-8.616 2.284-2.317.053-6.521-.658-8.971-1.907-1.572-.801-5.016-4.779-5.016-4.779zM61.961 76.996s6.828-7.675 13.231 0M96.995 76.996c1.556-1.749 8.286-5.927 13.233 0"/><path fill="none" stroke="#000" stroke-width="1.5" stroke-miterlimit="10" d="M72.344 111.959s10.333 2.323 13.704 2.373c3.493.052 13.748-1.973 13.748-1.973"/></svg>