<svg xmlns="http://www.w3.org/2000/svg" width="256" height="256" viewBox="-13.46 -38.077 256 256"><path fill="#E97642" stroke="#231F20" stroke-width="3" stroke-miterlimit="10" d="M114.063 1.5c-31.504 0-61.569 5.548-81.851 18.222C12.843 31.826 2.54 50.635 2.54 68.789h223.048c0-19.943-13.181-39.644-36.025-51.966C169.838 6.185 142.603 1.5 114.063 1.5zM1.5 128.319c0 11.756 5.384 26.507 19.74 35.197 20.551 12.44 56.198 16.563 92.786 16.563 34.958 0 67.942-2.781 88.581-14.285 16.053-8.947 23.945-24.97 23.945-37.476 0-.415-.013-.828-.034-1.241H1.534c-.021.414-.034.827-.034 1.242z"/><path fill="#A65744" stroke="#231F20" stroke-width="3" stroke-miterlimit="10" d="M16.96 88.206c-7.852 0-14.218 6.128-14.218 13.688s6.366 13.688 14.218 13.688c.506 0 1.005-.027 1.498-.077H16.96v.077h196.205l-.843-.077s-.506.077 0 .077c7.852 0 14.218-6.128 14.218-13.688s-6.366-13.688-14.218-13.688h.843l-197.138.032.933-.032z"/><path fill="#BBD75E" stroke="#231F20" stroke-width="3" stroke-miterlimit="10" d="M6.665 68.789H221.29s.11 6.324-1.875 8.821c-3.875 4.875-6.5 4.563-6.5 4.563H16.165s-4.375-2.5-6.25-5c-2.281-3.042-3.25-8.384-3.25-8.384zM6.665 127.078s.415-4.606 2.152-7.453c2.056-3.368 5.431-4.077 5.431-4.077H215.29s2.855 1.582 4.809 4.007c2.177 2.702 2.177 7.523 2.177 7.523H6.665z"/><path fill="#F26F5A" stroke="#231F20" stroke-width="3" stroke-miterlimit="10" d="M23.517 82.177h90.94v6.029h-90.94zM127.658 82.177h77.019v6.029h-77.019z"/><ellipse fill="none" stroke="#231F20" stroke-width="3" stroke-miterlimit="10" cx="64.764" cy="13.298" rx="4.224" ry="1.625"/><ellipse fill="none" stroke="#231F20" stroke-width="3" stroke-miterlimit="10" cx="88.478" cy="7.423" rx="3.938" ry="1.75"/><ellipse fill="none" stroke="#231F20" stroke-width="3" stroke-miterlimit="10" cx="104.603" cy="15.048" rx="4.188" ry="1.75"/><ellipse fill="none" stroke="#231F20" stroke-width="3" stroke-miterlimit="10" cx="123.165" cy="6.548" rx="3.75" ry="1.75"/><ellipse fill="none" stroke="#231F20" stroke-width="3" stroke-miterlimit="10" cx="141.603" cy="15.048" rx="3.938" ry="1.75"/><ellipse fill="none" stroke="#231F20" stroke-width="3" stroke-miterlimit="10" cx="157.04" cy="10.798" rx="3.75" ry="1.625"/></svg>