<svg xmlns="http://www.w3.org/2000/svg" width="256" height="256" viewBox="-0.894 -88.91 256 256"><path fill="#67C6BA" stroke="#000" stroke-width="4" stroke-miterlimit="10" d="M96.942 84.255v6.24H67.089v-6.24c0-1.467.856-2.447 2.447-3.182.245-.121 1.101-.366 2.446-.979l-.489-1.345-4.405-11.991H31.853l-4.527 12.603-.367.733c1.345.612 2.202.857 2.446.979 1.591.734 2.447 1.715 2.447 3.182v6.24H2v-6.24c0-1.467.856-2.447 2.446-3.182.612-.245 2.937-1.223 6.729-2.813L41.028 2.037h16.884l29.976 76.224c3.794 1.59 6.119 2.567 6.729 2.813 1.591.612 2.325 1.714 2.325 3.181zM36.135 55.137h26.794l-10.155-27.53c-.49-1.345-.979-2.814-1.591-4.527s-1.101-3.793-1.713-5.873c-.612 2.08-1.224 4.038-1.712 5.873-.49 1.835-1.101 3.304-1.591 4.649L36.135 55.137z"/><g fill="#67C6BA" stroke="#000" stroke-width="4" stroke-miterlimit="10"><path d="M175.614 64.726c-.118 3.753-.726 7.144-2.179 10.292-1.455 3.148-3.513 5.935-6.177 8.235-2.664 2.3-5.933 3.995-9.931 5.329-3.995 1.33-8.475 1.936-13.562 1.936h-42.261v-7.144c0-2.059.969-3.269 3.027-3.754.122 0 .363-.121.727-.121s.969-.243 1.816-.364 2.18-.361 3.634-.604V14.958c-1.454-.244-2.786-.485-3.634-.607-.848-.121-1.453-.364-1.816-.364s-.605-.121-.727-.121c-2.058-.483-3.027-1.695-3.027-3.754V2.968h39.357c5.689 0 10.533.484 14.651 1.575 4.117 1.089 7.507 2.664 10.05 4.722 2.663 2.059 4.481 4.481 5.69 7.388 1.213 2.906 1.817 5.935 1.817 9.565 0 2.06-2.14 18.457-11.147 18.457 12.802 0 13.893 13.676 13.692 20.051zM126.936 40.87h13.078c5.57 0 9.687-.969 12.593-3.027 2.907-2.06 4.239-5.329 4.239-9.686 0-4.604-1.332-7.752-3.875-9.688-2.544-1.937-6.66-2.907-12.108-2.907h-13.926V40.87zm32.574 23.491c0-1.936-.364-3.51-.969-5.084-.605-1.454-1.453-2.786-2.787-3.876-1.332-1.09-2.905-1.816-4.964-2.422-2.058-.605-4.479-.849-7.386-.849h-16.468v25.673h16.587c3.028 0 5.573-.364 7.63-1.091 2.059-.727 3.634-1.695 4.843-2.906 1.213-1.21 2.181-2.663 2.666-4.237.606-1.574.848-3.39.848-5.208zM241.49 28.397c-.243-1.089-.605-4.358-1.09-9.688-6.66-1.936-12.109-2.784-16.711-2.784-4.117 0-7.87.605-11.383 2.059-3.512 1.453-6.418 3.511-8.839 6.175-2.422 2.664-4.36 5.813-5.813 9.687-1.451 3.875-2.179 8.236-2.179 12.958 0 4.964.728 9.202 2.179 13.076 1.453 3.875 3.148 7.024 5.57 9.688 2.423 2.663 5.207 4.602 8.478 6.055 3.27 1.454 6.658 2.058 10.413 2.058 2.18 0 4.238-.121 6.055-.363 1.816-.24 3.511-.605 4.964-1.088 1.453-.485 2.907-1.213 4.239-2.06 1.331-.849 2.664-1.938 3.995-3.148.364-.364.849-.605 1.332-.848.485-.243.97-.243 1.453-.243.849 0 1.696.243 2.301.969l6.419 7.024c-3.513 4.358-7.871 7.749-13.078 10.051-5.208 2.3-11.504 3.511-18.77 3.511-6.539 0-12.23-1.211-17.437-3.39-5.208-2.181-9.688-5.208-13.32-9.204a41.674 41.674 0 0 1-8.478-14.167c-1.938-5.448-2.906-11.383-2.906-17.921 0-6.54 1.092-12.716 3.271-18.165s5.206-10.05 9.203-14.047c3.995-3.996 8.596-7.144 14.168-9.323C210.976 3.089 217.151 2 223.811 2c7.267 0 16.469 2.058 27.488 6.296v22.282h-7.023c-1.576 0-2.422-.726-2.786-2.181z"/></g></svg>