<svg xmlns="http://www.w3.org/2000/svg" width="256" height="256" viewBox="-0.979 -0.746 256 256"><circle fill="#FBBF54" stroke="#2B3B4E" stroke-width="4" stroke-miterlimit="10" cx="127.01" cy="127.01" r="125.01"/><circle fill="#FFF" stroke="#231F20" stroke-width=".25" stroke-miterlimit="10" cx="75.729" cy="109.986" r="7.246"/><circle fill="#FFF" stroke="#231F20" stroke-width="4" stroke-miterlimit="10" cx="182.003" cy="109.986" r="7.246"/><path fill="#2B3B4E" stroke="#2B3B4E" stroke-width="4" stroke-miterlimit="10" d="M77.338 96.982c-8.383 0-15.179 6.796-15.179 15.178 0 8.383 6.796 15.18 15.179 15.18 8.382 0 15.178-6.797 15.178-15.18 0-8.381-6.796-15.178-15.178-15.178zm.931 17.82a4.418 4.418 0 1 1 .001-8.835 4.418 4.418 0 0 1-.001 8.835zM178.58 96.982c-8.384 0-15.18 6.796-15.18 15.178 0 8.383 6.796 15.18 15.18 15.18 8.382 0 15.18-6.797 15.18-15.18-.001-8.381-6.799-15.178-15.18-15.178zm.929 17.82a4.416 4.416 0 0 1-4.415-4.417 4.416 4.416 0 1 1 8.832 0 4.416 4.416 0 0 1-4.417 4.417z"/><path fill="none" stroke="#2B3B4E" stroke-width="4" stroke-miterlimit="10" d="M77.542 63.51S84.5 95.017 45.665 96.982M179.064 63.51s-6.957 31.508 31.877 33.473M76.895 175.542s17.476-23.139 50.155-23.139c33.34 0 48.389 21.683 48.389 21.683"/></svg>