<svg xmlns="http://www.w3.org/2000/svg" width="256" height="256" viewBox="-35.725 -13.697 256 256"><path fill="#F3705A" stroke="#000" stroke-width="2" stroke-miterlimit="10" d="M165.194 204.906a5.115 5.115 0 0 0 5.114-5.115v.512V22.944v.563C170.308 11.077 160.232 1 147.802 1l.492.006H41.157L41.661 1c-12.43 0-22.507 10.077-22.507 22.507v-.563 177.168-.322a5.116 5.116 0 0 0 5.115 5.115h-.444 141.953"/><path fill="#FFF" stroke="#000" stroke-width="2" stroke-miterlimit="10" d="M27.306 22.085h135.641v43.951H27.306zM27.306 94.325h63.147v65.167H27.306z"/><path fill="#CED6E1" stroke="#000" stroke-width="2" stroke-miterlimit="10" d="M99.8 94.325h63.146v65.167H99.8z"/><circle fill="#FFD05C" stroke="#000" stroke-width="2" stroke-miterlimit="10" cx="42.534" cy="182.099" r="8.209"/><circle fill="#FFD05C" stroke="#000" stroke-width="2" stroke-miterlimit="10" cx="149.896" cy="182.099" r="8.209"/><path fill="none" stroke="#000" stroke-width="2" stroke-miterlimit="10" d="M160.915 80.769A3.914 3.914 0 0 1 157 84.684H34.242a3.915 3.915 0 1 1 0-7.83H157a3.914 3.914 0 0 1 3.915 3.915zM118.491 182.099a3.915 3.915 0 0 1-3.915 3.916H75.424a3.914 3.914 0 0 1-3.915-3.916c0-2.161 1.752-3.914 4.915-3.914h39.151c1.163 0 2.916 1.753 2.916 3.914zM110.903 118.069l12.377-9.346M110.903 129.687l30.783-23.742"/><path fill="#CED6E1" stroke="#000" stroke-width="2" stroke-miterlimit="10" d="M170.308 90.536h11.33s2.034 0 4.547 1.769c2.487 1.75 2.272 5.304 2.272 5.304v29.302s-.415 4.039-3.789 4.039c-3.741 0-4.293-4.039-4.293-4.039V101.89s.064-1.749-.99-2.542c-1.191-.896-2.423-.864-2.423-.864l-6.654-.001v-7.947zM19.154 90.536H7.824s-2.034 0-4.546 1.769c-2.488 1.75-2.273 5.304-2.273 5.304v29.302s.415 4.039 3.789 4.039c3.742 0 4.293-4.039 4.293-4.039V101.89s-.064-1.749.99-2.542c1.191-.896 2.423-.864 2.423-.864l6.653-.001v-7.947zM45.403 222.467a3.558 3.558 0 0 1-3.558 3.559H29.238a3.56 3.56 0 0 1-3.559-3.559v.043-17.155h19.724v17.366M164.964 222.467a3.559 3.559 0 0 1-3.558 3.559h-12.607a3.558 3.558 0 0 1-3.558-3.559v.043-17.155h19.723v17.366"/></svg>