<svg xmlns="http://www.w3.org/2000/svg" width="551" height="133" viewBox="0 0 551 133"><path fill="#FFF" d="M176.158 33.796c.803.853 1.207 1.896 1.207 3.124v63.9c0 1.23-.404 2.25-1.207 3.053-.806.806-1.824 1.207-3.053 1.207-1.231 0-2.25-.401-3.053-1.207-.806-.803-1.207-1.822-1.207-3.053v-9.514c-2.368 4.26-5.917 7.858-10.65 10.791-4.734 2.936-9.893 4.402-15.478 4.402-6.343 0-12.047-1.655-17.111-4.97-5.065-3.313-9.042-7.856-11.928-13.632-2.889-5.773-4.331-12.259-4.331-19.455 0-7.192 1.466-13.653 4.402-19.383 2.933-5.727 6.934-10.199 11.999-13.418 5.063-3.218 10.672-4.828 16.827-4.828 5.68 0 10.885 1.373 15.62 4.117 4.733 2.747 8.283 6.344 10.65 10.793V36.92c0-1.229.401-2.271 1.207-3.124.803-.853 1.821-1.278 3.053-1.278 1.228 0 2.247.425 3.053 1.278zm-19.312 60.847c3.927-2.602 7.004-6.199 9.23-10.791 2.223-4.592 3.337-9.728 3.337-15.408 0-5.488-1.114-10.508-3.337-15.051-2.226-4.545-5.303-8.117-9.23-10.722-3.93-2.603-8.356-3.905-13.277-3.905-4.923 0-9.35 1.278-13.277 3.834-3.929 2.557-7.007 6.084-9.23 10.58-2.226 4.496-3.337 9.584-3.337 15.264 0 5.681 1.087 10.816 3.266 15.408 2.176 4.592 5.229 8.189 9.159 10.791 3.927 2.605 8.4 3.905 13.419 3.905 4.921 0 9.347-1.3 13.277-3.905zM244.43 32.447c.803.805 1.207 1.824 1.207 3.053v62.622c0 7.478-1.469 13.867-4.402 19.17-2.936 5.301-7.007 9.323-12.212 12.07-5.207 2.744-11.076 4.118-17.608 4.118-3.976 0-7.692-.426-11.147-1.278-3.457-.853-6.319-1.988-8.591-3.408-1.988-1.231-2.982-2.604-2.982-4.118 0-.19.093-.663.284-1.42.284-.947.757-1.657 1.42-2.13.662-.475 1.372-.71 2.13-.71.568 0 1.136.143 1.704.426 6.058 3.313 11.833 4.971 17.324 4.971 7.856 0 14.08-2.463 18.673-7.385 4.591-4.923 6.887-11.644 6.887-20.164v-4.97c-2.368 3.976-5.775 7.171-10.224 9.585-4.451 2.414-9.279 3.621-14.484 3.621-8.236 0-14.484-2.461-18.744-7.384-4.26-4.921-6.39-11.595-6.39-20.022V35.5c0-1.229.402-2.248 1.207-3.053.803-.803 1.822-1.207 3.053-1.207 1.229 0 2.248.404 3.053 1.207.803.805 1.207 1.824 1.207 3.053v42.316c0 6.815 1.491 11.977 4.473 15.478 2.982 3.503 7.644 5.254 13.987 5.254 3.88 0 7.597-.97 11.147-2.911 3.55-1.939 6.39-4.494 8.52-7.668 2.13-3.17 3.195-6.554 3.195-10.152V35.5c0-1.229.401-2.248 1.207-3.053.803-.803 1.821-1.207 3.053-1.207 1.228 0 2.246.405 3.053 1.207zM307.795 35.643c5.111 3.219 9.111 7.691 12 13.418 2.887 5.729 4.33 12.19 4.33 19.383 0 7.101-1.443 13.562-4.33 19.384-2.889 5.821-6.865 10.39-11.93 13.703-5.064 3.314-10.721 4.97-16.969 4.97-5.395 0-10.391-1.35-14.98-4.047-4.594-2.698-8.307-6.27-11.146-10.721v9.371c0 1.232-.404 2.272-1.207 3.125-.807.852-1.824 1.277-3.053 1.277-1.232 0-2.25-.426-3.055-1.277-.805-.853-1.207-1.893-1.207-3.125V4.402c0-1.229.402-2.248 1.207-3.053.805-.804 1.822-1.207 3.055-1.207 1.229 0 2.246.403 3.053 1.207.803.805 1.207 1.823 1.207 3.053v41.89c2.555-4.638 6.152-8.378 10.791-11.218 4.637-2.84 9.703-4.26 15.195-4.26 6.248 0 11.928 1.611 17.039 4.829zm-4.473 58.929c3.928-2.649 7.004-6.271 9.23-10.863 2.223-4.59 3.336-9.678 3.336-15.266 0-5.68-1.113-10.768-3.336-15.264-2.227-4.496-5.303-8.023-9.23-10.58-3.93-2.556-8.355-3.834-13.277-3.834-5.02 0-9.514 1.256-13.49 3.764-3.977 2.51-7.053 6.035-9.23 10.578-2.178 4.545-3.266 9.656-3.266 15.336 0 5.681 1.111 10.816 3.338 15.408 2.223 4.592 5.301 8.189 9.23 10.791 3.926 2.605 8.398 3.905 13.418 3.905 4.922.001 9.348-1.323 13.277-3.975zM398.389 88.04c-3.123 5.775-7.432 10.295-12.922 13.562-5.49 3.266-11.598 4.898-18.316 4.898-6.725 0-12.83-1.633-18.318-4.898-5.492-3.267-9.799-7.786-12.922-13.562-3.125-5.772-4.688-12.212-4.688-19.312 0-7.101 1.563-13.537 4.688-19.313 3.123-5.773 7.43-10.316 12.922-13.632 5.488-3.313 11.594-4.97 18.318-4.97 6.719 0 12.826 1.657 18.316 4.97 5.49 3.315 9.799 7.858 12.922 13.632 3.125 5.775 4.688 12.212 4.688 19.313-.001 7.1-1.563 13.54-4.688 19.312zm-7.383-34.647c-2.367-4.545-5.658-8.117-9.869-10.722-4.213-2.603-8.875-3.905-13.986-3.905-5.113 0-9.752 1.303-13.916 3.905-4.168 2.604-7.455 6.177-9.869 10.722-2.414 4.543-3.621 9.655-3.621 15.336 0 5.586 1.207 10.649 3.621 15.193 2.414 4.545 5.701 8.119 9.869 10.721 4.164 2.605 8.803 3.905 13.916 3.905 5.111 0 9.773-1.278 13.986-3.834 4.211-2.556 7.502-6.106 9.869-10.649 2.365-4.545 3.549-9.656 3.549-15.336 0-5.681-1.184-10.793-3.549-15.336zM477.197 88.04c-3.123 5.775-7.432 10.295-12.922 13.562-5.49 3.266-11.598 4.898-18.316 4.898-6.725 0-12.83-1.633-18.318-4.898-5.492-3.267-9.799-7.786-12.922-13.562-3.125-5.772-4.688-12.212-4.688-19.312 0-7.101 1.563-13.537 4.688-19.313 3.123-5.773 7.43-10.316 12.922-13.632 5.488-3.313 11.594-4.97 18.318-4.97 6.719 0 12.826 1.657 18.316 4.97 5.49 3.315 9.799 7.858 12.922 13.632 3.125 5.775 4.688 12.212 4.688 19.313 0 7.1-1.563 13.54-4.688 19.312zm-7.383-34.647c-2.367-4.545-5.658-8.117-9.869-10.722-4.213-2.603-8.875-3.905-13.986-3.905-5.113 0-9.752 1.303-13.916 3.905-4.168 2.604-7.455 6.177-9.869 10.722-2.414 4.543-3.621 9.655-3.621 15.336 0 5.586 1.207 10.649 3.621 15.193 2.414 4.545 5.701 8.119 9.869 10.721 4.164 2.605 8.803 3.905 13.916 3.905 5.111 0 9.773-1.278 13.986-3.834 4.211-2.556 7.502-6.106 9.869-10.649 2.365-4.545 3.549-9.656 3.549-15.336 0-5.681-1.183-10.793-3.549-15.336zM551.455 100.82c0 1.23-.496 2.25-1.49 3.053-.994.806-1.918 1.207-2.77 1.207-1.23 0-2.271-.52-3.123-1.563L512.689 70.29l-10.65 9.088v21.442c0 1.23-.402 2.25-1.207 3.053-.805.806-1.822 1.207-3.053 1.207s-2.25-.401-3.053-1.207c-.805-.803-1.207-1.822-1.207-3.053V4.26c0-1.229.402-2.247 1.207-3.053C495.529.404 496.549 0 497.779 0s2.248.404 3.053 1.207c.805.806 1.207 1.824 1.207 3.053v64.752l41.039-35.357c.852-.945 1.846-1.42 2.982-1.42 1.039 0 1.986.45 2.84 1.349.852.901 1.277 1.87 1.277 2.911 0 1.136-.521 2.226-1.563 3.266l-29.252 24.85 30.814 32.945c.853.946 1.279 2.035 1.279 3.264z"/><path fill="#FFD15C" d="M39.281 5.68v38.091L21.82 13.528l-3.549 2.798L37.25 49.198 6.096 31.212 4.14 35.247l30.998 17.897H0v4.472h35.679L4.249 75.763l1.977 4.022L37.25 61.874 18.393 94.536l3.591 2.724 17.297-29.958.034 37.632 7.573 1.319V4.684z"/><path fill="#FFF" d="M59.025 13.264c9.503 1.795 18.181 6.81 24.535 14.204a42.845 42.845 0 0 1 10.338 27.916 42.851 42.851 0 0 1-10.283 27.85C77.258 90.658 68.556 95.7 59.025 97.5V13.264m-3.74-8.58c-1.231 0-2.25.404-3.053 1.207-.806.806-1.207 1.824-1.207 3.053v92.881c0 1.23.401 2.25 1.207 3.053.803.806 1.821 1.207 3.053 1.207l2.26-.27 1.433-.192v.012c.085-.014.169-.032.254-.046l.175-.023v-.008c24.106-3.998 42.491-24.933 42.491-50.173 0-25.313-18.489-46.297-42.697-50.21V5.17l-.083-.011c-.047-.008-.093-.018-.14-.025v.007l-1.376-.179-2.317-.278z"/></svg>