<?xml version="1.0" encoding="utf-8"?>
<!-- Generator: Adobe Illustrator 15.0.0, SVG Export Plug-In  -->
<!DOCTYPE svg PUBLIC "-//W3C//DTD SVG 1.1//EN" "http://www.w3.org/Graphics/SVG/1.1/DTD/svg11.dtd" [
	<!ENTITY ns_flows "http://ns.adobe.com/Flows/1.0/">
]>
<svg version="1.1"
	 xmlns="http://www.w3.org/2000/svg" xmlns:xlink="http://www.w3.org/1999/xlink" xmlns:a="http://ns.adobe.com/AdobeSVGViewerExtensions/3.0/"
	 x="0px" y="0px" width="406px" height="313px" viewBox="0.814 -1.312 406 313" enable-background="new 0.814 -1.312 406 313"
	 xml:space="preserve">
<defs>
</defs>
<path fill-rule="evenodd" clip-rule="evenodd" fill="none" stroke="#FFFFFF" stroke-width="5" stroke-linecap="round" d="
	M405.128,48.806c0-3.243-12.064-4.982-12.064-4.982s0.068-13.077,0.068-22.684c0-4.816-32.242-15.595-51.857-17.511
	c-60.852-5.942-104.926,12.226-135.07,39.357C177.016,19,156.49,10.049,124.4,5.512C60.188-3.567,24.015,16.729,24.015,16.729
	l0.167,23.514c0,0-20.467,0.416-21.662,5.939c-0.042,0.191-0.004,251.072,0.002,251.276"/>
<path fill-rule="evenodd" clip-rule="evenodd" fill="none" stroke="#FFFFFF" stroke-width="5" stroke-linecap="round" d="
	M405.128,48.806c0,86.968,0,165.459,0,248.653l-172.908,0.598c0,0-6.195,11.257-24.279,11.257
	c-20.875,0-26.541-11.389-26.541-11.389L2.521,297.458"/>
<path fill-rule="evenodd" clip-rule="evenodd" fill="none" stroke="#FFFFFF" stroke-width="5" stroke-linecap="round" d="
	M205.682,186.689c-5.132,3.925-6.136,4.908-10.5,8.374c0-19.874-0.621-144.232-0.621-144.232S149.407,8.395,68.985,18.209
	c-20.257,2.472-32.323,8.236-32.323,8.236S37.25,46.16,37.25,59.101c0,57.784-0.393,152.233-0.393,203.02
	c56.982-19.588,115.334-1.678,169.347,16.557"/>
<path fill-rule="evenodd" clip-rule="evenodd" fill="none" stroke="#FFFFFF" stroke-width="5" stroke-linecap="round" d="
	M206.204,278.677c54.285-20.632,115.835-34.183,173.458-15.397c0-17.293-0.188-115.155-0.188-179.76
	c0-24.244-0.291-54.815-0.291-54.815s-24.455-19.525-84.182-12.474c-51.875,6.125-78.781,34.625-78.781,34.625
	s0.188,112.833,0.188,144c-3.281-2.583-7.029-5.602-10.727-8.167"/>
<path fill-rule="evenodd" clip-rule="evenodd" fill="none" stroke="#FFFFFF" stroke-width="5" stroke-linecap="round" d="
	M56.22,146.15c0-18.53,0-26.757,0-44.439c0-11.015,0.06-32.599,0.06-45.957c0-5.072,15.508-8.984,30.89-7.958
	s30.636,6.992,30.636,6.992s0.313,33.923,0.313,43.749c0,18.737,0,31.231,0,44.565C98.586,141.22,75.346,140.757,56.22,146.15"/>
<path fill-rule="evenodd" clip-rule="evenodd" fill="none" stroke="#FFFFFF" stroke-width="5" stroke-linecap="round" d="
	M131.609,58.857c14.702,3.712,29.073,7.888,42.853,14.284"/>
<path fill-rule="evenodd" clip-rule="evenodd" fill="none" stroke="#FFFFFF" stroke-width="5" stroke-linecap="round" d="
	M241.915,73.935c34.572-14.508,74.154-21.895,111.102-12.697"/>
<path fill-rule="evenodd" clip-rule="evenodd" fill="none" stroke="#FFFFFF" stroke-width="5" stroke-linecap="round" d="
	M241.915,100.917c34.52-15.003,74.65-24.074,111.895-12.697"/>
<path fill-rule="evenodd" clip-rule="evenodd" fill="none" stroke="#FFFFFF" stroke-width="5" stroke-linecap="round" d="
	M131.609,85.839c13.771,4.457,27.965,8.713,41.266,14.284"/>
<path fill-rule="evenodd" clip-rule="evenodd" fill="none" stroke="#FFFFFF" stroke-width="5" stroke-linecap="round" d="
	M241.122,125.518c35.461-13.928,75.842-23.274,113.48-11.904"/>
<path fill-rule="evenodd" clip-rule="evenodd" fill="none" stroke="#FFFFFF" stroke-width="5" stroke-linecap="round" d="
	M132.403,112.027c13.797,3.25,26.981,8.489,40.472,11.904"/>
<path fill-rule="evenodd" clip-rule="evenodd" fill="none" stroke="#FFFFFF" stroke-width="5" stroke-linecap="round" d="
	M241.915,153.292c35.471-14.203,75.535-23.136,113.482-13.491"/>
<path fill-rule="evenodd" clip-rule="evenodd" fill="none" stroke="#FFFFFF" stroke-width="5" stroke-linecap="round" d="
	M131.609,139.802c13.969,3.456,27.73,7.728,41.266,12.697"/>
<path fill-rule="evenodd" clip-rule="evenodd" fill="none" stroke="#FFFFFF" stroke-width="5" stroke-linecap="round" d="
	M241.915,180.274c34.527-15.822,75.164-25.392,112.688-14.284"/>
<path fill-rule="evenodd" clip-rule="evenodd" fill="none" stroke="#FFFFFF" stroke-width="5" stroke-linecap="round" d="
	M172.875,177.893c-34.999-16.689-76.053-19.267-114.275-12.696"/>
<path fill-rule="evenodd" clip-rule="evenodd" fill="none" stroke="#FFFFFF" stroke-width="5" stroke-linecap="round" d="
	M174.462,204.875c-34.697-18.427-75.892-19.091-114.274-14.284"/>
<path fill-rule="evenodd" clip-rule="evenodd" fill="none" stroke="#FFFFFF" stroke-width="5" stroke-linecap="round" d="
	M241.122,206.462c35.146-15.203,75.402-23.835,113.48-15.078"/>
<path fill-rule="evenodd" clip-rule="evenodd" fill="none" stroke="#FFFFFF" stroke-width="5" stroke-linecap="round" d="
	M60.188,217.572c37.608-8.245,78.782-3.45,112.688,14.285"/>
<path fill-rule="evenodd" clip-rule="evenodd" fill="none" stroke="#FFFFFF" stroke-width="5" stroke-linecap="round" d="
	M241.915,232.65c34.992-16.041,74.822-23.703,112.688-14.284"/>
<path fill-rule="evenodd" clip-rule="evenodd" fill="none" stroke="#FFFFFF" stroke-width="5" stroke-linecap="round" d="
	M206.204,42.986c0,94.205-1.26,185.57,0.133,235.691"/>
</svg>
