<?xml version="1.0" encoding="utf-8"?>
<!-- Generator: Adobe Illustrator 15.0.0, SVG Export Plug-In  -->
<!DOCTYPE svg [
	<!ENTITY ns_flows "http://ns.adobe.com/Flows/1.0/">
]>
<svg version="1.2" baseProfile="tiny"
	 xmlns="http://www.w3.org/2000/svg" xmlns:xlink="http://www.w3.org/1999/xlink" xmlns:a="http://ns.adobe.com/AdobeSVGViewerExtensions/3.0/"
	 x="0px" y="0px" width="250px" height="250px" viewBox="-0.919 -7.137 250 250" xml:space="preserve">
<defs>
</defs>
<path fill-rule="evenodd" d="M48.694,0c2.098,0,5.831,0.418,7.929,0.418c23.281,3.378,48.97,32.417,31.858,61.694
	c8.467,8.659,35.907,31.041,35.907,31.041s14.508-14.785,20.271-20.498c9.447-9.364,12.81-13.057,19.143-18.906
	c-13.789-10.1-29.499-30.857-27.231-41.977c1.31-6.418,6.036-9.896,12.591-8.813c7.346,1.213,27.383,22.208,41.545,23.921
	c5.601,0.678,7.095-4.244,13.85-5.037c1.004-0.135,16.577,12.294,13.118,28.911c12.187,10.234,18.083,14.563,30.062,24.601
	c-8.691,10.188-14.39,16.976-24.968,28.004c-11.877-9.868-18.571-15.839-30.345-25.177c-13.229,12.807-28.828,29.333-41.943,41.399
	c12.146,10.264,20.298,17.558,34.235,29.61c36.795-21.425,82.48,29.097,56.351,58.98c-11.044-9.497-19.647-16.898-31.476-25.181
	c-7.553,0.826-9.687,0.968-17.356,2.104c-0.954,7.643-0.959,9.415-1.527,19.299c9.709,8.789,19.368,16.529,30.543,26.756
	c-30.738,23.246-85.035-12.348-66.721-53.057c-11.979-9.869-21.795-18.48-33.994-28.51c-14.414,13.93-20.884,20.38-38.211,38.042
	c-9.733,9.921-45.232,48.281-45.232,48.281S14.44,215.779,6.387,207.615c34.527-36.059,50.994-52.945,83.275-85.614
	c-11.524-11.477-19.141-18.136-33.571-31.378C19.013,107.833-16.097,58.045,7.842,26.01c10.349,11.749,18.236,19.802,29.27,31.084
	c8.824-2.325,16.728-4.797,16.728-4.797l3.415-16.605c0,0-19.778-18.813-28.551-27.164C34.497,1.211,42.683,0.454,48.694,0z"/>
</svg>
