<?xml version="1.0" encoding="utf-8"?>
<!-- Generator: Adobe Illustrator 15.0.0, SVG Export Plug-In  -->
<!DOCTYPE svg PUBLIC "-//W3C//DTD SVG 1.1//EN" "http://www.w3.org/Graphics/SVG/1.1/DTD/svg11.dtd" [
	<!ENTITY ns_flows "http://ns.adobe.com/Flows/1.0/">
]>
<svg version="1.1"
	 xmlns="http://www.w3.org/2000/svg" xmlns:xlink="http://www.w3.org/1999/xlink" xmlns:a="http://ns.adobe.com/AdobeSVGViewerExtensions/3.0/"
	 x="0px" y="0px" width="256px" height="256px" viewBox="-1.293 -0.046 256 256" enable-background="new -1.293 -0.046 256 256"
	 xml:space="preserve">
<defs>
</defs>
<polygon fill="#E86565" stroke="#000000" stroke-width="3" stroke-miterlimit="10" points="188.177,67.47 191.713,55.118 
	228.732,68.478 222.329,81.471 200.145,81.891 "/>
<path fill="#E1E1E1" stroke="#000000" stroke-width="3" stroke-miterlimit="10" d="M150.624,64.87
	c-0.475-27.483-24.853-50.938-41.31-57.094C100.215,3.826,89.51,1.5,78.199,1.5c-29.118,0-66.547,31.084-72.321,52.656
	C3.087,61.574,1.5,69.681,1.5,77.829c0,0.252,0.012,0.501,0.015,0.753C1.513,78.806,1.5,79.026,1.5,79.25
	c0,8.029,1.699,15.616,4.71,22.359c5.965,14.118,17.069,24.336,30.217,26.778c3.459,0.926,7.068,1.429,10.785,1.429
	c15.892,0,29.884-8.975,38.076-22.587c0.016,0.019,0.033,0.035,0.049,0.053c1.128-1.4,2.886-2.134,5.027-2.063
	c4.307,0.141,4.953,0.875,7.633,5.269c3.211,5.809,9.982,9.825,17.841,9.825c6.579,0,12.393-2.819,16.001-7.141
	C142.278,103.563,150.955,84.071,150.624,64.87z"/>
<path fill="#F3797A" stroke="#000000" stroke-width="3" stroke-miterlimit="10" d="M188.51,66.348l-16.622,55.965l25.245,17.525
	l25.51-59.093c0,0-8.897,2.694-20.676-1.075C193.771,77.048,188.51,66.348,188.51,66.348z"/>
<polyline fill="#A56352" stroke="#000000" stroke-width="3" stroke-miterlimit="10" points="89.101,156.2 72.208,102.777 
	81.33,100.288 98.77,141.141 89.592,156.2 "/>
<path fill="#90C6DE" stroke="#000000" stroke-width="3" stroke-miterlimit="10" d="M77.207,102.371
	c6.438-1.464,9.21-9.088,8.875-13.386c-0.427-5.479-3.994-10.704-7.656-13.813c-1.809-1.536-6.094-3.813-6.844-7.625
	c-0.338-1.721,0.352-4.668,2.063-6.469c1.217-1.281,3.494-1.962,3.063-2.625c-0.493-0.758-2.456,0.716-4.406,1.657
	c-3.931,1.896-8.418,4.132-11.313,7.375c-6.461,7.239-5.07,12.489-5,17.239c0.041,2.781,2.441,10.924,6.136,14.397
	C67.863,104.516,77.207,102.371,77.207,102.371"/>
<circle fill="#FFFFFF" stroke="#000000" stroke-width="3" stroke-miterlimit="10" cx="151.01" cy="184.415" r="64.277"/>
<path fill="#A3AAB3" stroke="#000000" stroke-width="3" stroke-miterlimit="10" d="M97.052,150.772c0,0-0.408,5.181-0.301,6.275
	c0.144,1.477,0.668,5.484,0.668,5.484s2.383,2.415,3.288,3.089c1.179,0.879,5.083,2.958,5.083,2.958s9.408-5.262,12.167-7.542
	c3.219-2.661,9.625-10.375,9.625-10.375s0.224-5.25,0.167-7c-0.049-1.536-0.542-6.125-0.542-6.125l-4.792-2.791l-9.333-0.026
	l-12.417,5.734L97.052,150.772z"/>
<polygon fill="#A3AAB3" stroke="#000000" stroke-width="3" stroke-miterlimit="10" points="151.522,122.33 150.077,126.641 
	169.207,136.516 185.02,137.141 185.02,132.996 168.27,121.516 "/>
<path fill="#A3AAB3" stroke="#000000" stroke-width="3" stroke-miterlimit="10" d="M146.895,158.579c0,0,4.345-4.043,9.813-5.625
	c3.781-1.094,11.875-2.125,11.875-2.125s6.031,5.031,9.188,8.844c3.333,4.026,7.25,11.531,7.25,11.531s-2.094,8.563-4.75,12.5
	c-3.044,4.513-8.125,8.938-8.125,8.938s-9.787-2.334-12.938-3.469c-4.688-1.688-9.813-4.844-9.813-4.844s-1.645-5.603-2.094-11.781
	C147.054,169.146,146.895,158.579,146.895,158.579z"/>
<path fill="#A3AAB3" stroke="#000000" stroke-width="3" stroke-miterlimit="10" d="M99.082,206.954c0,0,0.938-6.75,2.219-9.438
	c1.522-3.193,5.781-7,5.781-7s9.64,2.158,12.406,3.375c3.203,1.408,11.469,7.125,11.469,7.125s-1.171,9.792-0.625,14.563
	c0.469,4.094,3.313,7.625,3.313,7.625s-5.572,4.12-7.75,4.844c-2.244,0.745-9.938,1.031-9.938,1.031s-6.656-4.406-10.875-10.25
	C102.047,214.625,99.082,206.954,99.082,206.954z"/>
<path fill="#A3AAB3" stroke="#000000" stroke-width="3" stroke-miterlimit="10" d="M159.582,230.641l8.509-7.838l8.929-8.225
	c0,0,7.768,0.388,9.887,0.682c1.997,0.277,6.551,1.568,6.551,1.568s-1.929,8.34-3.313,10.719c-1.35,2.32-4.933,6.192-7.188,7.469
	c-2.249,1.272-7.993,4.524-10.669,5.344c-2.545,0.779-9.831,1.156-9.831,1.156s-3.192-3.267-3.594-4.688
	C158.431,235.295,159.582,230.641,159.582,230.641z"/>
<path fill="#A3AAB3" stroke="#000000" stroke-width="3" stroke-miterlimit="10" d="M206.617,158.2h-4.035c0,0-0.824,5.176-1,6.91
	c-0.23,2.267-0.625,9.094-0.625,9.094s-0.5,8.094,1.438,14c1.804,5.498,4.375,7.75,4.375,7.75s2.128,0.004,2.709-0.073
	c0.537-0.071,2.162-0.514,2.162-0.514l3.899-19.413L206.617,158.2z"/>
<circle fill="#E1E1E1" stroke="#000000" stroke-width="3" stroke-miterlimit="10" cx="219.297" cy="36.643" r="33.197"/>
<circle fill="#97D1A6" stroke="#000000" stroke-width="3" stroke-miterlimit="10" cx="72.789" cy="25.494" r="14.18"/>
<circle fill="#90C6DE" stroke="#000000" stroke-width="3" stroke-miterlimit="10" cx="41.33" cy="42.888" r="13.197"/>
<circle fill="#F3797A" stroke="#000000" stroke-width="3" stroke-miterlimit="10" cx="29.084" cy="73.773" r="12.951"/>
<circle fill="#FBE28B" stroke="#000000" stroke-width="3" stroke-miterlimit="10" cx="41.658" cy="108.773" r="14.672"/>
<circle fill="#E1E1E1" stroke="#000000" stroke-width="3" stroke-miterlimit="10" cx="124.248" cy="83.543" r="9.426"/>
<path fill="#A3AAB3" stroke="#000000" stroke-width="3" stroke-miterlimit="10" d="M150.231,117.1
	c-40.105,0-67.787,30.348-67.787,67.787c0,37.438,30.349,67.787,67.787,67.787s67.787-30.35,67.787-67.787
	S187.669,117.1,150.231,117.1z M150.077,247.231c-34.496,0-62.459-27.965-62.459-62.459c0-34.495,27.963-62.459,62.459-62.459
	c34.494,0,62.459,27.964,62.459,62.459C212.536,219.266,184.571,247.231,150.077,247.231z"/>
<path fill="none" stroke="#000000" stroke-width="3" stroke-miterlimit="10" d="M127.207,137.537c0,0,4.799-9.271,23.024-11.052"/>
<path fill="none" stroke="#000000" stroke-width="3" stroke-miterlimit="10" d="M127.582,150.662c0,0,9.438,6.823,19.563,8.104"/>
<path fill="none" stroke="#000000" stroke-width="3" stroke-miterlimit="10" d="M97.395,162.345c0,0-6.523,6.019-8.699,10.813"/>
<path fill="none" stroke="#000000" stroke-width="3" stroke-miterlimit="10" d="M105.984,168.47c0,0,0.098,18.608,1.254,22.046"/>
<path fill="none" stroke="#000000" stroke-width="3" stroke-miterlimit="10" d="M99.082,206.954c0,0-8.313-4.395-10.281-10.025"/>
<path fill="none" stroke="#000000" stroke-width="3" stroke-miterlimit="10" d="M130.957,201.016c0,0,13-16,18.438-16.688"/>
<path fill="none" stroke="#000000" stroke-width="3" stroke-miterlimit="10" d="M115.988,228.829c0,0-0.938,7.406,1.344,8.844"/>
<path fill="none" stroke="#000000" stroke-width="3" stroke-miterlimit="10" d="M133.533,223.06c0,0,6.893,7.144,26.049,7.581"/>
<path fill="none" stroke="#000000" stroke-width="3" stroke-miterlimit="10" d="M162.457,241.516c0,0-4.184,4.625-7.561,5.531"/>
<path fill="none" stroke="#000000" stroke-width="3" stroke-miterlimit="10" d="M206.77,195.954c0,0-4.656,16.75-13.313,20.875"/>
<path fill="none" stroke="#000000" stroke-width="3" stroke-miterlimit="10" d="M172.145,192.641c0,0,3.438-0.438,5.031,21.938"/>
<path fill="none" stroke="#000000" stroke-width="3" stroke-miterlimit="10" d="M185.02,171.204c0,0,12.826-0.439,15.96,2.624"/>
<path fill="none" stroke="#000000" stroke-width="3" stroke-miterlimit="10" d="M202.738,158.2c0,0-1.531-13.215-17.719-21.215"/>
<path fill="none" stroke="#000000" stroke-width="3" stroke-miterlimit="10" d="M168.582,150.829c0,0,1.344-5.906,0.625-14.313"/>
<path fill="none" stroke="#000000" stroke-width="3" stroke-miterlimit="10" d="M189.023,23.061c0,0,4.345,19.132,23.834,25.384
	c21.625,6.938,37.1,1.017,37.1,1.017s1.305-3.122,1.65-4.37c0.275-0.996,0.887-4.725,0.887-4.725s-22.479,4.467-36.949-1.734
	c-15.313-6.563-21.854-23.065-21.854-23.065s-2.082,2.571-2.649,3.525C190.481,20.033,189.023,23.061,189.023,23.061z"/>
</svg>
