<?xml version="1.0" encoding="utf-8"?>
<!-- Generator: Adobe Illustrator 15.0.0, SVG Export Plug-In  -->
<!DOCTYPE svg PUBLIC "-//W3C//DTD SVG 1.1//EN" "http://www.w3.org/Graphics/SVG/1.1/DTD/svg11.dtd" [
	<!ENTITY ns_flows "http://ns.adobe.com/Flows/1.0/">
]>
<svg version="1.1"
	 xmlns="http://www.w3.org/2000/svg" xmlns:xlink="http://www.w3.org/1999/xlink" xmlns:a="http://ns.adobe.com/AdobeSVGViewerExtensions/3.0/"
	 x="0px" y="0px" width="256px" height="256px" viewBox="-2.043 -0.796 256 256" enable-background="new -2.043 -0.796 256 256"
	 xml:space="preserve">
<defs>
</defs>
<polygon fill="#E86565" stroke="#000000" stroke-width="1.5" stroke-miterlimit="10" points="187.427,66.72 190.963,54.368 
	227.982,67.728 221.579,80.721 199.395,81.141 "/>
<path fill="#E1E1E1" stroke="#000000" stroke-width="1.5" stroke-miterlimit="10" d="M149.874,64.12
	c-0.475-27.483-24.853-50.938-41.31-57.094C99.465,3.076,88.76,0.75,77.449,0.75c-29.118,0-66.547,31.084-72.321,52.656
	C2.337,60.824,0.75,68.931,0.75,77.079c0,0.252,0.012,0.501,0.015,0.753C0.763,78.056,0.75,78.276,0.75,78.5
	c0,8.029,1.699,15.616,4.71,22.359c5.965,14.118,17.069,24.336,30.217,26.778c3.459,0.926,7.068,1.429,10.785,1.429
	c15.892,0,29.884-8.975,38.076-22.587c0.016,0.019,0.033,0.035,0.049,0.053c1.128-1.4,2.886-2.134,5.027-2.063
	c4.307,0.141,4.953,0.875,7.633,5.269c3.211,5.809,9.982,9.825,17.841,9.825c6.579,0,12.393-2.819,16.001-7.141
	C141.528,102.813,150.205,83.321,149.874,64.12z"/>
<path fill="#F3797A" stroke="#000000" stroke-width="1.5" stroke-miterlimit="10" d="M187.76,65.598l-16.622,55.965l25.245,17.525
	l25.51-59.093c0,0-8.897,2.694-20.676-1.075C193.021,76.298,187.76,65.598,187.76,65.598z"/>
<polyline fill="#A56352" stroke="#000000" stroke-width="1.5" stroke-miterlimit="10" points="88.351,155.45 71.458,102.027 
	80.58,99.538 98.02,140.391 88.842,155.45 "/>
<path fill="#90C6DE" stroke="#000000" stroke-width="1.5" stroke-miterlimit="10" d="M76.457,101.621
	c6.438-1.464,9.21-9.088,8.875-13.386c-0.427-5.479-3.994-10.704-7.656-13.813c-1.809-1.536-6.094-3.813-6.844-7.625
	c-0.338-1.721,0.352-4.668,2.063-6.469c1.217-1.281,3.494-1.962,3.063-2.625c-0.493-0.758-2.456,0.716-4.406,1.657
	c-3.931,1.896-8.418,4.132-11.313,7.375c-6.461,7.239-5.07,12.489-5,17.239c0.041,2.781,2.441,10.924,6.136,14.397
	C67.113,103.766,76.457,101.621,76.457,101.621"/>
<circle fill="#FFFFFF" stroke="#000000" stroke-width="1.5" stroke-miterlimit="10" cx="150.26" cy="183.665" r="64.277"/>
<path fill="#A3AAB3" stroke="#000000" stroke-width="1.5" stroke-miterlimit="10" d="M96.302,150.022c0,0-0.408,5.181-0.301,6.275
	c0.144,1.477,0.668,5.484,0.668,5.484s2.383,2.415,3.288,3.089c1.179,0.879,5.083,2.958,5.083,2.958s9.408-5.262,12.167-7.542
	c3.219-2.661,9.625-10.375,9.625-10.375s0.224-5.25,0.167-7c-0.049-1.536-0.542-6.125-0.542-6.125l-4.792-2.791l-9.333-0.026
	l-12.417,5.734L96.302,150.022z"/>
<polygon fill="#A3AAB3" stroke="#000000" stroke-width="1.5" stroke-miterlimit="10" points="150.772,121.58 149.327,125.891 
	168.457,135.766 184.27,136.391 184.27,132.246 167.52,120.766 "/>
<path fill="#A3AAB3" stroke="#000000" stroke-width="1.5" stroke-miterlimit="10" d="M146.145,157.829c0,0,4.345-4.043,9.813-5.625
	c3.781-1.094,11.875-2.125,11.875-2.125s6.031,5.031,9.188,8.844c3.333,4.026,7.25,11.531,7.25,11.531s-2.094,8.563-4.75,12.5
	c-3.044,4.513-8.125,8.938-8.125,8.938s-9.787-2.334-12.938-3.469c-4.688-1.688-9.813-4.844-9.813-4.844s-1.645-5.603-2.094-11.781
	C146.304,168.396,146.145,157.829,146.145,157.829z"/>
<path fill="#A3AAB3" stroke="#000000" stroke-width="1.5" stroke-miterlimit="10" d="M98.332,206.204c0,0,0.938-6.75,2.219-9.438
	c1.522-3.193,5.781-7,5.781-7s9.64,2.158,12.406,3.375c3.203,1.408,11.469,7.125,11.469,7.125s-1.171,9.792-0.625,14.563
	c0.469,4.094,3.313,7.625,3.313,7.625s-5.572,4.12-7.75,4.844c-2.244,0.745-9.938,1.031-9.938,1.031s-6.656-4.406-10.875-10.25
	C101.297,213.875,98.332,206.204,98.332,206.204z"/>
<path fill="#A3AAB3" stroke="#000000" stroke-width="1.5" stroke-miterlimit="10" d="M158.832,229.891l8.509-7.838l8.929-8.225
	c0,0,7.768,0.388,9.887,0.682c1.997,0.277,6.551,1.568,6.551,1.568s-1.929,8.34-3.313,10.719c-1.35,2.32-4.933,6.192-7.188,7.469
	c-2.249,1.272-7.993,4.524-10.669,5.344c-2.545,0.779-9.831,1.156-9.831,1.156s-3.192-3.267-3.594-4.688
	C157.681,234.545,158.832,229.891,158.832,229.891z"/>
<path fill="#A3AAB3" stroke="#000000" stroke-width="1.5" stroke-miterlimit="10" d="M205.867,157.45h-4.035c0,0-0.824,5.176-1,6.91
	c-0.23,2.267-0.625,9.094-0.625,9.094s-0.5,8.094,1.438,14c1.804,5.498,4.375,7.75,4.375,7.75s2.128,0.004,2.709-0.073
	c0.537-0.071,2.162-0.514,2.162-0.514l3.899-19.413L205.867,157.45z"/>
<circle fill="#E1E1E1" stroke="#000000" stroke-width="1.5" stroke-miterlimit="10" cx="218.547" cy="35.893" r="33.197"/>
<circle fill="#97D1A6" stroke="#000000" stroke-width="1.5" stroke-miterlimit="10" cx="72.039" cy="24.744" r="14.18"/>
<circle fill="#90C6DE" stroke="#000000" stroke-width="1.5" stroke-miterlimit="10" cx="40.58" cy="42.138" r="13.197"/>
<circle fill="#F3797A" stroke="#000000" stroke-width="1.5" stroke-miterlimit="10" cx="28.334" cy="73.023" r="12.951"/>
<circle fill="#FBE28B" stroke="#000000" stroke-width="1.5" stroke-miterlimit="10" cx="40.908" cy="108.023" r="14.672"/>
<circle fill="#E1E1E1" stroke="#000000" stroke-width="1.5" stroke-miterlimit="10" cx="123.498" cy="82.793" r="9.426"/>
<path fill="#A3AAB3" stroke="#000000" stroke-width="1.5" stroke-miterlimit="10" d="M149.481,116.35
	c-40.105,0-67.787,30.348-67.787,67.787c0,37.438,30.349,67.787,67.787,67.787s67.787-30.35,67.787-67.787
	S186.919,116.35,149.481,116.35z M149.327,246.481c-34.496,0-62.459-27.965-62.459-62.459c0-34.495,27.963-62.459,62.459-62.459
	c34.494,0,62.459,27.964,62.459,62.459C211.786,218.516,183.821,246.481,149.327,246.481z"/>
<path fill="none" stroke="#000000" stroke-width="1.5" stroke-miterlimit="10" d="M126.457,136.787c0,0,4.799-9.271,23.024-11.052"
	/>
<path fill="none" stroke="#000000" stroke-width="1.5" stroke-miterlimit="10" d="M126.832,149.912c0,0,9.438,6.823,19.563,8.104"/>
<path fill="none" stroke="#000000" stroke-width="1.5" stroke-miterlimit="10" d="M96.645,161.595c0,0-6.523,6.019-8.699,10.813"/>
<path fill="none" stroke="#000000" stroke-width="1.5" stroke-miterlimit="10" d="M105.234,167.72c0,0,0.098,18.608,1.254,22.046"/>
<path fill="none" stroke="#000000" stroke-width="1.5" stroke-miterlimit="10" d="M98.332,206.204c0,0-8.313-4.395-10.281-10.025"/>
<path fill="none" stroke="#000000" stroke-width="1.5" stroke-miterlimit="10" d="M130.207,200.266c0,0,13-16,18.438-16.688"/>
<path fill="none" stroke="#000000" stroke-width="1.5" stroke-miterlimit="10" d="M115.238,228.079c0,0-0.938,7.406,1.344,8.844"/>
<path fill="none" stroke="#000000" stroke-width="1.5" stroke-miterlimit="10" d="M132.783,222.31c0,0,6.893,7.144,26.049,7.581"/>
<path fill="none" stroke="#000000" stroke-width="1.5" stroke-miterlimit="10" d="M161.707,240.766c0,0-4.184,4.625-7.561,5.531"/>
<path fill="none" stroke="#000000" stroke-width="1.5" stroke-miterlimit="10" d="M206.02,195.204c0,0-4.656,16.75-13.313,20.875"/>
<path fill="none" stroke="#000000" stroke-width="1.5" stroke-miterlimit="10" d="M171.395,191.891c0,0,3.438-0.438,5.031,21.938"/>
<path fill="none" stroke="#000000" stroke-width="1.5" stroke-miterlimit="10" d="M184.27,170.454c0,0,12.826-0.439,15.96,2.624"/>
<path fill="none" stroke="#000000" stroke-width="1.5" stroke-miterlimit="10" d="M201.988,157.45c0,0-1.531-13.215-17.719-21.215"
	/>
<path fill="none" stroke="#000000" stroke-width="1.5" stroke-miterlimit="10" d="M167.832,150.079c0,0,1.344-5.906,0.625-14.313"/>
<path fill="none" stroke="#000000" stroke-width="1.5" stroke-miterlimit="10" d="M188.273,22.311c0,0,4.345,19.132,23.834,25.384
	c21.625,6.938,37.1,1.017,37.1,1.017s1.305-3.122,1.65-4.37c0.275-0.996,0.887-4.725,0.887-4.725s-22.479,4.467-36.949-1.734
	c-15.313-6.563-21.854-23.065-21.854-23.065s-2.082,2.571-2.649,3.525C189.731,19.283,188.273,22.311,188.273,22.311z"/>
</svg>
