<?xml version="1.0" encoding="utf-8"?>
<!-- Generator: Adobe Illustrator 15.0.0, SVG Export Plug-In  -->
<!DOCTYPE svg PUBLIC "-//W3C//DTD SVG 1.1//EN" "http://www.w3.org/Graphics/SVG/1.1/DTD/svg11.dtd" [
	<!ENTITY ns_flows "http://ns.adobe.com/Flows/1.0/">
]>
<svg version="1.1"
	 xmlns="http://www.w3.org/2000/svg" xmlns:xlink="http://www.w3.org/1999/xlink" xmlns:a="http://ns.adobe.com/AdobeSVGViewerExtensions/3.0/"
	 x="0px" y="0px" width="256px" height="256px" viewBox="-43.024 -11.343 256 256" enable-background="new -43.024 -11.343 256 256"
	 xml:space="preserve">
<defs>
</defs>
<rect x="47.966" y="1.5" fill="#FFFFFF" stroke="#000000" stroke-width="3" stroke-miterlimit="10" width="78.925" height="32.792"/>
<circle fill="#F3797A" stroke="#000000" stroke-width="3" stroke-miterlimit="10" cx="87.168" cy="18.1" r="12.32"/>
<polygon fill="#FFFFFF" stroke="#000000" stroke-width="3" stroke-miterlimit="10" points="94.848,15.66 89.034,15.66 89.034,9.845 
	84.654,9.845 84.654,15.66 78.839,15.66 78.839,20.041 84.654,20.041 84.654,25.854 89.034,25.854 89.034,20.041 94.848,20.041 "/>
<path fill="#97D1A6" stroke="#000000" stroke-width="3" stroke-miterlimit="10" d="M1.777,243.159c0,0-4.028-65.679,18.646-79.772
	c12.215-7.593,39.359-12.682,39.359-12.682l54.999,0.465c0,0,34.065,2.865,46.286,15.907c12.803,13.665,12.803,76.082,12.803,76.082
	H1.777z"/>
<path fill="#D78E51" stroke="#000000" stroke-width="3" stroke-miterlimit="10" d="M104.962,126.128l-35.928,0.048
	c0,0,0.931,6.666,1.058,8.906c0.088,1.596-0.042,6.401-0.042,6.401s0.255,4.845-0.781,6.211c-0.582,0.769-2.713,1.928-3.66,2.109
	c-2.026,0.384-5.827,0.9-5.827,0.9L88,197.657l27.076-46.511c0,0-5.294-0.225-6.972-0.731c-0.974-0.294-2.813-1.466-3.331-2.342
	c-1.005-1.704-0.849-7.864-0.849-7.864s0.2-4.199,0.299-5.595C104.372,132.49,104.962,126.128,104.962,126.128z"/>
<path fill="#E5985A" stroke="#000000" stroke-width="3" stroke-miterlimit="10" d="M129.457,68.329c0,0,3.9,2.542,3.899,6.074
	c-0.008,23.087-8.548,21.331-8.548,21.331s-6.498,18.153-15.298,26.542c-6.032,5.751-16.083,11.661-22.353,11.105
	c-5.892-0.523-12.182-3.255-17.637-6.62c-2.652-1.636-5.107-3.419-7.223-5.175c-8.688-7.205-13.915-24.581-13.915-24.581
	s-9.508-2.072-8.519-23.034c0.203-4.308,4.492-5.642,4.492-5.642l39.978-34.131h5.406l39.721,33.994"/>
<path fill="#9E7B52" stroke="#000000" stroke-width="3" stroke-miterlimit="10" d="M50.149,34.198c0,0-3.797,7.108-5.156,14.989
	c-1.059,6.146-0.636,19.142-0.636,19.142l3.249,3.673c0,0,0.373,0.557,0.942,0.4c0.49-0.135,1.601-0.824,1.601-0.824v-5.721
	c0,0,9.606-5.228,19.424-13.703c8.264-7.134,14.762-17.956,14.762-17.956H50.149z"/>
<path fill="#9E7B52" stroke="#000000" stroke-width="3" stroke-miterlimit="10" d="M123.665,34.198c0,0,3.797,7.108,5.155,14.989
	c1.06,6.146,0.637,19.142,0.637,19.142l-3.249,3.673c0,0-0.986,1.004-1.555,0.848c-0.49-0.134-0.988-1.272-0.988-1.272v-5.721
	c0,0-9.607-5.228-19.423-13.703c-8.265-7.134-14.763-17.956-14.763-17.956H123.665z"/>
<circle fill="#F9F9FA" stroke="#000000" stroke-width="3" stroke-miterlimit="10" cx="39.725" cy="206.116" r="8.817"/>
<circle fill="none" stroke="#000000" stroke-width="3" stroke-miterlimit="10" cx="39.623" cy="206.189" r="5.266"/>
<path fill="#B0AFB0" stroke="#000000" stroke-width="3" stroke-miterlimit="10" d="M70.128,138.048c0-0.341,0-0.564-0.092-1.489
	c-0.353,0.068-0.718,0.133-1.046,0.209c-4.685,1.069-13.975,4-19.083,8.188c-5.466,4.481-9.419,8.949-10.939,16.186
	c-1.828,8.701-1.715,35.35-1.709,36.453c0,0,1.334-0.294,1.738-0.296c0.444-0.002,1.66,0,1.66,0
	c-0.001-0.267-0.125-27.111,1.629-35.46c1.316-6.268,4.858-10.233,9.771-14.26c4.622-3.79,13.519-6.553,17.915-7.558
	C70.083,139.995,70.129,138.826,70.128,138.048z"/>
<path fill="#B0AFB0" stroke="#000000" stroke-width="3" stroke-miterlimit="10" d="M144.618,176.786
	c-1.682-2.826-6.274-3.79-8.809-4.112c-0.188-2.627-0.694-8.224-1.795-12.369c-1.249-4.702-3.9-9.454-7.272-13.035
	c-6.34-6.734-14.797-9.095-22.234-10.515c-0.198-0.039-0.195-0.05-0.404-0.086c-0.022,0.385-0.079,0.856-0.09,1.221
	c-0.029,0.963-0.021,2.22,0.012,2.226c9.785,1.868,15.733,4.683,20.25,9.479c1.418,1.507,4.886,5.651,6.462,11.578
	c1.005,3.783,1.491,9.068,1.679,11.626c-2.27,0.436-6.086,1.445-7.578,3.492c-1.948,2.676-2.375,10.001-2.44,11.442l3.386,0.155
	c0.146-3.163,0.797-8.231,1.797-9.603c0.728-0.998,4.002-1.988,6.693-2.358c2.612,0.189,6.54,1.096,7.432,2.593
	c1.157,1.945,1.564,7.095,1.58,9.284l3.391-0.023C146.673,187.467,146.596,180.112,144.618,176.786z"/>
<path fill="none" stroke="#000000" stroke-width="3" stroke-miterlimit="10" d="M124.096,187.8c0,0-0.329,12.703,2.044,17.79
	c3.46,7.417,13.984,9.817,13.984,9.817"/>
<path fill="none" stroke="#000000" stroke-width="3" stroke-miterlimit="10" d="M145.224,187.8c0,0,0.33,12.703-2.043,17.79
	c-3.463,7.417-13.985,9.817-13.985,9.817"/>
<circle fill="none" stroke="#000000" stroke-width="3" stroke-miterlimit="10" cx="127.34" cy="215.691" r="1.978"/>
<circle fill="none" stroke="#000000" stroke-width="3" stroke-miterlimit="10" cx="142.031" cy="215.691" r="1.978"/>
<path fill="none" stroke="#000000" stroke-width="3" stroke-miterlimit="10" d="M73.094,112.827c0,0,4.886-3.172,6.852-3.226
	c1.553-0.042,3.273,0.323,4.238,0.707c0.577,0.229,1.658,1.091,2.637,1.059c0.765-0.025,1.53-0.918,2.44-1.238
	c0.892-0.313,2.072-0.581,3.682-0.581c2.392,0,7.604,3.773,7.604,3.773s-2.66,2.66-4.85,3.908c-1.946,1.109-6.378,2.232-8.616,2.284
	c-2.317,0.053-6.521-0.658-8.971-1.907C76.538,116.805,73.094,112.827,73.094,112.827z"/>
<path fill="none" stroke="#000000" stroke-width="3" stroke-miterlimit="10" d="M62.711,77.746c0,0,6.828-7.675,13.231,0"/>
<path fill="none" stroke="#000000" stroke-width="3" stroke-miterlimit="10" d="M97.745,77.746c1.556-1.749,8.286-5.927,13.233,0"/>
<path fill="none" stroke="#000000" stroke-width="3" stroke-miterlimit="10" d="M73.094,112.709c0,0,10.333,2.323,13.704,2.373
	c3.493,0.052,13.748-1.973,13.748-1.973"/>
</svg>
