<?xml version="1.0" encoding="utf-8"?>
<!-- Generator: Adobe Illustrator 15.0.0, SVG Export Plug-In  -->
<!DOCTYPE svg [
	<!ENTITY ns_flows "http://ns.adobe.com/Flows/1.0/">
]>
<svg version="1.2" baseProfile="tiny"
	 xmlns="http://www.w3.org/2000/svg" xmlns:xlink="http://www.w3.org/1999/xlink" xmlns:a="http://ns.adobe.com/AdobeSVGViewerExtensions/3.0/"
	 x="0px" y="0px" width="250px" height="250px" viewBox="0 0 250 250" xml:space="preserve">
<defs>
</defs>
<path fill-rule="evenodd" d="M94.107,0c21.757,0,43.514,0,65.271,0c0,30.377,0,62.194,0,92.571c29.747,0,60.03-0.207,90.622-0.207
	c0,21.757,0,43.514,0,65.271c-30.378,0-59.581,0-89.959,0c0,40.114,0.442,61.864,0.442,92.364c-21.757,0-44.62,0-66.376,0
	c0-30.378,0-61.986,0-92.364c-29.055,0-64.349,0-94.107,0c0-21.757,0-43.514,0-65.271c30.788,0,63.319,0,94.107,0
	C94.107,61.577,94.107,30.788,94.107,0z"/>
</svg>
