<?xml version="1.0" encoding="utf-8"?>
<!-- Generator: Adobe Illustrator 15.0.0, SVG Export Plug-In  -->
<!DOCTYPE svg PUBLIC "-//W3C//DTD SVG 1.1//EN" "http://www.w3.org/Graphics/SVG/1.1/DTD/svg11.dtd" [
	<!ENTITY ns_flows "http://ns.adobe.com/Flows/1.0/">
]>
<svg version="1.1"
	 xmlns="http://www.w3.org/2000/svg" xmlns:xlink="http://www.w3.org/1999/xlink" xmlns:a="http://ns.adobe.com/AdobeSVGViewerExtensions/3.0/"
	 x="0px" y="0px" width="500px" height="500px" viewBox="-3 -3 500 500" enable-background="new -3 -3 500 500"
	 xml:space="preserve">
<defs>
</defs>
<ellipse fill="#FFCC32" cx="247.132" cy="246.593" rx="247.132" ry="246.593"/>
<path fill-rule="evenodd" clip-rule="evenodd" fill="#050606" d="M146.19,284.741c-4.915,1.35-8.747,7.275-7.742,14.09l0,0
	c10.741,65.229,55.526,111.896,109.014,113.561c54.695,1.701,103.59-45.063,116.611-111.061c0.797-6.004-2.034-12.894-7.449-14.565"
	/>
<path fill-rule="evenodd" clip-rule="evenodd" fill="#050606" d="M155.275,162.555c0,27.771,14.074,50.909,30.954,50.909
	c16.881,0,30.947-23.139,30.947-50.909c0-27.77-14.066-49.364-30.947-49.364C169.349,113.191,155.275,134.786,155.275,162.555
	L155.275,162.555z"/>
<path fill-rule="evenodd" clip-rule="evenodd" fill="#050606" d="M313.772,113.191c-16.888,0-30.947,21.594-30.947,49.364
	c0,27.771,14.06,50.909,30.947,50.909c16.864,0,30.953-23.139,30.953-50.909C344.726,134.786,330.637,113.191,313.772,113.191
	L313.772,113.191z"/>
</svg>
