<?xml version="1.0" encoding="utf-8"?>
<!-- Generator: Adobe Illustrator 15.0.0, SVG Export Plug-In  -->
<!DOCTYPE svg PUBLIC "-//W3C//DTD SVG 1.1//EN" "http://www.w3.org/Graphics/SVG/1.1/DTD/svg11.dtd" [
	<!ENTITY ns_flows "http://ns.adobe.com/Flows/1.0/">
]>
<svg version="1.1"
	 xmlns="http://www.w3.org/2000/svg" xmlns:xlink="http://www.w3.org/1999/xlink" xmlns:a="http://ns.adobe.com/AdobeSVGViewerExtensions/3.0/"
	 x="0px" y="0px" width="500px" height="500px" viewBox="-3 -3 500 500" enable-background="new -3 -3 500 500"
	 xml:space="preserve">
<defs>
</defs>
<ellipse fill="#FFCC32" cx="247.132" cy="246.593" rx="247.132" ry="246.593"/>
<path fill-rule="evenodd" clip-rule="evenodd" fill="#020202" d="M233.879,187.05c2.905-6.567,1.456-15.281-4.371-19.641
	l-72.717-50.918c-5.815-3.632-13.092-1.449-16.724,5.087c-2.91,7.271-1.456,16.015,4.354,19.647l34.194,23.273l-1.455,2.183
	c-6.555,13.801-2.923,31.265,8.72,39.257c10.909,8.02,25.456,2.901,32.732-10.169l0.728-2.905c1.449,0.728,2.903,1.45,4.353,1.45
	C227.331,194.315,231.703,191.411,233.879,187.05L233.879,187.05z"/>
<path fill-rule="evenodd" clip-rule="evenodd" fill="#020202" d="M269.878,167.41c-5.815,4.36-7.266,13.074-4.36,19.641
	c2.177,4.36,6.537,7.265,10.169,7.265c1.468,0,2.924-0.722,4.372-1.45l0.728,2.905c7.265,13.071,21.813,18.189,32.721,10.169
	c11.644-7.992,15.275-25.456,8.732-39.257l-1.449-2.183l34.17-23.273c5.828-3.632,7.276-12.376,4.372-19.647
	c-3.645-6.537-10.908-8.72-16.736-5.087L269.878,167.41z"/>
<path fill-rule="evenodd" clip-rule="evenodd" fill="#020202" d="M251.963,304.313c-34.992,0-68.64,15.485-94.887,43.741
	c-4.702,4.713-4.702,12.781-0.673,18.179c2.02,3.361,5.392,4.707,8.085,4.707c2.688,0,5.375-1.346,7.389-3.36
	c22.213-24.228,50.475-37.02,80.086-37.02c29.602,0,57.862,12.792,80.069,36.346c4.708,5.376,11.44,4.702,15.475-0.673
	c4.045-5.397,4.045-13.466-0.668-18.847C320.592,319.798,286.956,304.313,251.963,304.313L251.963,304.313z"/>
</svg>
