<?xml version="1.0" encoding="utf-8"?>
<!-- Generator: Adobe Illustrator 15.0.0, SVG Export Plug-In  -->
<!DOCTYPE svg [
	<!ENTITY ns_flows "http://ns.adobe.com/Flows/1.0/">
]>
<svg version="1.2" baseProfile="tiny"
	 xmlns="http://www.w3.org/2000/svg" xmlns:xlink="http://www.w3.org/1999/xlink" xmlns:a="http://ns.adobe.com/AdobeSVGViewerExtensions/3.0/"
	 x="0px" y="0px" width="250px" height="250px" viewBox="0 -30.138 250 250" xml:space="preserve">
<defs>
</defs>
<path fill="#020202" d="M237.212,27.043h-60.671c-1.389-6.341-6.616-23.933-22.188-25.948c-19.039-2.464-59.579,0-59.579,0
	S77.25,2.366,72.952,27.043H46.006v-6.714c0-2.38-1.93-4.311-4.311-4.311H23.77c-2.38,0-4.311,1.93-4.311,4.311v6.714h-6.907
	C5.62,27.043,0,32.663,0,39.596v132.366c0,6.932,5.62,12.552,12.552,12.552h224.66c6.933,0,12.553-5.62,12.553-12.552V39.596
	C249.765,32.663,244.145,27.043,237.212,27.043z M123.778,154.287c-27.399,0-49.61-22.211-49.61-49.609
	c0-27.4,22.211-49.611,49.61-49.611c27.398,0,49.611,22.211,49.611,49.611C173.389,132.076,151.176,154.287,123.778,154.287z
	 M219.686,57.222c0,2.381-1.93,4.311-4.31,4.311h-16.665c-2.38,0-4.31-1.93-4.31-4.311V52.91c0-2.381,1.93-4.311,4.31-4.311h16.665
	c2.38,0,4.31,1.93,4.31,4.311V57.222z"/>
<circle fill="#020202" cx="123.779" cy="104.676" r="38.411"/>
</svg>
