<?xml version="1.0" encoding="utf-8"?>
<!-- Generator: Adobe Illustrator 15.0.0, SVG Export Plug-In  -->
<!DOCTYPE svg [
	<!ENTITY ns_flows "http://ns.adobe.com/Flows/1.0/">
]>
<svg version="1.2" baseProfile="tiny"
	 xmlns="http://www.w3.org/2000/svg" xmlns:xlink="http://www.w3.org/1999/xlink" xmlns:a="http://ns.adobe.com/AdobeSVGViewerExtensions/3.0/"
	 x="0px" y="0px" width="250px" height="250px" viewBox="0 -15.562 250 250" xml:space="preserve">
<defs>
</defs>
<path fill-rule="evenodd" d="M125.236,61.001c27.79-23.615,59.581-48.157,110.389-40.153c0,7.714,0.391,14.089,0.391,21.605
	c3.394,3.225,10.782,3.568,13.984,6.984c0,25.548-0.321,51.144-0.321,77.64c0,19.483,0.321,43.485,0.321,72.11
	c-45.589-6.053-101.648,0.609-125.414,25.185c-5.336-4.935-8.079-9.103-14.892-12.906C82.306,196.174,31.965,202.926,0,206.271
	c0-44.5,0.24-103.833,0.24-156.5c3.918-2.369,11.224-3.525,17.927-3.11c0-7.89,0.189-16.897,0.189-23.827
	c8.042-3.782,23.179-5.647,32.763-1.986C51.105,13.546,51.375,7.063,51.375,0C81.887,13.17,107.507,35.047,125.236,61.001z
	 M58.068,147.927c25.803,11.261,48.377,25.752,62.546,48.646c0-21.709,0-42.188,0-63.539c0-20.577,0-43.722,0-63.539
	c0-9.122-16.678-23.627-25.813-32.763C82.7,24.632,70.671,15.309,58.068,10.921C58.068,56.589,58.068,102.258,58.068,147.927z
	 M95.125,179.563c-2.184-4.884-15.811-12.014-19.292-14.125c-4.732-2.87-14.208-6.05-25.833-12.25
	c0-39.342,0.126-85.125,0.126-123.404c-6.234-4.467-18.378-3.475-25.112-0.313c0,59.717,0.292,96.842,0.292,144.269
	C48.251,169.987,78.781,169.133,95.125,179.563z M161.318,42.69c-9.313,5.338-33.754,20.49-33.754,29.998c0,9.456,0,20.866,0,31.556
	c0,34.03,0,66.064,0,99.28c18.183-20.043,53.892-35.895,98.287-29.784c0.35-48.959,2.068-96.55,1.985-145.941
	C201.177,25.609,181.019,31.401,161.318,42.69z"/>
</svg>
