<?xml version="1.0" encoding="utf-8"?>
<!-- Generator: Adobe Illustrator 15.0.0, SVG Export Plug-In  -->
<!DOCTYPE svg [
	<!ENTITY ns_flows "http://ns.adobe.com/Flows/1.0/">
]>
<svg version="1.2" baseProfile="tiny"
	 xmlns="http://www.w3.org/2000/svg" xmlns:xlink="http://www.w3.org/1999/xlink" xmlns:a="http://ns.adobe.com/AdobeSVGViewerExtensions/3.0/"
	 x="0px" y="0px" width="250px" height="250px" viewBox="0 -7.51 250 250" xml:space="preserve">
<defs>
</defs>
<circle fill="#020202" cx="44.812" cy="126.691" r="7.923"/>
<circle fill="#020202" cx="78.198" cy="126.691" r="7.923"/>
<circle fill="#020202" cx="110.392" cy="126.691" r="7.923"/>
<circle fill="#020202" cx="142.586" cy="126.691" r="7.923"/>
<circle fill="#020202" cx="175.971" cy="126.691" r="7.923"/>
<path fill="#020202" d="M216.09,126.691c0,4.376-3.549,7.924-7.922,7.924c-4.377,0-7.925-3.548-7.925-7.924s3.548-7.922,7.925-7.922
	C212.541,118.77,216.09,122.315,216.09,126.691z"/>
<circle fill="#020202" cx="190.282" cy="160.078" r="7.923"/>
<circle fill="#020202" cx="158.087" cy="160.078" r="7.923"/>
<circle fill="#020202" cx="125.893" cy="160.078" r="7.924"/>
<circle fill="#020202" cx="93.699" cy="160.078" r="7.923"/>
<circle fill="#020202" cx="61.505" cy="160.078" r="7.924"/>
<path fill="#020202" d="M186.009,183.357H67.963c-5.309,0-9.612,4.302-9.612,9.61s4.304,9.612,9.612,9.612h118.046
	c5.307,0,9.611-4.304,9.611-9.612S191.315,183.357,186.009,183.357z"/>
<path fill-rule="evenodd" d="M236.115,84.479H130.619c0.35-18.972-0.399-31.878,11.967-34.072
	c14.091-2.499,39.069,1.381,53.465-7.469c8.771-5.391,14.309-25.321,3.28-35.009c-10.381-9.117-47.398-8-72.586-7.754
	C90.974,0.521,73.982-0.142,62.356,0.305c0,5.098,0.448,9.557,0.448,9.557s51.37-0.146,63.792-0.146
	c23.73,0,70.201-5.515,69.306,14.308c-1.134,25.178-46.651,11.03-62.085,18.938c-13.221,6.773-14.259,20.875-13.928,41.516H14.309
	C6.406,84.479,0,90.885,0,98.787v121.794c0,7.901,6.406,14.308,14.309,14.308h221.807c7.902,0,14.309-6.406,14.309-14.308V98.787
	C250.424,90.885,244.018,84.479,236.115,84.479z M242.372,211.488c0,7.902-6.405,14.309-14.308,14.309H23.661
	c-7.902,0-14.308-6.406-14.308-14.309V107.879c0-7.902,6.406-14.309,14.308-14.309h204.404c7.902,0,14.308,6.406,14.308,14.309
	V211.488z"/>
</svg>
