<?xml version="1.0" encoding="utf-8"?>
<!-- Generator: Adobe Illustrator 15.0.0, SVG Export Plug-In  -->
<!DOCTYPE svg PUBLIC "-//W3C//DTD SVG 1.1//EN" "http://www.w3.org/Graphics/SVG/1.1/DTD/svg11.dtd" [
	<!ENTITY ns_flows "http://ns.adobe.com/Flows/1.0/">
]>
<svg version="1.1"
	 xmlns="http://www.w3.org/2000/svg" xmlns:xlink="http://www.w3.org/1999/xlink" xmlns:a="http://ns.adobe.com/AdobeSVGViewerExtensions/3.0/"
	 x="0px" y="0px" width="250px" height="250px" viewBox="-12.505 -0.19 250 250" enable-background="new -12.505 -0.19 250 250"
	 xml:space="preserve">
<defs>
</defs>
<path fill-rule="evenodd" clip-rule="evenodd" fill="#FFFFFF" d="M0,179.155c0-2.095,0-4.189,0-6.284s0-4.188,0-6.284
	c3.045-16.463,7.75-28.682,16.419-38.18s20.591-14.997,35.947-14.186c3.428,0.181,7.689,2.106,11.319,2.893
	c3.63,0.786,6.629,0.434,7.533-3.939c-9.509-0.063-20.599-3.063-27.955-9.392c-7.357-6.328-10.981-15.984-5.56-29.359
	c12.856-1.509,21.599,1.093,27.862,6.175c6.264,5.083,10.048,12.645,12.983,21.055c2.29-2.785,3.915-7.323,5.988-11.383
	c2.074-4.061,4.595-7.643,8.674-8.516c2.987-0.638,6.305,0.269,9.573,1.798c3.269,1.53,6.488,3.682,9.279,5.533
	c-3.868,5.383-9.134,9.369-14.204,13.551c-5.069,4.181-9.943,8.559-13.028,14.728c6.637-2.016,14.285-2.478,21.557-1.812
	c7.271,0.665,14.164,2.458,19.29,4.953c0-11.359-0.524-23.025-1.048-35.052s-1.048-24.414-1.048-37.213c8.379,0,16.758,0,25.136,0
	c8.379,0,16.759,0,25.137,0c0.064-4.299,0.332-8.24,0.581-12.278s0.479-8.172,0.466-12.858c7.784-4.81,15.34-8.706,22.948-12.792
	c8.018-4.109,11.331-6.017,20.19-10.312c3.688,5.012,6.294,7.989,8.786,12.297c-8.327,4.682-30.365,15.912-36.214,20.233
	c0,2.618,0,5.236,0,7.854s0,5.237,0,7.855c5.093,0.317,10.813,0.428,16.326,0.535c5.512,0.107,10.82,0.209,15.091,0.513
	c-0.755,31.013-1.926,62.153-3.089,93.297c-1.166,31.147-2.324,62.298-3.055,93.336c-8.153,9.484-24.6,14.004-41.404,13.996
	c-16.806-0.006-33.973-4.538-43.567-13.159c0-2.619,0-5.926,0-9.23c0-3.306,0-6.613,0-9.23c-2.372,3.295-5.226,6.891-8.547,10.303
	c-3.322,3.413-7.11,6.645-11.353,9.206c-5.501,3.324-12.287,5.54-19.018,6.078c-6.73,0.539-13.406-0.6-18.686-3.983
	c-19.665,10.017-35.784,0.937-48.639-11.726C11.819,215.514,2.454,203.768,0,179.155z M179.626,47.753
	c2.782,0,3.323-0.01,4.67-0.042c0.151-3.344,0.246-6.39,0.294-9.928c0.252-3.365,0.188-5.027,0.464-9.002
	c5.72-3.534,11.736-6.605,18.426-10.391c6.92-3.767,9.066-4.623,16.49-8.834c-0.9-1.439-1.386-1.984-1.938-2.76
	c-0.42-0.624-0.369-0.777-0.922-1.396c-5.764,3.281-12.434,6.863-18.504,10.008c-6.069,3.144-12.016,6.665-18.222,9.882
	 M130.875,53.272c-0.073,7.048,0.033,12.811,0.177,18.594c0.145,5.783,0.324,11.588,0.395,18.722
	c7.028-1.317,13.722-2.616,20.378-3.951c6.656-1.335,13.642-2.8,20.523-4.263c0.204-4.463,0.373-8.159,0.722-14.098
	c0.489-5.881,0.658-7.85,1-13.973c-6.893-0.592-13.975-0.775-21.191-0.847C145.662,53.385,138.309,53.424,130.875,53.272z
	 M178.407,81.239c3.154-0.588,5.026-0.866,5.848-1.136c0.084-5.048,0.078-5.618,0.217-11.072c0.138-5.454,0.078-9.121,0.33-15.893
	c-0.666-0.029-1.324,0.085-1.73,0.034c-0.407-0.051-1.047-0.018-3.233,0.134 M190.817,52.843c-0.258,5.237-0.313,9.376-0.306,13.401
	c0.008,4.024,0.077,7.934,0.071,12.713c5.294-0.777,9.411-1.711,13.235-2.725s7.357-2.106,11.482-3.196
	c0.138-4.479,0.179-7.534,0.212-10.402c0.034-2.869,0.061-5.551,0.167-9.286c-3.825,0-8.128-0.126-12.433-0.252
	C198.944,52.969,194.64,52.843,190.817,52.843z M43.683,78.295c-2.596,9.631-0.877,17.097,3.89,21.942
	c4.769,4.846,12.586,7.07,22.187,6.221c-2.547-5.275-6.75-8.895-11.214-12.254c-4.463-3.359-9.188-6.458-12.776-10.693
	c5.894-2.331,10.723,1.315,14.792,5.286c4.07,3.971,7.381,8.265,10.242,7.23c-2.235-5.24-5.13-9.821-9.409-13.018
	C57.116,79.813,51.454,78,43.683,78.295z M9.261,182.604c1.904,13.831,12.129,30.537,24.85,41.301
	c12.72,10.763,24.222,14.546,39.821,5.638c21.041,13.098,41.098,0.213,53.69-20.325s17.717-48.73,8.895-66.252
	c-4.932-9.795-14.471-16.308-25.959-18.81c-11.489-2.502-24.93-0.994-37.669,5.251c-16.85-12.783-34.062-8.961-46.408,2.794
	C14.134,143.958,6.652,163.647,9.261,182.604z"/>
</svg>
