<?xml version="1.0" encoding="utf-8"?>
<!-- Generator: Adobe Illustrator 15.0.0, SVG Export Plug-In  -->
<!DOCTYPE svg PUBLIC "-//W3C//DTD SVG 1.1//EN" "http://www.w3.org/Graphics/SVG/1.1/DTD/svg11.dtd" [
	<!ENTITY ns_flows "http://ns.adobe.com/Flows/1.0/">
]>
<svg version="1.1"
	 xmlns="http://www.w3.org/2000/svg" xmlns:xlink="http://www.w3.org/1999/xlink" xmlns:a="http://ns.adobe.com/AdobeSVGViewerExtensions/3.0/"
	 x="0px" y="0px" width="256px" height="256px" viewBox="-3.131 -67.415 256 256" enable-background="new -3.131 -67.415 256 256"
	 xml:space="preserve">
<defs>
</defs>
<g>
	<g>
		<path fill="#67C6BA" stroke="#000000" stroke-width="1.5" stroke-miterlimit="10" d="M132.242,114.62v8.642h-5.931h-13.217h-2.88
			h-1.525H90.896v-8.642c0-2.033,1.186-3.39,3.389-4.406c0.339-0.169,1.525-0.508,3.389-1.355l-0.678-1.863l-6.1-16.606H42.095
			l-6.27,17.453l-0.508,1.017c1.864,0.848,3.05,1.187,3.389,1.355c2.203,1.017,3.389,2.373,3.389,4.406v8.642H24.473h-1.694h-2.711
			H6.681H0.75v-8.642c0-2.033,1.186-3.39,3.389-4.406c0.847-0.339,4.067-1.694,9.32-3.897L54.804,0.75h23.384l41.515,105.566
			c5.253,2.203,8.473,3.559,9.32,3.897C131.226,111.062,132.242,112.587,132.242,114.62z M48.026,74.291h37.109L71.071,36.165
			c-0.678-1.864-1.356-3.897-2.203-6.27c-0.847-2.373-1.525-5.253-2.372-8.134c-0.848,2.881-1.695,5.592-2.373,8.134
			c-0.678,2.542-1.525,4.575-2.203,6.439L48.026,74.291z"/>
	</g>
</g>
<g>
	<g>
		<path fill="#67C6BA" stroke="#000000" stroke-width="1.5" stroke-miterlimit="10" d="M191.633,104.093
			c0,2.79-0.54,5.31-1.62,7.649s-2.61,4.41-4.59,6.12s-4.41,2.97-7.38,3.96c-2.97,0.989-6.3,1.439-10.079,1.439h-24.569h-6.84v-5.31
			c0-1.53,0.72-2.43,2.25-2.79c0.09,0,0.27-0.09,0.54-0.09c0.27,0,0.72-0.181,1.35-0.271s1.62-0.27,2.7-0.449V67.104
			c-1.08-0.181-2.07-0.36-2.7-0.451c-0.63-0.09-1.08-0.27-1.35-0.27c-0.271,0-0.45-0.09-0.54-0.09c-1.53-0.359-2.25-1.26-2.25-2.79
			v-5.31h6.84h22.409c4.229,0,7.829,0.36,10.89,1.17c3.06,0.81,5.58,1.98,7.47,3.51c1.979,1.53,3.33,3.33,4.229,5.49
			c0.9,2.16,1.35,4.41,1.35,7.109c0,1.53-0.18,2.97-0.63,4.41c-0.449,1.439-1.26,2.79-2.159,3.96c-0.99,1.26-2.16,2.249-3.601,3.239
			c-1.439,0.99-3.149,1.8-5.13,2.521C187.133,91.583,191.633,96.442,191.633,104.093z M155.454,86.363h9.72
			c4.14,0,7.199-0.72,9.359-2.25s3.15-3.96,3.15-7.199c0-3.421-0.99-5.761-2.88-7.2c-1.891-1.439-4.95-2.16-9-2.16h-10.35V86.363z
			 M179.663,103.822c0-1.439-0.271-2.609-0.72-3.779c-0.45-1.08-1.08-2.07-2.07-2.88c-0.99-0.811-2.16-1.351-3.689-1.8
			c-1.53-0.45-3.33-0.631-5.49-0.631h-12.239v19.08h12.329c2.25,0,4.141-0.271,5.67-0.811c1.53-0.54,2.7-1.26,3.6-2.16
			c0.9-0.899,1.62-1.979,1.98-3.149C179.483,106.522,179.663,105.173,179.663,103.822z"/>
		<path fill="#67C6BA" stroke="#000000" stroke-width="1.5" stroke-miterlimit="10" d="M240.592,77.094
			c-0.18-0.811-0.45-3.24-0.81-7.2c-4.95-1.439-9-2.069-12.42-2.069c-3.06,0-5.85,0.45-8.46,1.53
			c-2.609,1.08-4.77,2.609-6.569,4.589c-1.8,1.98-3.24,4.32-4.32,7.2c-1.079,2.88-1.619,6.12-1.619,9.63
			c0,3.689,0.54,6.839,1.619,9.719c1.08,2.88,2.34,5.221,4.141,7.2c1.8,1.979,3.869,3.42,6.3,4.5c2.43,1.08,4.949,1.529,7.739,1.529
			c1.62,0,3.149-0.09,4.5-0.27c1.35-0.18,2.609-0.45,3.689-0.81c1.08-0.36,2.16-0.9,3.15-1.53c0.989-0.63,1.979-1.44,2.97-2.34
			c0.27-0.271,0.63-0.45,0.99-0.63c0.359-0.181,0.72-0.181,1.079-0.181c0.63,0,1.261,0.181,1.71,0.721l4.771,5.22
			c-2.61,3.239-5.851,5.76-9.72,7.47c-3.87,1.71-8.55,2.609-13.949,2.609c-4.86,0-9.09-0.899-12.96-2.52s-7.199-3.87-9.899-6.84
			s-4.86-6.479-6.3-10.529c-1.44-4.05-2.16-8.46-2.16-13.319c0-4.86,0.811-9.45,2.43-13.5c1.62-4.05,3.87-7.47,6.84-10.439
			s6.39-5.31,10.53-6.93c4.05-1.62,8.64-2.43,13.589-2.43c5.4,0,12.239,1.53,20.43,4.68v16.56h-5.22
			C241.492,78.714,240.861,78.174,240.592,77.094z"/>
	</g>
</g>
</svg>
