<?xml version="1.0" encoding="utf-8"?>
<!-- Generator: Adobe Illustrator 15.0.0, SVG Export Plug-In  -->
<!DOCTYPE svg PUBLIC "-//W3C//DTD SVG 1.1//EN" "http://www.w3.org/Graphics/SVG/1.1/DTD/svg11.dtd" [
	<!ENTITY ns_flows "http://ns.adobe.com/Flows/1.0/">
]>
<svg version="1.1"
	 xmlns="http://www.w3.org/2000/svg" xmlns:xlink="http://www.w3.org/1999/xlink" xmlns:a="http://ns.adobe.com/AdobeSVGViewerExtensions/3.0/"
	 x="0px" y="0px" width="256px" height="256px" viewBox="-0.979 -0.746 256 256" enable-background="new -0.979 -0.746 256 256"
	 xml:space="preserve">
<defs>
</defs>
<circle fill="#FBBF54" stroke="#2B3B4E" stroke-width="4" stroke-miterlimit="10" cx="127.01" cy="127.01" r="125.01"/>
<circle fill="#FFFFFF" stroke="#2B3B4E" stroke-width="4" stroke-miterlimit="10" cx="75.729" cy="99.986" r="7.246"/>
<circle fill="#FFFFFF" stroke="#2B3B4E" stroke-width="4" stroke-miterlimit="10" cx="182.003" cy="99.986" r="7.246"/>
<path fill="#2B3B4E" stroke="#2B3B4E" stroke-width="4" stroke-miterlimit="10" d="M75.338,86.982
	c-8.383,0-15.179,6.796-15.179,15.178c0,8.383,6.796,15.179,15.179,15.179c8.382,0,15.178-6.796,15.178-15.179
	C90.516,93.779,83.72,86.982,75.338,86.982z M76.269,104.802c-2.439,0-4.417-1.978-4.417-4.417c0-2.439,1.977-4.417,4.417-4.417
	c2.439,0,4.416,1.977,4.416,4.417C80.685,102.824,78.708,104.802,76.269,104.802z"/>
<path fill="#2B3B4E" stroke="#2B3B4E" stroke-width="4" stroke-miterlimit="10" d="M179.58,86.982
	c-8.384,0-15.18,6.796-15.18,15.178c0,8.383,6.796,15.179,15.18,15.179c8.382,0,15.18-6.796,15.18-15.179
	C194.759,93.779,187.961,86.982,179.58,86.982z M180.509,104.802c-2.439,0-4.415-1.978-4.415-4.417c0-2.439,1.976-4.417,4.415-4.417
	c2.44,0,4.417,1.977,4.417,4.417C184.926,102.824,182.95,104.802,180.509,104.802z"/>
<path fill="#FFFFFF" stroke="#2B3B4E" stroke-width="4" stroke-miterlimit="10" d="M60.357,133.922
	c-0.173,0.524-0.198,1.49-0.185,2.04c0.855,36.396,29.92,65.631,65.651,65.631c35.942,0,63.829-30.418,63.829-67.121
	c0-1.903-2.608-1.801-2.608-1.801l-124.225,0.183C62.818,132.854,60.791,132.61,60.357,133.922z"/>
<path fill="#E85A5A" stroke="#2B3B4E" stroke-width="4" stroke-miterlimit="10" d="M63.009,153.93
	c8.198,27.585,33.208,47.663,62.815,47.663c29.332,0,53.291-20.262,61.113-47.663H63.009z"/>
<path fill="#F2797A" stroke="#2B3B4E" stroke-width="4" stroke-miterlimit="10" d="M141.08,170.759
	c-3.949,0.007-9.224,6.587-14.281,7.027c-4.304,0.376-10.754-7.027-15.951-6.661c-13.224,0.934-22.726,13.491-24.871,16.471
	c11.071,8.729,25.062,13.997,40.115,13.997c14.69,0,28.545-5.869,39.188-14.387C165.28,187.207,155.729,170.733,141.08,170.759z"/>
</svg>
