<?xml version="1.0" encoding="utf-8"?>
<!-- Generator: Adobe Illustrator 15.0.0, SVG Export Plug-In  -->
<!DOCTYPE svg PUBLIC "-//W3C//DTD SVG 1.1//EN" "http://www.w3.org/Graphics/SVG/1.1/DTD/svg11.dtd" [
	<!ENTITY ns_flows "http://ns.adobe.com/Flows/1.0/">
]>
<svg version="1.1"
	 xmlns="http://www.w3.org/2000/svg" xmlns:xlink="http://www.w3.org/1999/xlink" xmlns:a="http://ns.adobe.com/AdobeSVGViewerExtensions/3.0/"
	 x="0px" y="0px" width="256px" height="256px" viewBox="-35.225 -13.197 256 256" enable-background="new -35.225 -13.197 256 256"
	 xml:space="preserve">
<defs>
</defs>
<g>
	<g>
		<path fill="#F3705A" stroke="#000000" stroke-width="3" stroke-miterlimit="10" d="M165.694,205.406
			c2.825,0,5.114-2.291,5.114-5.115v0.512V23.444v0.563c0-12.43-10.076-22.507-22.506-22.507l0.492,0.006H41.657L42.161,1.5
			c-12.43,0-22.507,10.077-22.507,22.507v-0.563v177.168v-0.322c0,2.824,2.29,5.115,5.115,5.115h-0.444h141.953"/>
	</g>
</g>
<rect x="27.806" y="22.585" fill="#FFFFFF" stroke="#000000" stroke-width="3" stroke-miterlimit="10" width="135.641" height="43.951"/>
<rect x="27.806" y="94.825" fill="#FFFFFF" stroke="#000000" stroke-width="3" stroke-miterlimit="10" width="63.147" height="65.167"/>
<rect x="100.3" y="94.825" fill="#CED6E1" stroke="#000000" stroke-width="3" stroke-miterlimit="10" width="63.146" height="65.167"/>
<circle fill="#FFD05C" stroke="#000000" stroke-width="3" stroke-miterlimit="10" cx="42.034" cy="182.599" r="8.209"/>
<circle fill="#FFD05C" stroke="#000000" stroke-width="3" stroke-miterlimit="10" cx="149.396" cy="182.599" r="8.209"/>
<path fill="#F3705A" stroke="#000000" stroke-width="3" stroke-miterlimit="10" d="M118.991,182.599
	c0,2.164-1.753,3.916-3.915,3.916H75.924c-2.163,0-3.915-1.752-3.915-3.916l0,0c0-2.161,1.752-3.914,3.915-3.914h39.151
	C117.238,178.685,118.991,180.438,118.991,182.599L118.991,182.599z"/>
<path fill="#CED6E1" stroke="#000000" stroke-width="3" stroke-miterlimit="10" d="M170.808,91.036h11.33c0,0,2.034,0,4.547,1.769
	c2.487,1.75,2.272,5.304,2.272,5.304v29.302c0,0-0.415,4.039-3.789,4.039c-3.741,0-4.293-4.039-4.293-4.039v-25.021
	c0,0,0.064-1.749-0.99-2.542c-1.191-0.896-2.423-0.864-2.423-0.864l-6.654-0.001V91.036z"/>
<path fill="#CED6E1" stroke="#000000" stroke-width="3" stroke-miterlimit="10" d="M19.654,91.036H8.324c0,0-2.034,0-4.546,1.769
	c-2.488,1.75-2.273,5.304-2.273,5.304v29.302c0,0,0.415,4.039,3.789,4.039c3.742,0,4.293-4.039,4.293-4.039v-25.021
	c0,0-0.064-1.749,0.99-2.542C11.769,98.951,13,98.983,13,98.983l6.653-0.001V91.036z"/>
<g>
	<g>
		<path fill="#CED6E1" stroke="#000000" stroke-width="3" stroke-miterlimit="10" d="M45.903,222.967
			c0,1.966-1.593,3.559-3.558,3.559H29.738c-1.965,0-3.559-1.593-3.559-3.559v0.043v-17.155h19.724v17.366"/>
	</g>
</g>
<g>
	<g>
		<path fill="#CED6E1" stroke="#000000" stroke-width="3" stroke-miterlimit="10" d="M165.464,222.967
			c0,1.966-1.594,3.559-3.558,3.559h-12.607c-1.966,0-3.558-1.593-3.558-3.559v0.043v-17.155h19.723v17.366"/>
	</g>
</g>
</svg>
