<?xml version="1.0" encoding="utf-8"?>
<!-- Generator: Adobe Illustrator 15.0.0, SVG Export Plug-In  -->
<!DOCTYPE svg PUBLIC "-//W3C//DTD SVG 1.1//EN" "http://www.w3.org/Graphics/SVG/1.1/DTD/svg11.dtd" [
	<!ENTITY ns_flows "http://ns.adobe.com/Flows/1.0/">
]>
<svg version="1.1"
	 xmlns="http://www.w3.org/2000/svg" xmlns:xlink="http://www.w3.org/1999/xlink" xmlns:a="http://ns.adobe.com/AdobeSVGViewerExtensions/3.0/"
	 x="0px" y="0px" width="256px" height="256px" viewBox="-2 -25.999 256 256" enable-background="new -2 -25.999 256 256"
	 xml:space="preserve">
<defs>
</defs>
<path fill="#90C6DE" stroke="#000000" stroke-width="4" stroke-miterlimit="10" d="M239.648,45.718h-42.465L179.161,2.62
	L178.9,2.729V2.62H76.279v0.123L75.986,2.62L57.963,45.718H14.039C7.39,45.718,2,51.2,2,57.959v134.058
	c0,6.76,5.39,12.241,12.039,12.241H239.65c6.647,0,12.039-5.481,12.039-12.241V57.959C251.688,51.2,246.298,45.718,239.648,45.718z"
	/>
<circle fill="#FBE28B" stroke="#000000" stroke-width="4" stroke-miterlimit="10" cx="222.591" cy="75.145" r="12.869"/>
<rect x="28.082" y="23.111" fill="#90C6DE" stroke="#000000" stroke-width="4" stroke-miterlimit="10" width="17.869" height="22.606"/>
<circle fill="#E1E1E1" stroke="#000000" stroke-width="4" stroke-miterlimit="10" cx="127.928" cy="114.668" r="77.459"/>
<circle fill="#C9C0C1" stroke="#000000" stroke-width="4" stroke-miterlimit="10" cx="127.721" cy="114.817" r="64.902"/>
<circle fill="#C9C0C1" stroke="#000000" stroke-width="4" stroke-miterlimit="10" cx="128.818" cy="114.439" r="43.803"/>
<circle fill="#97D1A6" stroke="#000000" stroke-width="4" stroke-miterlimit="10" cx="130.578" cy="100.994" r="17.51"/>
<circle fill="#F3797A" stroke="#000000" stroke-width="4" stroke-miterlimit="10" cx="117.746" cy="108.518" r="10.29"/>
<circle fill="#FFFFFF" stroke="#000000" stroke-width="4" stroke-miterlimit="10" cx="106.171" cy="100.685" r="9.735"/>
</svg>
