<?xml version="1.0" encoding="utf-8"?>
<!-- Generator: Adobe Illustrator 15.0.0, SVG Export Plug-In  -->
<!DOCTYPE svg PUBLIC "-//W3C//DTD SVG 1.1//EN" "http://www.w3.org/Graphics/SVG/1.1/DTD/svg11.dtd" [
	<!ENTITY ns_flows "http://ns.adobe.com/Flows/1.0/">
]>
<svg version="1.1"
	 xmlns="http://www.w3.org/2000/svg" xmlns:xlink="http://www.w3.org/1999/xlink" xmlns:a="http://ns.adobe.com/AdobeSVGViewerExtensions/3.0/"
	 x="0px" y="0px" width="406px" height="313px" viewBox="0.314 -1.812 406 313" enable-background="new 0.314 -1.812 406 313"
	 xml:space="preserve">
<defs>
</defs>
<path fill-rule="evenodd" clip-rule="evenodd" fill="#44E2C8" stroke="#000000" stroke-width="4" stroke-linecap="round" d="
	M404.628,48.306c0,86.968,0,165.459,0,248.653l-172.908,0.598c0,0-6.195,11.257-24.279,11.257
	c-20.875,0-26.541-11.389-26.541-11.389L2.021,296.958C2.015,296.754,1.978,45.874,2.02,45.682
	c1.195-5.523,21.662-5.939,21.662-5.939l-0.167-23.514c0,0,36.173-20.296,100.385-11.217c32.09,4.537,52.616,13.488,81.804,37.474
	c30.145-27.131,74.219-45.3,135.07-39.357c19.615,1.916,51.857,12.694,51.857,17.511c0,9.607-0.068,22.684-0.068,22.684
	S404.628,45.063,404.628,48.306"/>
<path fill-rule="evenodd" clip-rule="evenodd" fill="#FFFFFF" stroke="#000000" stroke-width="4" stroke-linecap="round" d="
	M205.182,186.189c-5.132,3.925-6.136,4.908-10.5,8.374c0-19.874-0.621-144.232-0.621-144.232S148.907,7.895,68.485,17.709
	c-20.257,2.472-32.323,8.236-32.323,8.236S36.75,45.66,36.75,58.601c0,57.784-0.393,152.233-0.393,203.02
	c56.982-19.588,115.334-1.678,169.347,16.557"/>
<path fill-rule="evenodd" clip-rule="evenodd" fill="#EBEBEB" stroke="#000000" stroke-width="4" stroke-linecap="round" d="
	M205.704,278.177c54.285-20.632,115.835-34.183,173.458-15.397c0-17.293-0.188-115.155-0.188-179.76
	c0-24.244-0.291-54.815-0.291-54.815s-24.455-19.525-84.182-12.474c-51.875,6.125-78.781,34.625-78.781,34.625
	s0.188,112.833,0.188,144c-3.281-2.583-7.029-5.602-10.727-8.167"/>
<path fill-rule="evenodd" clip-rule="evenodd" fill="#CDD5E1" stroke="#000000" stroke-width="4" stroke-linecap="round" d="
	M55.72,145.65c0-18.53,0-26.757,0-44.439c0-11.015,0.06-32.599,0.06-45.957c0-5.072,15.508-8.984,30.89-7.958
	s30.636,6.992,30.636,6.992s0.313,33.923,0.313,43.749c0,18.737,0,31.231,0,44.565C98.086,140.72,74.846,140.257,55.72,145.65"/>
<path fill-rule="evenodd" clip-rule="evenodd" fill="none" stroke="#000000" stroke-width="4" stroke-linecap="round" d="
	M131.109,58.357c14.702,3.712,29.073,7.888,42.853,14.284"/>
<path fill-rule="evenodd" clip-rule="evenodd" fill="none" stroke="#000000" stroke-width="4" stroke-linecap="round" d="
	M241.415,73.435c34.572-14.508,74.154-21.895,111.102-12.697"/>
<path fill-rule="evenodd" clip-rule="evenodd" fill="none" stroke="#000000" stroke-width="4" stroke-linecap="round" d="
	M241.415,100.417c34.52-15.003,74.65-24.074,111.895-12.697"/>
<path fill-rule="evenodd" clip-rule="evenodd" fill="none" stroke="#000000" stroke-width="4" stroke-linecap="round" d="
	M131.109,85.339c13.771,4.457,27.965,8.713,41.266,14.284"/>
<path fill-rule="evenodd" clip-rule="evenodd" fill="none" stroke="#000000" stroke-width="4" stroke-linecap="round" d="
	M240.622,125.018c35.461-13.928,75.842-23.274,113.48-11.904"/>
<path fill-rule="evenodd" clip-rule="evenodd" fill="none" stroke="#000000" stroke-width="4" stroke-linecap="round" d="
	M131.903,111.527c13.797,3.25,26.981,8.489,40.472,11.904"/>
<path fill-rule="evenodd" clip-rule="evenodd" fill="none" stroke="#000000" stroke-width="4" stroke-linecap="round" d="
	M241.415,152.792c35.471-14.203,75.535-23.136,113.482-13.491"/>
<path fill-rule="evenodd" clip-rule="evenodd" fill="none" stroke="#000000" stroke-width="4" stroke-linecap="round" d="
	M131.109,139.302c13.969,3.456,27.73,7.728,41.266,12.697"/>
<path fill-rule="evenodd" clip-rule="evenodd" fill="none" stroke="#000000" stroke-width="4" stroke-linecap="round" d="
	M241.415,179.774c34.527-15.822,75.164-25.392,112.688-14.284"/>
<path fill-rule="evenodd" clip-rule="evenodd" fill="none" stroke="#000000" stroke-width="4" stroke-linecap="round" d="
	M172.375,177.393c-34.999-16.689-76.053-19.267-114.275-12.696"/>
<path fill-rule="evenodd" clip-rule="evenodd" fill="none" stroke="#000000" stroke-width="4" stroke-linecap="round" d="
	M173.962,204.375c-34.697-18.427-75.892-19.091-114.274-14.284"/>
<path fill-rule="evenodd" clip-rule="evenodd" fill="none" stroke="#000000" stroke-width="4" stroke-linecap="round" d="
	M240.622,205.962c35.146-15.203,75.402-23.835,113.48-15.078"/>
<path fill-rule="evenodd" clip-rule="evenodd" fill="none" stroke="#000000" stroke-width="4" stroke-linecap="round" d="
	M59.688,217.072c37.608-8.245,78.782-3.45,112.688,14.285"/>
<path fill-rule="evenodd" clip-rule="evenodd" fill="none" stroke="#000000" stroke-width="4" stroke-linecap="round" d="
	M241.415,232.15c34.992-16.041,74.822-23.703,112.688-14.284"/>
<path fill-rule="evenodd" clip-rule="evenodd" fill="none" stroke="#000000" stroke-width="4" stroke-linecap="round" d="
	M205.704,42.486c0,94.205-1.26,185.57,0.133,235.691"/>
</svg>
