<?xml version="1.0" encoding="utf-8"?>
<!-- Generator: Adobe Illustrator 15.0.0, SVG Export Plug-In  -->
<!DOCTYPE svg PUBLIC "-//W3C//DTD SVG 1.1//EN" "http://www.w3.org/Graphics/SVG/1.1/DTD/svg11.dtd" [
	<!ENTITY ns_flows "http://ns.adobe.com/Flows/1.0/">
]>
<svg version="1.1"
	 xmlns="http://www.w3.org/2000/svg" xmlns:xlink="http://www.w3.org/1999/xlink" xmlns:a="http://ns.adobe.com/AdobeSVGViewerExtensions/3.0/"
	 x="0px" y="0px" width="256px" height="256px" viewBox="-7.754 -31.836 256 256" enable-background="new -7.754 -31.836 256 256"
	 xml:space="preserve">
<defs>
</defs>
<path fill="#CDD5E1" stroke="#231F20" stroke-width="2" stroke-miterlimit="10" d="M1,1v188.36h239.216V1H1z M42.64,181.574H8.705
	v-38.033H42.64V181.574z M42.64,136.574H8.705V98.541H42.64V136.574z M42.64,91.574H8.705V53.541H42.64V91.574z M42.64,46.574H8.705
	V8.541H42.64V46.574z M232.64,181.574h-33.935v-38.033h33.935V181.574z M232.64,136.574h-33.935V98.541h33.935V136.574z
	 M232.64,91.574h-33.935V53.541h33.935V91.574z M232.64,46.574h-33.935V8.541h33.935V46.574z"/>
<rect x="50.688" y="8.541" fill="#FF7058" stroke="#231F20" stroke-width="2" stroke-miterlimit="10" width="139.836" height="173.033"/>
<polyline fill="#FFFFFF" stroke="#231F20" stroke-width="2" stroke-miterlimit="10" points="96.246,131.819 96.246,59.688 
	160.181,95.754 95.754,131.819 "/>
</svg>
