<?xml version="1.0" encoding="utf-8"?>
<!-- Generator: Adobe Illustrator 15.0.0, SVG Export Plug-In  -->
<!DOCTYPE svg PUBLIC "-//W3C//DTD SVG 1.1//EN" "http://www.w3.org/Graphics/SVG/1.1/DTD/svg11.dtd" [
	<!ENTITY ns_flows "http://ns.adobe.com/Flows/1.0/">
]>
<svg version="1.1"
	 xmlns="http://www.w3.org/2000/svg" xmlns:xlink="http://www.w3.org/1999/xlink" xmlns:a="http://ns.adobe.com/AdobeSVGViewerExtensions/3.0/"
	 x="0px" y="0px" width="256px" height="256px" viewBox="-1.505 -3.566 256 256" enable-background="new -1.505 -3.566 256 256"
	 xml:space="preserve">
<defs>
</defs>
<path display="none" fill="#F3797A" stroke="#000000" stroke-width="3" stroke-miterlimit="10" d="M188.298,62.829l-16.622,55.965
	l25.245,17.525l25.51-59.093c0,0-8.897,2.694-20.676-1.075C193.559,73.529,188.298,62.829,188.298,62.829z"/>
<polyline display="none" fill="#A56352" stroke="#000000" stroke-width="3" stroke-miterlimit="10" points="88.889,152.68 
	71.996,99.258 81.118,96.769 98.558,137.622 89.38,152.68 "/>
<path fill="#E1E1E1" stroke="#000000" stroke-width="1.5" stroke-miterlimit="10" d="M149.874,64.12
	c-0.475-27.483-24.853-50.938-41.31-57.094C99.465,3.076,88.76,0.75,77.449,0.75c-29.118,0-66.547,31.084-72.321,52.656
	C2.337,60.824,0.75,68.931,0.75,77.079c0,0.252,0.012,0.501,0.015,0.753C0.763,78.056,0.75,78.276,0.75,78.5
	c0,8.029,1.699,15.616,4.71,22.359c5.965,14.117,17.069,24.335,30.217,26.778c3.459,0.926,7.068,1.428,10.785,1.428
	c15.892,0,29.884-8.974,38.076-22.586c0.016,0.019,0.033,0.035,0.049,0.053c1.128-1.4,2.886-2.134,5.027-2.063
	c4.307,0.141,4.953,0.875,7.633,5.27c3.211,5.808,9.982,9.824,17.841,9.824c6.579,0,12.393-2.818,16.001-7.14
	C141.528,102.813,150.205,83.321,149.874,64.12z"/>
<path fill="#A56352" stroke="#000000" stroke-width="1.5" stroke-miterlimit="10" d="M80.58,99.538l-9.122,2.489l30.91,97.031
	c0,0,1.132,6.795,12.459,1.133c7.098-3.549,4.854-9.871,4.854-9.871L80.58,99.538z"/>
<path fill="#90C6DE" stroke="#000000" stroke-width="1.5" stroke-miterlimit="10" d="M76.457,101.621
	c6.438-1.464,9.21-9.088,8.875-13.386c-0.427-5.479-3.994-10.704-7.656-13.813c-1.809-1.536-6.094-3.813-6.844-7.625
	c-0.338-1.721,0.352-4.668,2.063-6.469c1.217-1.281,3.494-1.962,3.063-2.625c-0.493-0.758-2.456,0.716-4.406,1.657
	c-3.931,1.896-8.418,4.132-11.313,7.375c-6.461,7.239-5.07,12.489-5,17.239c0.041,2.781,2.441,10.924,6.136,14.397
	C67.113,103.766,76.457,101.621,76.457,101.621"/>
<circle fill="#97D1A6" stroke="#000000" stroke-width="1.5" stroke-miterlimit="10" cx="72.039" cy="24.744" r="14.18"/>
<circle fill="#90C6DE" stroke="#000000" stroke-width="1.5" stroke-miterlimit="10" cx="40.58" cy="42.138" r="13.197"/>
<circle fill="#F3797A" stroke="#000000" stroke-width="1.5" stroke-miterlimit="10" cx="28.334" cy="73.023" r="12.951"/>
<circle fill="#FBE28B" stroke="#000000" stroke-width="1.5" stroke-miterlimit="10" cx="40.908" cy="108.023" r="14.672"/>
<circle fill="#E1E1E1" stroke="#000000" stroke-width="1.5" stroke-miterlimit="10" cx="123.498" cy="82.793" r="9.426"/>
<path fill="#E86565" stroke="#000000" stroke-width="1.5" stroke-miterlimit="10" d="M188.884,57.355l-45.533,134.151
	c0,0,1.456,6.957,8.091,10.389c6.865,3.551,15.372-1.166,15.372-1.166l58.275-126.451L206.44,59.725L188.884,57.355z"/>
<path fill="#E86565" stroke="#000000" stroke-width="1.5" stroke-miterlimit="10" d="M180.778,82.175l3.536-12.352l37.02,13.36
	l-6.403,12.993c0,0-11.425,4.814-22.185,0.42C183.309,92.743,180.778,82.175,180.778,82.175z"/>
<circle fill="#E1E1E1" stroke="#000000" stroke-width="1.5" stroke-miterlimit="10" cx="211.899" cy="51.348" r="33.197"/>
<path fill="none" stroke="#000000" stroke-width="1.5" stroke-miterlimit="10" d="M181.625,37.767c0,0,4.345,19.132,23.834,25.384
	c21.625,6.938,37.1,1.017,37.1,1.017s1.305-3.122,1.65-4.37c0.275-0.996,0.887-4.725,0.887-4.725s-22.479,4.467-36.949-1.734
	c-15.313-6.563-21.854-23.065-21.854-23.065s-2.082,2.571-2.649,3.525C183.083,34.739,181.625,37.767,181.625,37.767z"/>
<path fill="#97D1A6" stroke="#000000" stroke-width="1.5" stroke-miterlimit="10" d="M82.072,198.978h91.372v-45.131
	c-12.541-7.118-27.029-11.205-42.479-11.205c-18.161,0-34.999,5.63-48.894,15.221V198.978z"/>
<path fill="#90C6DE" stroke="#000000" stroke-width="1.5" stroke-miterlimit="10" d="M45.792,227.817l37.038-18.081l12.395-23.314
	c0,0-6.94-9.789-8.245-13.53c-2.581-7.397-3.022-15.544-3.022-15.544l-0.576-0.425C60.76,172.395,45.889,198.363,45.792,227.817z"/>
<path fill="#97D1A6" stroke="#000000" stroke-width="1.5" stroke-miterlimit="10" d="M57.391,217.792
	c-8.569,5.096-10.942,8.729-11.601,10.354c0.068,29.331,14.794,55.208,37.235,70.724l9.723-66.377l-9.918-22.756
	C82.83,209.736,70.842,209.791,57.391,217.792z"/>
<path fill="#90C6DE" stroke="#000000" stroke-width="1.5" stroke-miterlimit="10" d="M117.056,232.009l-24.308,0.482
	c0,0-10.098,21.77-11.101,39.319c-1.002,17.537,0.082,24.58,0.746,27.116c13.914,9.634,30.789,15.292,48.993,15.292
	c19.508,0,37.494-6.489,51.939-17.416L117.056,232.009z"/>
<path fill="#97D1A6" stroke="#000000" stroke-width="1.5" stroke-miterlimit="10" d="M217.665,228.032
	c0-0.475-0.029-0.941-0.035-1.414l-0.783-2.53l-3.594-8.441l-62.793-20.218l-20.138,11.87l-13.266,24.711
	c0,0,16.888,24.663,29.447,38.254c14.209,15.375,32.178,24.666,36.576,26.808C204.075,281.351,217.665,256.279,217.665,228.032z"/>
<path fill="#90C6DE" stroke="#000000" stroke-width="1.5" stroke-miterlimit="10" d="M216.743,224.841l0.922-0.312
	c-1.729-33.133-22.18-61.289-50.963-74.146l-2.32-0.627c-15.84,7.015-15.512,5.425-26.51,13.844
	c-13.936,10.666-18.99,22.634-18.99,22.634l10.377,21.063c0,0,35.277,1.818,49.729,3.784
	C205.099,214.634,216.743,224.841,216.743,224.841z"/>
<path fill="#F9F9FA" stroke="#000000" stroke-width="1.5" stroke-miterlimit="10" d="M130.322,209.145
	c0,10.188-5.718,25.873-27.538,25.873c-13.716,0-19.955-10.623-19.955-25.254c0-16.401,11.119-26.492,24.834-26.492
	C121.381,183.272,130.322,191.62,130.322,209.145z"/>
<ellipse fill="#E1E1E1" stroke="#000000" stroke-width="1.5" stroke-miterlimit="10" cx="106.106" cy="208.046" rx="4.358" ry="4.828"/>
</svg>
