<?xml version="1.0" encoding="utf-8"?>
<!-- Generator: Adobe Illustrator 15.0.0, SVG Export Plug-In  -->
<!DOCTYPE svg PUBLIC "-//W3C//DTD SVG 1.1//EN" "http://www.w3.org/Graphics/SVG/1.1/DTD/svg11.dtd" [
	<!ENTITY ns_flows "http://ns.adobe.com/Flows/1.0/">
]>
<svg version="1.1"
	 xmlns="http://www.w3.org/2000/svg" xmlns:xlink="http://www.w3.org/1999/xlink" xmlns:a="http://ns.adobe.com/AdobeSVGViewerExtensions/3.0/"
	 x="0px" y="0px" width="256px" height="256px" viewBox="-1.097 -2.142 256 256" enable-background="new -1.097 -2.142 256 256"
	 xml:space="preserve">
<defs>
</defs>
<path display="none" fill="#F2797A" stroke="#231F20" stroke-width="3" stroke-miterlimit="10" d="M188.706,64.253l-16.622,55.965
	l25.245,17.525l25.51-59.093c0,0-8.897,2.694-20.676-1.075C193.966,74.953,188.706,64.253,188.706,64.253z"/>
<polyline display="none" fill="#A46352" stroke="#231F20" stroke-width="3" stroke-miterlimit="10" points="89.296,154.104 
	72.404,100.682 81.526,98.193 98.965,139.046 89.788,154.104 "/>
<path fill="#CDD5E1" stroke="#231F20" stroke-width="2" stroke-miterlimit="10" d="M150.124,64.37
	c-0.475-27.483-24.852-50.938-41.31-57.094C99.715,3.326,89.01,1,77.699,1C48.581,1,11.152,32.084,5.378,53.656
	C2.587,61.074,1,69.181,1,77.329c0,0.252,0.012,0.501,0.015,0.753C1.013,78.306,1,78.526,1,78.75c0,8.029,1.699,15.616,4.71,22.359
	c5.965,14.117,17.069,24.335,30.217,26.778c3.459,0.926,7.068,1.428,10.785,1.428c15.892,0,29.884-8.974,38.076-22.586
	c0.016,0.019,0.033,0.035,0.049,0.053c1.128-1.4,2.886-2.134,5.027-2.063c4.307,0.141,4.953,0.875,7.633,5.27
	c3.211,5.808,9.982,9.824,17.841,9.824c6.579,0,12.393-2.818,16-7.14C141.778,103.063,150.456,83.571,150.124,64.37z"/>
<path fill="#9E7B52" stroke="#231F20" stroke-width="2" stroke-miterlimit="10" d="M80.83,99.788l-9.122,2.489l30.91,97.03
	c0,0,1.132,6.795,12.459,1.133c7.098-3.549,4.854-9.871,4.854-9.871L80.83,99.788z"/>
<path fill="#44E2C8" stroke="#231F20" stroke-width="2" stroke-miterlimit="10" d="M76.707,101.871
	c6.438-1.464,9.21-9.088,8.875-13.386c-0.427-5.479-3.994-10.704-7.656-13.813c-1.809-1.536-6.094-3.813-6.844-7.625
	c-0.338-1.721,0.352-4.668,2.063-6.469c1.217-1.281,3.494-1.962,3.063-2.625c-0.493-0.758-2.456,0.716-4.406,1.657
	c-3.931,1.896-8.418,4.132-11.313,7.375c-6.461,7.239-5.07,12.489-5,17.239c0.041,2.781,2.441,10.924,6.136,14.397
	C67.363,104.016,76.707,101.871,76.707,101.871"/>
<circle fill="#44E2C8" stroke="#231F20" stroke-width="2" stroke-miterlimit="10" cx="72.937" cy="24.994" r="14.18"/>
<circle fill="#4CC3F3" stroke="#231F20" stroke-width="2" stroke-miterlimit="10" cx="40.83" cy="42.388" r="13.197"/>
<circle fill="#FF7058" stroke="#231F20" stroke-width="2" stroke-miterlimit="10" cx="28.584" cy="73.273" r="12.951"/>
<circle fill="#FFD05B" stroke="#231F20" stroke-width="2" stroke-miterlimit="10" cx="41.158" cy="108.273" r="14.672"/>
<circle fill="#CDD5E1" stroke="#231F20" stroke-width="2" stroke-miterlimit="10" cx="123.748" cy="83.043" r="9.426"/>
<path fill="#4CC3F3" stroke="#231F20" stroke-width="2" stroke-miterlimit="10" d="M187.532,58.756l-45.533,134.151
	c0,0,1.456,6.957,8.091,10.389c6.865,3.551,15.372-1.166,15.372-1.166l58.275-126.451l-18.648-14.553L187.532,58.756z"/>
<path fill="#4CC3F3" stroke="#231F20" stroke-width="2" stroke-miterlimit="10" d="M179.426,83.576l3.536-12.352l37.02,13.36
	l-6.403,12.993c0,0-11.425,4.814-22.185,0.42C181.957,94.144,179.426,83.576,179.426,83.576z"/>
<circle fill="#CDD5E1" stroke="#231F20" stroke-width="2" stroke-miterlimit="10" cx="210.547" cy="52.749" r="33.197"/>
<path fill="none" stroke="#231F20" stroke-width="2" stroke-miterlimit="10" d="M180.273,39.167c0,0,4.345,19.132,23.834,25.384
	c21.625,6.938,37.1,1.017,37.1,1.017s1.305-3.122,1.65-4.37c0.275-0.996,0.887-4.725,0.887-4.725s-22.479,4.467-36.949-1.734
	c-15.313-6.563-21.854-23.065-21.854-23.065s-2.082,2.571-2.649,3.525C181.731,36.14,180.273,39.167,180.273,39.167z"/>
<path fill="#FF7058" stroke="#231F20" stroke-width="2" stroke-miterlimit="10" d="M83.177,201.153h91.372v-45.131
	c-12.541-7.118-27.028-11.205-42.479-11.205c-18.16,0-34.999,5.63-48.893,15.221V201.153z"/>
<path fill="#FFD05B" stroke="#231F20" stroke-width="2" stroke-miterlimit="10" d="M46.896,229.992l37.038-18.081l12.395-23.314
	c0,0-6.94-9.789-8.245-13.53c-2.581-7.397-3.022-15.544-3.022-15.544l-0.576-0.425C61.864,174.57,46.993,200.538,46.896,229.992z"/>
<path fill="#FF7058" stroke="#231F20" stroke-width="2" stroke-miterlimit="10" d="M58.495,219.967
	c-8.569,5.096-10.942,8.729-11.601,10.354c0.068,29.331,14.794,55.208,37.235,70.724l9.723-66.377l-9.918-22.756
	C83.935,211.911,71.947,211.966,58.495,219.967z"/>
<path fill="#FFD05B" stroke="#231F20" stroke-width="2" stroke-miterlimit="10" d="M118.161,234.185l-24.308,0.482
	c0,0-10.098,21.77-11.101,39.319c-1.002,17.537,0.082,24.58,0.746,27.116c13.914,9.634,30.789,15.292,48.994,15.292
	c19.507,0,37.495-6.489,51.94-17.416L118.161,234.185z"/>
<path fill="#FF7058" stroke="#231F20" stroke-width="2" stroke-miterlimit="10" d="M218.769,230.207
	c0-0.475-0.027-0.941-0.035-1.414l-0.783-2.53l-3.594-8.441l-62.791-20.218l-20.139,11.87l-13.267,24.711
	c0,0,16.89,24.663,29.448,38.254c14.207,15.375,32.177,24.666,36.574,26.808C205.179,283.526,218.769,258.454,218.769,230.207z"/>
<path fill="#FFD05B" stroke="#231F20" stroke-width="2" stroke-miterlimit="10" d="M217.847,227.017l0.922-0.312
	c-1.729-33.133-22.178-61.289-50.963-74.146l-2.319-0.627c-15.839,7.015-15.513,5.425-26.511,13.844
	c-13.935,10.666-18.99,22.634-18.99,22.634l10.377,21.063c0,0,35.276,1.818,49.728,3.784
	C206.205,216.81,217.847,227.017,217.847,227.017z"/>
<path fill="#F9F9F9" stroke="#231F20" stroke-width="2" stroke-miterlimit="10" d="M131.427,211.32
	c0,10.188-5.718,25.873-27.538,25.873c-13.716,0-19.955-10.623-19.955-25.254c0-16.401,11.119-26.492,24.834-26.492
	C122.485,185.447,131.427,193.795,131.427,211.32z"/>
<ellipse fill="#CDD5E1" stroke="#231F20" stroke-width="2" stroke-miterlimit="10" cx="107.211" cy="210.222" rx="4.358" ry="4.828"/>
</svg>
