<?xml version="1.0" encoding="utf-8"?>
<!-- Generator: Adobe Illustrator 15.0.0, SVG Export Plug-In  -->
<!DOCTYPE svg PUBLIC "-//W3C//DTD SVG 1.1//EN" "http://www.w3.org/Graphics/SVG/1.1/DTD/svg11.dtd" [
	<!ENTITY ns_flows "http://ns.adobe.com/Flows/1.0/">
]>
<svg version="1.1"
	 xmlns="http://www.w3.org/2000/svg" xmlns:xlink="http://www.w3.org/1999/xlink" xmlns:a="http://ns.adobe.com/AdobeSVGViewerExtensions/3.0/"
	 x="0px" y="0px" width="256px" height="256px" viewBox="-0.894 -88.91 256 256" enable-background="new -0.894 -88.91 256 256"
	 xml:space="preserve">
<defs>
</defs>
<g>
	<g>
		<path fill="#67C6BA" stroke="#000000" stroke-width="4" stroke-miterlimit="10" d="M96.942,84.255v6.24H92.66h-9.543h-2.08h-1.101
			H67.089v-6.24c0-1.467,0.856-2.447,2.447-3.182c0.245-0.121,1.101-0.366,2.446-0.979l-0.489-1.345l-4.405-11.991H31.853
			l-4.527,12.603l-0.367,0.733c1.345,0.612,2.202,0.857,2.446,0.979c1.591,0.734,2.447,1.715,2.447,3.182v6.24H19.128h-1.224h-1.958
			H6.282H2v-6.24c0-1.467,0.856-2.447,2.446-3.182c0.612-0.245,2.937-1.223,6.729-2.813L41.028,2.037h16.884l29.976,76.224
			c3.794,1.59,6.119,2.567,6.729,2.813C96.208,81.686,96.942,82.788,96.942,84.255z M36.135,55.137h26.794L52.774,27.607
			c-0.49-1.345-0.979-2.814-1.591-4.527c-0.612-1.713-1.101-3.793-1.713-5.873c-0.612,2.08-1.224,4.038-1.712,5.873
			c-0.49,1.835-1.101,3.304-1.591,4.649L36.135,55.137z"/>
	</g>
</g>
<g>
	<g>
		<path fill="#67C6BA" stroke="#000000" stroke-width="4" stroke-miterlimit="10" d="M175.614,64.726
			c-0.118,3.753-0.726,7.144-2.179,10.292c-1.455,3.148-3.513,5.935-6.177,8.235c-2.664,2.3-5.933,3.995-9.931,5.329
			c-3.995,1.33-8.475,1.936-13.562,1.936h-33.057h-9.204v-7.144c0-2.059,0.969-3.269,3.027-3.754c0.122,0,0.363-0.121,0.727-0.121
			s0.969-0.243,1.816-0.364s2.18-0.361,3.634-0.604V14.958c-1.454-0.244-2.786-0.485-3.634-0.607
			c-0.848-0.121-1.453-0.364-1.816-0.364s-0.605-0.121-0.727-0.121c-2.058-0.483-3.027-1.695-3.027-3.754V2.968h9.204h30.153
			c5.689,0,10.533,0.484,14.651,1.575c4.117,1.089,7.507,2.664,10.05,4.722c2.663,2.059,4.481,4.481,5.69,7.388
			c1.213,2.906,1.817,5.935,1.817,9.565c0,2.06-2.14,18.457-11.147,18.457C174.724,44.675,175.815,58.351,175.614,64.726z
			 M126.936,40.87h13.078c5.57,0,9.687-0.969,12.593-3.027c2.907-2.06,4.239-5.329,4.239-9.686c0-4.604-1.332-7.752-3.875-9.688
			c-2.544-1.937-6.66-2.907-12.108-2.907h-13.926V40.87z M159.51,64.361c0-1.936-0.364-3.51-0.969-5.084
			c-0.605-1.454-1.453-2.786-2.787-3.876c-1.332-1.09-2.905-1.816-4.964-2.422c-2.058-0.605-4.479-0.849-7.386-0.849h-16.468v25.673
			h16.587c3.028,0,5.573-0.364,7.63-1.091c2.059-0.727,3.634-1.695,4.843-2.906c1.213-1.21,2.181-2.663,2.666-4.237
			C159.268,67.995,159.51,66.179,159.51,64.361z"/>
		<path fill="#67C6BA" stroke="#000000" stroke-width="4" stroke-miterlimit="10" d="M241.49,28.397
			c-0.243-1.089-0.605-4.358-1.09-9.688c-6.66-1.936-12.109-2.784-16.711-2.784c-4.117,0-7.87,0.605-11.383,2.059
			c-3.512,1.453-6.418,3.511-8.839,6.175c-2.422,2.664-4.36,5.813-5.813,9.687c-1.451,3.875-2.179,8.236-2.179,12.958
			c0,4.964,0.728,9.202,2.179,13.076c1.453,3.875,3.148,7.024,5.57,9.688c2.423,2.663,5.207,4.602,8.478,6.055
			c3.27,1.454,6.658,2.058,10.413,2.058c2.18,0,4.238-0.121,6.055-0.363c1.816-0.24,3.511-0.605,4.964-1.088
			c1.453-0.485,2.907-1.213,4.239-2.06c1.331-0.849,2.664-1.938,3.995-3.148c0.364-0.364,0.849-0.605,1.332-0.848
			c0.485-0.243,0.97-0.243,1.453-0.243c0.849,0,1.696,0.243,2.301,0.969l6.419,7.024c-3.513,4.358-7.871,7.749-13.078,10.051
			c-5.208,2.3-11.504,3.511-18.77,3.511c-6.539,0-12.23-1.211-17.437-3.39c-5.208-2.181-9.688-5.208-13.32-9.204
			c-3.634-3.996-6.54-8.718-8.478-14.167c-1.938-5.448-2.906-11.383-2.906-17.921c0-6.54,1.092-12.716,3.271-18.165
			s5.206-10.05,9.203-14.047c3.995-3.996,8.596-7.144,14.168-9.323C210.976,3.089,217.151,2,223.811,2
			c7.267,0,16.469,2.058,27.488,6.296v22.282h-7.023C242.7,30.578,241.854,29.852,241.49,28.397z"/>
	</g>
</g>
</svg>
