<?xml version="1.0" encoding="utf-8"?>
<!-- Generator: Adobe Illustrator 15.0.0, SVG Export Plug-In  -->
<!DOCTYPE svg PUBLIC "-//W3C//DTD SVG 1.1//EN" "http://www.w3.org/Graphics/SVG/1.1/DTD/svg11.dtd" [
	<!ENTITY ns_flows "http://ns.adobe.com/Flows/1.0/">
]>
<svg version="1.1"
	 xmlns="http://www.w3.org/2000/svg" xmlns:xlink="http://www.w3.org/1999/xlink" xmlns:a="http://ns.adobe.com/AdobeSVGViewerExtensions/3.0/"
	 x="0px" y="0px" width="256px" height="256px" viewBox="-13.46 -38.077 256 256" enable-background="new -13.46 -38.077 256 256"
	 xml:space="preserve">
<defs>
</defs>
<g>
	<g>
		<path fill="#E97642" stroke="#231F20" stroke-width="3" stroke-miterlimit="10" d="M114.063,1.5
			c-31.504,0-61.569,5.548-81.851,18.222C12.843,31.826,2.54,50.635,2.54,68.789h223.048c0-19.943-13.181-39.644-36.025-51.966
			C169.838,6.185,142.603,1.5,114.063,1.5z"/>
	</g>
</g>
<g>
	<g>
		<path fill="#E97642" stroke="#231F20" stroke-width="3" stroke-miterlimit="10" d="M1.5,128.319
			c0,11.756,5.384,26.507,19.74,35.197c20.551,12.44,56.198,16.563,92.786,16.563c34.958,0,67.942-2.781,88.581-14.285
			c16.053-8.947,23.945-24.97,23.945-37.476c0-0.415-0.013-0.828-0.034-1.241H1.534C1.513,127.491,1.5,127.904,1.5,128.319z"/>
	</g>
</g>
<g>
	<g>
		<path fill="#A65744" stroke="#231F20" stroke-width="3" stroke-miterlimit="10" d="M16.96,88.206
			c-7.852,0-14.218,6.128-14.218,13.688s6.366,13.688,14.218,13.688c0.506,0,1.005-0.027,1.498-0.077H16.96v0.077h196.205
			l-0.843-0.077c0,0-0.506,0.077,0,0.077c7.852,0,14.218-6.128,14.218-13.688s-6.366-13.688-14.218-13.688h0.843L16.027,88.238
			L16.96,88.206z"/>
	</g>
</g>
<path fill="#BBD75E" stroke="#231F20" stroke-width="3" stroke-miterlimit="10" d="M6.665,68.789H221.29c0,0,0.11,6.324-1.875,8.821
	c-3.875,4.875-6.5,4.563-6.5,4.563H16.165c0,0-4.375-2.5-6.25-5C7.634,74.131,6.665,68.789,6.665,68.789z"/>
<path fill="#BBD75E" stroke="#231F20" stroke-width="3" stroke-miterlimit="10" d="M6.665,127.078c0,0,0.415-4.606,2.152-7.453
	c2.056-3.368,5.431-4.077,5.431-4.077H215.29c0,0,2.855,1.582,4.809,4.007c2.177,2.702,2.177,7.523,2.177,7.523H6.665z"/>
<rect x="23.517" y="82.177" fill="#F26F5A" stroke="#231F20" stroke-width="3" stroke-miterlimit="10" width="90.94" height="6.029"/>
<rect x="127.658" y="82.177" fill="#F26F5A" stroke="#231F20" stroke-width="3" stroke-miterlimit="10" width="77.019" height="6.029"/>
<ellipse fill="none" stroke="#231F20" stroke-width="3" stroke-miterlimit="10" cx="64.764" cy="13.298" rx="4.224" ry="1.625"/>
<ellipse fill="none" stroke="#231F20" stroke-width="3" stroke-miterlimit="10" cx="88.478" cy="7.423" rx="3.938" ry="1.75"/>
<ellipse fill="none" stroke="#231F20" stroke-width="3" stroke-miterlimit="10" cx="104.603" cy="15.048" rx="4.188" ry="1.75"/>
<ellipse fill="none" stroke="#231F20" stroke-width="3" stroke-miterlimit="10" cx="123.165" cy="6.548" rx="3.75" ry="1.75"/>
<ellipse fill="none" stroke="#231F20" stroke-width="3" stroke-miterlimit="10" cx="141.603" cy="15.048" rx="3.938" ry="1.75"/>
<ellipse fill="none" stroke="#231F20" stroke-width="3" stroke-miterlimit="10" cx="157.04" cy="10.798" rx="3.75" ry="1.625"/>
</svg>
