<?xml version="1.0" encoding="utf-8"?>
<!-- Generator: Adobe Illustrator 15.0.0, SVG Export Plug-In  -->
<!DOCTYPE svg PUBLIC "-//W3C//DTD SVG 1.1//EN" "http://www.w3.org/Graphics/SVG/1.1/DTD/svg11.dtd" [
	<!ENTITY ns_flows "http://ns.adobe.com/Flows/1.0/">
]>
<svg version="1.1"
	 xmlns="http://www.w3.org/2000/svg" xmlns:xlink="http://www.w3.org/1999/xlink" xmlns:a="http://ns.adobe.com/AdobeSVGViewerExtensions/3.0/"
	 x="0px" y="0px" width="256px" height="256px" viewBox="-14.21 -33.827 256 256" enable-background="new -14.21 -33.827 256 256"
	 xml:space="preserve">
<defs>
</defs>
<g>
	<g>
		<path fill="#D86B34" stroke="#000000" stroke-width="1.5" stroke-miterlimit="10" d="M113.313,0.75
			c-31.504,0-61.569,5.548-81.851,18.222C12.093,31.076,1.79,49.885,1.79,68.039h223.048c0-19.943-13.181-39.644-36.025-51.966
			C169.088,5.435,141.853,0.75,113.313,0.75z"/>
	</g>
</g>
<g>
	<g>
		<path fill="#D86B34" stroke="#000000" stroke-width="1.5" stroke-miterlimit="10" d="M0.75,127.569
			c0,11.756,5.384,26.507,19.74,35.197c20.551,12.44,56.198,16.563,92.786,16.563c34.958,0,67.942-2.781,88.581-14.285
			c16.053-8.947,23.945-24.97,23.945-37.476c0-0.415-0.013-0.828-0.034-1.241H0.784C0.763,126.741,0.75,127.154,0.75,127.569z"/>
	</g>
</g>
<g>
	<g>
		<path fill="#AA604B" stroke="#000000" stroke-width="1.5" stroke-miterlimit="10" d="M16.21,87.456
			c-7.852,0-14.218,6.128-14.218,13.688s6.366,13.688,14.218,13.688c0.506,0,1.005-0.027,1.498-0.077H16.21v0.077h196.205
			l-0.843-0.077c0,0-0.506,0.077,0,0.077c7.852,0,14.218-6.128,14.218-13.688s-6.366-13.688-14.218-13.688h0.843L15.277,87.488
			L16.21,87.456z"/>
	</g>
</g>
<path fill="#909137" stroke="#000000" stroke-width="1.5" stroke-miterlimit="10" d="M5.915,68.039H220.54
	c0,0,0.11,6.324-1.875,8.821c-3.875,4.875-6.5,4.563-6.5,4.563H15.415c0,0-4.375-2.5-6.25-5C6.884,73.381,5.915,68.039,5.915,68.039
	z"/>
<path fill="#BCD85E" stroke="#000000" stroke-width="1.5" stroke-miterlimit="10" d="M5.915,126.328c0,0,0.415-4.606,2.152-7.453
	c2.056-3.368,5.431-4.077,5.431-4.077H214.54c0,0,2.855,1.582,4.809,4.007c2.177,2.702,2.177,7.523,2.177,7.523H5.915z"/>
<path fill="#BDD85E" stroke="#000000" stroke-width="1.5" stroke-miterlimit="10" d="M9.517,68.039c0,0,2.523,8.076,10.973,9.732
	c3.598,0.705,22.425,2.277,36.332-0.546c10.735-2.18,25.469-5.927,41.101-5.872c9.8,0.035,29.366,1.532,39.13,2.367
	c11.583,0.991,39.258,3.119,50.862,3.828c21.25,1.299,32.185-4.414,32.185-4.414s0.285-0.652,0.441-2.461
	c0.051-0.583-0.001-2.634-0.001-2.634H9.517z"/>
<rect x="22.767" y="81.427" fill="#BC4828" stroke="#000000" stroke-width="1.5" stroke-miterlimit="10" width="90.94" height="6.029"/>
<rect x="126.908" y="81.427" fill="#BC4828" stroke="#000000" stroke-width="1.5" stroke-miterlimit="10" width="77.019" height="6.029"/>
<path fill="#909137" stroke="#000000" stroke-width="1.5" stroke-miterlimit="10" d="M12.04,116.015
	c15.649,4.524,21.012,5.844,41.5,7.158c23.375,1.5,80.076,0.213,105.249-2.489c13.138-1.41,21.668-4.368,45.746-2.852
	c9.38,0.591,15.127,8.496,15.127,8.496H5.915c0,0,0.125-1.479,0.927-4.599C7.759,118.159,10.622,115.604,12.04,116.015z"/>
<ellipse fill="none" stroke="#000000" stroke-width="1.5" stroke-miterlimit="10" cx="64.014" cy="12.548" rx="4.224" ry="1.625"/>
<ellipse fill="none" stroke="#000000" stroke-width="1.5" stroke-miterlimit="10" cx="87.728" cy="6.673" rx="3.938" ry="1.75"/>
<ellipse fill="none" stroke="#000000" stroke-width="1.5" stroke-miterlimit="10" cx="103.853" cy="14.298" rx="4.188" ry="1.75"/>
<ellipse fill="none" stroke="#000000" stroke-width="1.5" stroke-miterlimit="10" cx="122.415" cy="5.798" rx="3.75" ry="1.75"/>
<ellipse fill="none" stroke="#000000" stroke-width="1.5" stroke-miterlimit="10" cx="140.853" cy="14.298" rx="3.938" ry="1.75"/>
<ellipse fill="none" stroke="#000000" stroke-width="1.5" stroke-miterlimit="10" cx="156.29" cy="10.048" rx="3.75" ry="1.625"/>
</svg>
