<?xml version="1.0" encoding="utf-8"?>
<!-- Generator: Adobe Illustrator 15.0.0, SVG Export Plug-In  -->
<!DOCTYPE svg PUBLIC "-//W3C//DTD SVG 1.1//EN" "http://www.w3.org/Graphics/SVG/1.1/DTD/svg11.dtd" [
	<!ENTITY ns_flows "http://ns.adobe.com/Flows/1.0/">
]>
<svg version="1.1"
	 xmlns="http://www.w3.org/2000/svg" xmlns:xlink="http://www.w3.org/1999/xlink" xmlns:a="http://ns.adobe.com/AdobeSVGViewerExtensions/3.0/"
	 x="0px" y="0px" width="256px" height="256px" viewBox="-35.725 -13.697 256 256" enable-background="new -35.725 -13.697 256 256"
	 xml:space="preserve">
<defs>
</defs>
<g>
	<g>
		<path fill="#F3705A" stroke="#000000" stroke-width="2" stroke-miterlimit="10" d="M165.194,204.906
			c2.825,0,5.114-2.291,5.114-5.115v0.512V22.944v0.563C170.308,11.077,160.232,1,147.802,1l0.492,0.006H41.157L41.661,1
			c-12.43,0-22.507,10.077-22.507,22.507v-0.563v177.168v-0.322c0,2.824,2.29,5.115,5.115,5.115h-0.444h141.953"/>
	</g>
</g>
<rect x="27.306" y="22.085" fill="#FFFFFF" stroke="#000000" stroke-width="2" stroke-miterlimit="10" width="135.641" height="43.951"/>
<rect x="27.306" y="94.325" fill="#FFFFFF" stroke="#000000" stroke-width="2" stroke-miterlimit="10" width="63.147" height="65.167"/>
<rect x="99.8" y="94.325" fill="#CED6E1" stroke="#000000" stroke-width="2" stroke-miterlimit="10" width="63.146" height="65.167"/>
<circle fill="#FFD05C" stroke="#000000" stroke-width="2" stroke-miterlimit="10" cx="42.534" cy="182.099" r="8.209"/>
<circle fill="#FFD05C" stroke="#000000" stroke-width="2" stroke-miterlimit="10" cx="149.896" cy="182.099" r="8.209"/>
<path fill="none" stroke="#000000" stroke-width="2" stroke-miterlimit="10" d="M160.915,80.769c0,2.163-1.752,3.915-3.915,3.915
	H34.242c-2.163,0-3.915-1.752-3.915-3.915l0,0c0-2.162,1.752-3.915,3.915-3.915H157C159.163,76.854,160.915,78.606,160.915,80.769
	L160.915,80.769z"/>
<path fill="none" stroke="#000000" stroke-width="2" stroke-miterlimit="10" d="M118.491,182.099c0,2.164-1.753,3.916-3.915,3.916
	H75.424c-2.163,0-3.915-1.752-3.915-3.916l0,0c0-2.161,1.752-3.914,4.915-3.914h39.151
	C116.738,178.185,118.491,179.938,118.491,182.099L118.491,182.099z"/>
<line fill="none" stroke="#000000" stroke-width="2" stroke-miterlimit="10" x1="110.903" y1="118.069" x2="123.28" y2="108.723"/>
<line fill="none" stroke="#000000" stroke-width="2" stroke-miterlimit="10" x1="110.903" y1="129.687" x2="141.686" y2="105.945"/>
<path fill="#CED6E1" stroke="#000000" stroke-width="2" stroke-miterlimit="10" d="M170.308,90.536h11.33c0,0,2.034,0,4.547,1.769
	c2.487,1.75,2.272,5.304,2.272,5.304v29.302c0,0-0.415,4.039-3.789,4.039c-3.741,0-4.293-4.039-4.293-4.039v-25.021
	c0,0,0.064-1.749-0.99-2.542c-1.191-0.896-2.423-0.864-2.423-0.864l-6.654-0.001V90.536z"/>
<path fill="#CED6E1" stroke="#000000" stroke-width="2" stroke-miterlimit="10" d="M19.154,90.536H7.824c0,0-2.034,0-4.546,1.769
	c-2.488,1.75-2.273,5.304-2.273,5.304v29.302c0,0,0.415,4.039,3.789,4.039c3.742,0,4.293-4.039,4.293-4.039v-25.021
	c0,0-0.064-1.749,0.99-2.542c1.191-0.896,2.423-0.864,2.423-0.864l6.653-0.001V90.536z"/>
<g>
	<g>
		<path fill="#CED6E1" stroke="#000000" stroke-width="2" stroke-miterlimit="10" d="M45.403,222.467
			c0,1.966-1.593,3.559-3.558,3.559H29.238c-1.965,0-3.559-1.593-3.559-3.559v0.043v-17.155h19.724v17.366"/>
	</g>
</g>
<g>
	<g>
		<path fill="#CED6E1" stroke="#000000" stroke-width="2" stroke-miterlimit="10" d="M164.964,222.467
			c0,1.966-1.594,3.559-3.558,3.559h-12.607c-1.966,0-3.558-1.593-3.558-3.559v0.043v-17.155h19.723v17.366"/>
	</g>
</g>
</svg>
