<?xml version="1.0" encoding="utf-8"?>
<!-- Generator: Adobe Illustrator 15.0.0, SVG Export Plug-In  -->
<!DOCTYPE svg PUBLIC "-//W3C//DTD SVG 1.1//EN" "http://www.w3.org/Graphics/SVG/1.1/DTD/svg11.dtd" [
	<!ENTITY ns_flows "http://ns.adobe.com/Flows/1.0/">
]>
<svg version="1.1"
	 xmlns="http://www.w3.org/2000/svg" xmlns:xlink="http://www.w3.org/1999/xlink" xmlns:a="http://ns.adobe.com/AdobeSVGViewerExtensions/3.0/"
	 x="0px" y="0px" width="256px" height="256px" viewBox="-17.231 -14.374 256 256" enable-background="new -17.231 -14.374 256 256"
	 xml:space="preserve">
<defs>
</defs>
<rect x="62.464" y="1.5" fill="#FFFFFF" stroke="#000000" stroke-width="3" stroke-miterlimit="10" width="103.552" height="43.024"/>
<polygon fill="#F3797A" stroke="#000000" stroke-width="3" stroke-miterlimit="10" points="127.619,19.385 117.288,19.385 
	117.288,9.05 109.504,9.05 109.504,19.385 99.171,19.385 99.171,27.168 109.504,27.168 109.504,37.499 117.288,37.499 
	117.288,27.168 127.619,27.168 "/>
<path fill="#97D1A6" stroke="#000000" stroke-width="3" stroke-miterlimit="10" d="M1.863,318.562c0,0-5.286-86.172,24.463-104.662
	c16.027-9.963,51.641-16.639,51.641-16.639l72.159,0.609c0,0,44.695,3.76,60.729,20.871c16.798,17.928,16.798,99.82,16.798,99.82
	H1.863z"/>
<path fill="#D78E51" stroke="#000000" stroke-width="3" stroke-miterlimit="10" d="M137.245,165.017l-47.138,0.063
	c0,0,1.222,8.746,1.387,11.684c0.116,2.096-0.056,8.4-0.056,8.4s0.334,6.357-1.024,8.148c-0.764,1.008-3.56,2.529-4.803,2.768
	c-2.659,0.504-7.644,1.182-7.644,1.182l37.022,61.602l35.525-61.023c0,0-6.946-0.293-9.147-0.959
	c-1.277-0.387-3.691-1.924-4.371-3.072c-1.318-2.236-1.113-10.318-1.113-10.318s0.264-5.51,0.393-7.342
	C136.472,173.361,137.245,165.017,137.245,165.017z"/>
<path fill="#E5985A" stroke="#000000" stroke-width="3" stroke-miterlimit="10" d="M169.384,89.181c0,0,5.117,3.336,5.116,7.97
	c-0.011,30.292-11.216,27.988-11.216,27.988s-8.526,23.816-20.071,34.822c-7.915,7.545-21.102,15.299-29.327,14.57
	c-7.73-0.688-15.982-4.271-23.14-8.686c-3.479-2.146-6.701-4.486-9.476-6.789c-11.399-9.453-18.256-32.25-18.256-32.25
	s-12.475-2.721-11.177-30.223c0.266-5.651,5.894-7.402,5.894-7.402l52.452-44.78h7.092l52.115,44.601"/>
<path fill="#9E7B52" stroke="#000000" stroke-width="3" stroke-miterlimit="10" d="M65.33,44.4c0,0-4.982,9.327-6.765,19.666
	c-1.389,8.063-0.833,25.114-0.833,25.114L61.994,94c0,0,0.489,0.73,1.236,0.526c0.643-0.177,2.1-1.082,2.1-1.082v-7.505
	c0,0,12.604-6.86,25.485-17.98c10.843-9.36,19.368-23.558,19.368-23.558H65.33z"/>
<path fill="#9E7B52" stroke="#000000" stroke-width="3" stroke-miterlimit="10" d="M161.784,44.4c0,0,4.981,9.327,6.763,19.666
	c1.391,8.063,0.837,25.114,0.837,25.114L165.12,94c0,0-1.294,1.318-2.039,1.113c-0.644-0.177-1.297-1.668-1.297-1.668v-7.505
	c0,0-12.605-6.86-25.483-17.98c-10.844-9.36-19.369-23.558-19.369-23.558H161.784z"/>
<path fill="#B0AFB0" stroke="#000000" stroke-width="3" stroke-miterlimit="10" d="M91.542,180.654c-0.001-0.445,0-0.74-0.121-1.953
	c-0.463,0.09-0.942,0.174-1.372,0.275c-6.146,1.402-18.336,5.246-25.038,10.742c-7.172,5.881-12.358,11.742-14.353,21.234
	c-2.398,11.418-2.25,46.381-2.242,47.828c0,0,1.75-0.385,2.28-0.389c0.583-0.002,2.178,0,2.178,0
	c-0.002-0.348-0.165-35.57,2.137-46.523c1.728-8.225,6.374-13.426,12.82-18.709c6.063-4.973,17.736-8.598,23.505-9.918
	C91.483,183.208,91.543,181.675,91.542,180.654z"/>
<path fill="#B0AFB0" stroke="#000000" stroke-width="3" stroke-miterlimit="10" d="M189.275,231.48
	c-2.207-3.709-8.232-4.973-11.558-5.396c-0.247-3.447-0.91-10.789-2.354-16.229c-1.64-6.168-5.118-12.404-9.542-17.104
	c-8.317-8.834-19.414-11.932-29.173-13.795c-0.26-0.051-0.256-0.064-0.529-0.111c-0.029,0.504-0.104,1.123-0.118,1.602
	c-0.038,1.264-0.028,2.912,0.015,2.92c12.839,2.451,20.644,6.143,26.569,12.436c1.86,1.977,6.41,7.414,8.478,15.191
	c1.319,4.963,1.957,11.896,2.203,15.254c-2.978,0.57-7.985,1.896-9.943,4.58c-2.555,3.512-3.115,13.123-3.201,15.014l4.441,0.203
	c0.191-4.148,1.047-10.801,2.358-12.6c0.954-1.309,5.25-2.607,8.781-3.092c3.428,0.246,8.581,1.438,9.751,3.4
	c1.519,2.553,2.053,9.309,2.072,12.182l4.45-0.031C191.971,245.496,191.869,235.845,189.275,231.48z"/>
<path fill="none" stroke="#000000" stroke-width="3" stroke-miterlimit="10" d="M95.434,147.566c0,0,6.41-4.164,8.989-4.234
	c2.038-0.055,4.295,0.422,5.561,0.928c0.756,0.301,2.175,1.432,3.459,1.391c1.003-0.035,2.008-1.205,3.202-1.625
	c1.17-0.412,2.719-0.762,4.83-0.762c3.139,0,9.977,4.951,9.977,4.951s-3.49,3.49-6.362,5.127c-2.555,1.455-8.369,2.93-11.306,2.996
	c-3.039,0.07-8.556-0.863-11.771-2.502C99.951,152.783,95.434,147.566,95.434,147.566z"/>
<path fill="none" stroke="#000000" stroke-width="4" stroke-miterlimit="10" d="M81.811,101.537c0,0,8.958-10.07,17.36,0"/>
<path fill="none" stroke="#000000" stroke-width="4" stroke-miterlimit="10" d="M127.776,101.537c2.041-2.294,10.871-7.776,17.362,0
	"/>
<path fill="none" stroke="#000000" stroke-width="3" stroke-miterlimit="10" d="M95.434,147.41c0,0,13.557,3.047,17.979,3.113
	c4.584,0.068,18.038-2.588,18.038-2.588"/>
</svg>
