<?xml version="1.0" encoding="utf-8"?>
<!-- Generator: Adobe Illustrator 15.0.0, SVG Export Plug-In  -->
<!DOCTYPE svg PUBLIC "-//W3C//DTD SVG 1.1//EN" "http://www.w3.org/Graphics/SVG/1.1/DTD/svg11.dtd" [
	<!ENTITY ns_flows "http://ns.adobe.com/Flows/1.0/">
]>
<svg version="1.1"
	 xmlns="http://www.w3.org/2000/svg" xmlns:xlink="http://www.w3.org/1999/xlink" xmlns:a="http://ns.adobe.com/AdobeSVGViewerExtensions/3.0/"
	 x="0px" y="0px" width="256px" height="256px" viewBox="-1.881 -19.294 256 256" enable-background="new -1.881 -19.294 256 256"
	 xml:space="preserve">
<defs>
</defs>
<path fill="#FFFFFF" stroke="#231F20" stroke-width="1.5" stroke-miterlimit="10" d="M251.693,204.683c0,6.627-5.373,12-12,12H12.75
	c-6.627,0-12-5.373-12-12V54.05c0-6.627,5.373-12,12-12h226.943c6.627,0,12,5.373,12,12V204.683z"/>
<path fill="#CDD5E1" stroke="#231F20" stroke-width="1.5" stroke-miterlimit="10" d="M142.58,0.75h-29.668c-6.627,0-12,5.373-12,12
	v46.859c0,6.627,5.373,12,12,12h29.668c6.627,0,12-5.373,12-12V12.75C154.58,6.123,149.207,0.75,142.58,0.75z M127.053,39.163
	c-6.947,0-12.579-5.632-12.579-12.579s5.632-12.579,12.579-12.579s12.578,5.632,12.578,12.579S134,39.163,127.053,39.163z"/>
<line fill="#E0E0E0" stroke="#231F20" stroke-width="1.5" stroke-miterlimit="10" x1="127.746" y1="100.541" x2="178.271" y2="100.541"/>
<line fill="#E0E0E0" stroke="#231F20" stroke-width="1.5" stroke-miterlimit="10" x1="127.746" y1="126.117" x2="229.843" y2="126.117"/>
<line fill="#E0E0E0" stroke="#231F20" stroke-width="1.5" stroke-miterlimit="10" x1="127.746" y1="151.064" x2="229.843" y2="151.064"/>
<line fill="#E0E0E0" stroke="#231F20" stroke-width="1.5" stroke-miterlimit="10" x1="127.746" y1="173.077" x2="138.438" y2="173.077"/>
<line fill="#E0E0E0" stroke="#231F20" stroke-width="1.5" stroke-miterlimit="10" x1="149.339" y1="173.077" x2="164.644" y2="173.077"/>
<line fill="#E0E0E0" stroke="#231F20" stroke-width="1.5" stroke-miterlimit="10" x1="175.964" y1="173.077" x2="186.027" y2="173.077"/>
<line fill="#E0E0E0" stroke="#231F20" stroke-width="1.5" stroke-miterlimit="10" x1="196.719" y1="173.077" x2="212.651" y2="173.077"/>
<line fill="#E0E0E0" stroke="#231F20" stroke-width="1.5" stroke-miterlimit="10" x1="221.876" y1="173.077" x2="229.843" y2="173.077"/>
<path fill="#44E2C8" stroke="#231F20" stroke-width="1.5" stroke-miterlimit="10" d="M43.309,79.998l7.061,6.208
	c0,0,1.681,0.997,2.513,1.188c2.987,0.687,13.112-0.563,20.237,0.187c6,0.631,12.2,4.234,15.125,6.625c7.75,6.334,7,14.986,7,14.986
	s3.875,2.264,5,5.514c0.664,1.919,0.21,7.288-0.655,9.126c-0.972,2.065-5.72,5.534-5.72,5.534s-0.859,7.132-5.5,11.09
	c-3.806,3.246-9.875,8-9.875,8s-0.545,4.56-0.125,6c0.126,0.433,1,1.5,1,1.5s8.091,4.305,14.875,7.875
	c9.5,5,9.977,8.017,10.227,11.436c0.196,2.682-0.102,8.564-0.102,8.564s-5.758,3.298-7.875,3.875
	c-8.25,2.25-14.375,2.25-14.375,2.25l-37.625-0.875c0,0-6.517-0.547-9.125-1.688c-5-2.188-7.75-5.313-7.75-5.313
	s-0.324-7.036,0.294-9.004c0.87-2.769,4.019-5.434,7.331-7.996c5.953-4.605,17.875-8.688,18.688-10.313
	c0.68-1.359,0.438-6.063,0.438-6.063s-6.5-3.938-10.438-7.563c-3.284-3.023-4.625-11.777-4.625-11.777s-2.803-1.451-3.938-2.598
	c-0.637-0.645-2.631-2.558-3-3.688c-0.68-2.08-0.68-6.77,0.25-8.75c0.808-1.723,4.323-3.9,5.125-5.625
	c0.765-1.645,0.181-6.387,0.537-8.166c0.577-2.878,4.735-6.563,5.213-9.459c0.404-2.453-2.205-8.869-2.205-8.869
	s-0.545-1.506,0.267-2.006C42.818,79.43,43.309,79.998,43.309,79.998z"/>
</svg>
