<?xml version="1.0" encoding="utf-8"?>
<!-- Generator: Adobe Illustrator 15.0.0, SVG Export Plug-In  -->
<!DOCTYPE svg PUBLIC "-//W3C//DTD SVG 1.1//EN" "http://www.w3.org/Graphics/SVG/1.1/DTD/svg11.dtd" [
	<!ENTITY ns_flows "http://ns.adobe.com/Flows/1.0/">
]>
<svg version="1.1"
	 xmlns="http://www.w3.org/2000/svg" xmlns:xlink="http://www.w3.org/1999/xlink" xmlns:a="http://ns.adobe.com/AdobeSVGViewerExtensions/3.0/"
	 x="0px" y="0px" width="406px" height="313px" viewBox="-0.686 -2.812 406 313" enable-background="new -0.686 -2.812 406 313"
	 xml:space="preserve">
<defs>
</defs>
<path fill-rule="evenodd" clip-rule="evenodd" fill="#44E2C8" stroke="#202020" stroke-width="2" stroke-linecap="round" d="
	M403.628,47.306c0,86.968,0,165.459,0,248.653l-172.908,0.598c0,0-6.195,11.257-24.279,11.257
	c-20.875,0-26.541-11.389-26.541-11.389L1.021,295.958C1.015,295.754,0.978,44.874,1.02,44.682
	c1.195-5.523,21.662-5.939,21.662-5.939l-0.167-23.514c0,0,36.173-20.296,100.385-11.217c32.09,4.537,52.616,13.488,81.804,37.474
	c30.145-27.131,74.219-45.3,135.07-39.357c19.615,1.916,51.857,12.694,51.857,17.511c0,9.607-0.068,22.684-0.068,22.684
	S403.628,44.063,403.628,47.306"/>
<path fill-rule="evenodd" clip-rule="evenodd" fill="#FFFFFF" stroke="#202020" stroke-width="2" stroke-linecap="round" d="
	M204.182,185.189c-5.132,3.925-6.136,4.908-10.5,8.374c0-19.874-0.621-144.232-0.621-144.232S147.907,6.895,67.485,16.709
	c-20.257,2.472-32.323,8.236-32.323,8.236S35.75,44.66,35.75,57.601c0,57.784-0.393,152.233-0.393,203.02
	c56.982-19.588,115.334-1.678,169.347,16.557"/>
<path fill-rule="evenodd" clip-rule="evenodd" fill="#EBEBEB" stroke="#202020" stroke-width="2" stroke-linecap="round" d="
	M204.704,277.177c54.285-20.632,115.835-34.183,173.458-15.397c0-17.293-0.188-115.155-0.188-179.76
	c0-24.244-0.291-54.815-0.291-54.815s-24.455-19.525-84.182-12.474c-51.875,6.125-78.781,34.625-78.781,34.625
	s0.188,112.833,0.188,144c-3.281-2.583-7.029-5.602-10.727-8.167"/>
<path fill-rule="evenodd" clip-rule="evenodd" fill="#CDD5E1" stroke="#202020" stroke-width="2" stroke-linecap="round" d="
	M54.72,144.65c0-18.53,0-26.757,0-44.439c0-11.015,0.06-32.599,0.06-45.957c0-5.072,15.508-8.984,30.89-7.958
	s30.636,6.992,30.636,6.992s0.313,33.923,0.313,43.749c0,18.737,0,31.231,0,44.565C97.086,139.72,73.846,139.257,54.72,144.65"/>
<path fill-rule="evenodd" clip-rule="evenodd" fill="none" stroke="#202020" stroke-width="2" stroke-linecap="round" d="
	M130.109,57.357c14.702,3.712,29.073,7.888,42.853,14.284"/>
<path fill-rule="evenodd" clip-rule="evenodd" fill="none" stroke="#202020" stroke-width="2" stroke-linecap="round" d="
	M240.415,72.435c34.572-14.508,74.154-21.895,111.102-12.697"/>
<path fill-rule="evenodd" clip-rule="evenodd" fill="none" stroke="#202020" stroke-width="2" stroke-linecap="round" d="
	M240.415,99.417c34.52-15.003,74.65-24.074,111.895-12.697"/>
<path fill-rule="evenodd" clip-rule="evenodd" fill="none" stroke="#202020" stroke-width="2" stroke-linecap="round" d="
	M130.109,84.339c13.771,4.457,27.965,8.713,41.266,14.284"/>
<path fill-rule="evenodd" clip-rule="evenodd" fill="none" stroke="#202020" stroke-width="2" stroke-linecap="round" d="
	M239.622,124.018c35.461-13.928,75.842-23.274,113.48-11.904"/>
<path fill-rule="evenodd" clip-rule="evenodd" fill="none" stroke="#202020" stroke-width="2" stroke-linecap="round" d="
	M130.903,110.527c13.797,3.25,26.981,8.489,40.472,11.904"/>
<path fill-rule="evenodd" clip-rule="evenodd" fill="none" stroke="#202020" stroke-width="2" stroke-linecap="round" d="
	M240.415,151.792c35.471-14.203,75.535-23.136,113.482-13.491"/>
<path fill-rule="evenodd" clip-rule="evenodd" fill="none" stroke="#202020" stroke-width="2" stroke-linecap="round" d="
	M130.109,138.302c13.969,3.456,27.73,7.728,41.266,12.697"/>
<path fill-rule="evenodd" clip-rule="evenodd" fill="none" stroke="#202020" stroke-width="2" stroke-linecap="round" d="
	M240.415,178.774c34.527-15.822,75.164-25.392,112.688-14.284"/>
<path fill-rule="evenodd" clip-rule="evenodd" fill="none" stroke="#202020" stroke-width="2" stroke-linecap="round" d="
	M171.375,176.393c-34.999-16.689-76.053-19.267-114.275-12.696"/>
<path fill-rule="evenodd" clip-rule="evenodd" fill="none" stroke="#202020" stroke-width="2" stroke-linecap="round" d="
	M172.962,203.375c-34.697-18.427-75.892-19.091-114.274-14.284"/>
<path fill-rule="evenodd" clip-rule="evenodd" fill="none" stroke="#202020" stroke-width="2" stroke-linecap="round" d="
	M239.622,204.962c35.146-15.203,75.402-23.835,113.48-15.078"/>
<path fill-rule="evenodd" clip-rule="evenodd" fill="none" stroke="#202020" stroke-width="2" stroke-linecap="round" d="
	M58.688,216.072c37.608-8.245,78.782-3.45,112.688,14.285"/>
<path fill-rule="evenodd" clip-rule="evenodd" fill="none" stroke="#202020" stroke-width="2" stroke-linecap="round" d="
	M240.415,231.15c34.992-16.041,74.822-23.703,112.688-14.284"/>
<path fill-rule="evenodd" clip-rule="evenodd" fill="none" stroke="#202020" stroke-width="2" stroke-linecap="round" d="
	M204.704,41.486c0,94.205-1.26,185.57,0.133,235.691"/>
</svg>
