<?xml version="1.0" encoding="utf-8"?>
<!-- Generator: Adobe Illustrator 15.0.0, SVG Export Plug-In  -->
<!DOCTYPE svg PUBLIC "-//W3C//DTD SVG 1.1//EN" "http://www.w3.org/Graphics/SVG/1.1/DTD/svg11.dtd" [
	<!ENTITY ns_flows "http://ns.adobe.com/Flows/1.0/">
]>
<svg version="1.1"
	 xmlns="http://www.w3.org/2000/svg" xmlns:xlink="http://www.w3.org/1999/xlink" xmlns:a="http://ns.adobe.com/AdobeSVGViewerExtensions/3.0/"
	 x="0px" y="0px" width="256px" height="256px" viewBox="-6.249 -6.317 256 256" enable-background="new -6.249 -6.317 256 256"
	 xml:space="preserve">
<defs>
</defs>
<path display="none" fill="#F3797A" stroke="#000000" stroke-width="3" stroke-miterlimit="10" d="M183.554,60.078l-16.622,55.965
	l25.245,17.525l25.51-59.093c0,0-8.897,2.694-20.676-1.075C188.814,70.778,183.554,60.078,183.554,60.078z"/>
<polyline display="none" fill="#A56352" stroke="#000000" stroke-width="3" stroke-miterlimit="10" points="84.145,149.929 
	67.252,96.507 76.374,94.018 93.813,134.871 84.636,149.929 "/>
<path fill="#E1E1E1" stroke="#000000" stroke-width="1.5" stroke-miterlimit="10" d="M155.461,64.12
	c-0.475-27.483-24.853-50.938-41.31-57.094C105.052,3.076,94.347,0.75,83.036,0.75c-29.118,0-66.547,31.084-72.321,52.656
	c-2.791,7.418-4.378,15.525-4.378,23.672c0,0.252,0.012,0.501,0.015,0.753C6.35,78.056,6.337,78.276,6.337,78.5
	c0,8.029,1.699,15.616,4.71,22.359c5.965,14.117,17.069,24.335,30.217,26.778c3.459,0.926,7.068,1.428,10.785,1.428
	c15.892,0,29.884-8.974,38.076-22.586c0.016,0.019,0.033,0.035,0.049,0.053c1.128-1.4,2.886-2.134,5.027-2.063
	c4.307,0.141,4.953,0.875,7.633,5.27c3.211,5.808,9.982,9.824,17.841,9.824c6.579,0,12.393-2.818,16.001-7.14
	C147.115,102.813,155.792,83.321,155.461,64.12z"/>
<path fill="#A56352" stroke="#000000" stroke-width="1.5" stroke-miterlimit="10" d="M86.167,99.538l-9.122,2.489l30.91,97.031
	c0,0,1.132,6.795,12.459,1.133c7.098-3.549,4.854-9.871,4.854-9.871L86.167,99.538z"/>
<path fill="#90C6DE" stroke="#000000" stroke-width="1.5" stroke-miterlimit="10" d="M82.044,101.621
	c6.438-1.464,9.21-9.088,8.875-13.386c-0.427-5.479-3.994-10.704-7.656-13.813c-1.809-1.536-6.094-3.813-6.844-7.625
	c-0.338-1.721,0.352-4.668,2.063-6.469c1.217-1.281,3.494-1.962,3.063-2.625c-0.493-0.758-2.456,0.716-4.406,1.657
	c-3.931,1.896-8.418,4.132-11.313,7.375c-6.461,7.239-5.07,12.489-5,17.239c0.041,2.781,2.441,10.924,6.136,14.397
	C72.7,103.766,82.044,101.621,82.044,101.621"/>
<circle fill="#97D1A6" stroke="#000000" stroke-width="1.5" stroke-miterlimit="10" cx="77.626" cy="24.744" r="14.18"/>
<circle fill="#90C6DE" stroke="#000000" stroke-width="1.5" stroke-miterlimit="10" cx="46.167" cy="42.138" r="13.197"/>
<circle fill="#F3797A" stroke="#000000" stroke-width="1.5" stroke-miterlimit="10" cx="33.921" cy="73.023" r="12.951"/>
<circle fill="#FBE28B" stroke="#000000" stroke-width="1.5" stroke-miterlimit="10" cx="46.495" cy="108.023" r="14.672"/>
<circle fill="#E1E1E1" stroke="#000000" stroke-width="1.5" stroke-miterlimit="10" cx="129.085" cy="82.793" r="9.426"/>
<path fill="#E86565" stroke="#000000" stroke-width="1.5" stroke-miterlimit="10" d="M181.38,56.581l-45.533,134.151
	c0,0,1.456,6.957,8.091,10.389c6.865,3.551,15.372-1.166,15.372-1.166l58.275-126.451L198.937,58.95L181.38,56.581z"/>
<path fill="#E86565" stroke="#000000" stroke-width="1.5" stroke-miterlimit="10" d="M173.274,81.401l3.536-12.352l37.02,13.36
	l-6.403,12.993c0,0-11.425,4.814-22.185,0.42C175.805,91.968,173.274,81.401,173.274,81.401z"/>
<circle fill="#E1E1E1" stroke="#000000" stroke-width="1.5" stroke-miterlimit="10" cx="204.395" cy="50.574" r="33.197"/>
<path fill="none" stroke="#000000" stroke-width="1.5" stroke-miterlimit="10" d="M174.121,36.992c0,0,4.345,19.132,23.834,25.384
	c21.625,6.938,37.1,1.017,37.1,1.017s1.305-3.122,1.65-4.37c0.275-0.996,0.887-4.725,0.887-4.725s-22.479,4.467-36.949-1.734
	c-15.313-6.563-21.854-23.065-21.854-23.065s-2.082,2.571-2.649,3.525C175.579,33.964,174.121,36.992,174.121,36.992z"/>
<path fill="#97D1A6" stroke="#000000" stroke-width="1.5" stroke-miterlimit="10" d="M37.034,194.71h91.371V149.58
	c-12.54-7.118-27.027-11.205-42.478-11.205c-18.16,0-34.999,5.63-48.893,15.221V194.71z"/>
<path fill="#90C6DE" stroke="#000000" stroke-width="1.5" stroke-miterlimit="10" d="M0.754,223.549l37.038-18.081l12.395-23.314
	c0,0-6.94-9.789-8.245-13.53c-2.581-7.397-3.022-15.544-3.022-15.544l-0.576-0.425C15.722,168.127,0.851,194.095,0.754,223.549z"/>
<path fill="#97D1A6" stroke="#000000" stroke-width="1.5" stroke-miterlimit="10" d="M12.353,213.524
	c-8.569,5.096-10.942,8.729-11.601,10.354c0.068,29.331,14.794,55.208,37.235,70.724l9.723-66.377l-9.918-22.756
	C37.792,205.468,25.804,205.523,12.353,213.524z"/>
<path fill="#90C6DE" stroke="#000000" stroke-width="1.5" stroke-miterlimit="10" d="M72.018,227.742l-24.308,0.482
	c0,0-10.098,21.77-11.101,39.319c-1.002,17.537,0.082,24.58,0.746,27.116c13.914,9.634,30.789,15.292,48.994,15.292
	c19.506,0,37.495-6.489,51.94-17.416L72.018,227.742z"/>
<path fill="#97D1A6" stroke="#000000" stroke-width="1.5" stroke-miterlimit="10" d="M172.627,223.764
	c0-0.475-0.028-0.941-0.035-1.414l-0.783-2.53l-3.594-8.441l-62.792-20.218l-20.139,11.87l-13.266,24.711
	c0,0,16.889,24.663,29.448,38.254c14.208,15.375,32.178,24.666,36.575,26.808C159.037,277.083,172.627,252.011,172.627,223.764z"/>
<path fill="#90C6DE" stroke="#000000" stroke-width="1.5" stroke-miterlimit="10" d="M171.705,220.574l0.922-0.312
	c-1.729-33.133-22.179-61.289-50.964-74.146l-2.318-0.627c-15.84,7.015-15.513,5.425-26.511,13.844
	c-13.935,10.666-18.99,22.634-18.99,22.634l10.377,21.063c0,0,35.276,1.818,49.728,3.784
	C160.062,210.367,171.705,220.574,171.705,220.574z"/>
<path fill="#F9F9FA" stroke="#000000" stroke-width="1.5" stroke-miterlimit="10" d="M85.284,204.877
	c0,10.188-5.718,25.873-27.538,25.873c-13.716,0-19.955-10.623-19.955-25.254c0-16.401,11.119-26.492,24.834-26.492
	C76.343,179.004,85.284,187.352,85.284,204.877z"/>
<ellipse fill="#E1E1E1" stroke="#000000" stroke-width="1.5" stroke-miterlimit="10" cx="61.068" cy="203.779" rx="4.358" ry="4.828"/>
</svg>
