<?xml version="1.0" encoding="utf-8"?>
<!-- Generator: Adobe Illustrator 15.0.0, SVG Export Plug-In  -->
<!DOCTYPE svg PUBLIC "-//W3C//DTD SVG 1.1//EN" "http://www.w3.org/Graphics/SVG/1.1/DTD/svg11.dtd" [
	<!ENTITY ns_flows "http://ns.adobe.com/Flows/1.0/">
]>
<svg version="1.1"
	 xmlns="http://www.w3.org/2000/svg" xmlns:xlink="http://www.w3.org/1999/xlink" xmlns:a="http://ns.adobe.com/AdobeSVGViewerExtensions/3.0/"
	 x="0px" y="0px" width="551px" height="133px" viewBox="0 0 551 133" enable-background="new 0 0 551 133" xml:space="preserve">
<defs>
</defs>
<path fill="#FFFFFF" d="M176.158,33.796c0.803,0.853,1.207,1.896,1.207,3.124v63.9c0,1.23-0.404,2.25-1.207,3.053
	c-0.806,0.806-1.824,1.207-3.053,1.207c-1.231,0-2.25-0.401-3.053-1.207c-0.806-0.803-1.207-1.822-1.207-3.053v-9.514
	c-2.368,4.26-5.917,7.858-10.65,10.791c-4.734,2.936-9.893,4.402-15.478,4.402c-6.343,0-12.047-1.655-17.111-4.97
	c-5.065-3.313-9.042-7.856-11.928-13.632c-2.889-5.773-4.331-12.259-4.331-19.455c0-7.192,1.466-13.653,4.402-19.383
	c2.933-5.727,6.934-10.199,11.999-13.418c5.063-3.218,10.672-4.828,16.827-4.828c5.68,0,10.885,1.373,15.62,4.117
	c4.733,2.747,8.283,6.344,10.65,10.793V36.92c0-1.229,0.401-2.271,1.207-3.124c0.803-0.853,1.821-1.278,3.053-1.278
	C174.333,32.518,175.352,32.943,176.158,33.796z M156.846,94.643c3.927-2.602,7.004-6.199,9.23-10.791
	c2.223-4.592,3.337-9.728,3.337-15.408c0-5.488-1.114-10.508-3.337-15.051c-2.226-4.545-5.303-8.117-9.23-10.722
	c-3.93-2.603-8.356-3.905-13.277-3.905c-4.923,0-9.35,1.278-13.277,3.834c-3.929,2.557-7.007,6.084-9.23,10.58
	c-2.226,4.496-3.337,9.584-3.337,15.264c0,5.681,1.087,10.816,3.266,15.408c2.176,4.592,5.229,8.189,9.159,10.791
	c3.927,2.605,8.4,3.905,13.419,3.905C148.49,98.548,152.916,97.248,156.846,94.643z"/>
<path fill="#FFFFFF" d="M244.43,32.447c0.803,0.805,1.207,1.824,1.207,3.053v62.622c0,7.478-1.469,13.867-4.402,19.17
	c-2.936,5.301-7.007,9.323-12.212,12.07c-5.207,2.744-11.076,4.118-17.608,4.118c-3.976,0-7.692-0.426-11.147-1.278
	c-3.457-0.853-6.319-1.988-8.591-3.408c-1.988-1.231-2.982-2.604-2.982-4.118c0-0.19,0.093-0.663,0.284-1.42
	c0.284-0.947,0.757-1.657,1.42-2.13c0.662-0.475,1.372-0.71,2.13-0.71c0.568,0,1.136,0.143,1.704,0.426
	c6.058,3.313,11.833,4.971,17.324,4.971c7.856,0,14.08-2.463,18.673-7.385c4.591-4.923,6.887-11.644,6.887-20.164v-4.97
	c-2.368,3.976-5.775,7.171-10.224,9.585c-4.451,2.414-9.279,3.621-14.484,3.621c-8.236,0-14.484-2.461-18.744-7.384
	c-4.26-4.921-6.39-11.595-6.39-20.022V35.5c0-1.229,0.402-2.248,1.207-3.053c0.803-0.803,1.822-1.207,3.053-1.207
	c1.229,0,2.248,0.404,3.053,1.207c0.803,0.805,1.207,1.824,1.207,3.053v42.316c0,6.815,1.491,11.977,4.473,15.478
	c2.982,3.503,7.644,5.254,13.987,5.254c3.88,0,7.597-0.97,11.147-2.911c3.55-1.939,6.39-4.494,8.52-7.668
	c2.13-3.17,3.195-6.554,3.195-10.152V35.5c0-1.229,0.401-2.248,1.207-3.053c0.803-0.803,1.821-1.207,3.053-1.207
	C242.605,31.24,243.623,31.645,244.43,32.447z"/>
<path fill="#FFFFFF" d="M307.795,35.643c5.111,3.219,9.111,7.691,12,13.418c2.887,5.729,4.33,12.19,4.33,19.383
	c0,7.101-1.443,13.562-4.33,19.384c-2.889,5.821-6.865,10.39-11.93,13.703c-5.064,3.314-10.721,4.97-16.969,4.97
	c-5.395,0-10.391-1.35-14.98-4.047c-4.594-2.698-8.307-6.27-11.146-10.721v9.371c0,1.232-0.404,2.272-1.207,3.125
	c-0.807,0.852-1.824,1.277-3.053,1.277c-1.232,0-2.25-0.426-3.055-1.277c-0.805-0.853-1.207-1.893-1.207-3.125V4.402
	c0-1.229,0.402-2.248,1.207-3.053c0.805-0.804,1.822-1.207,3.055-1.207c1.229,0,2.246,0.403,3.053,1.207
	c0.803,0.805,1.207,1.823,1.207,3.053v41.89c2.555-4.638,6.152-8.378,10.791-11.218c4.637-2.84,9.703-4.26,15.195-4.26
	C297.004,30.814,302.684,32.425,307.795,35.643z M303.322,94.572c3.928-2.649,7.004-6.271,9.23-10.863
	c2.223-4.59,3.336-9.678,3.336-15.266c0-5.68-1.113-10.768-3.336-15.264c-2.227-4.496-5.303-8.023-9.23-10.58
	c-3.93-2.556-8.355-3.834-13.277-3.834c-5.02,0-9.514,1.256-13.49,3.764c-3.977,2.51-7.053,6.035-9.23,10.578
	c-2.178,4.545-3.266,9.656-3.266,15.336c0,5.681,1.111,10.816,3.338,15.408c2.223,4.592,5.301,8.189,9.23,10.791
	c3.926,2.605,8.398,3.905,13.418,3.905C294.967,98.548,299.393,97.224,303.322,94.572z"/>
<path fill="#FFFFFF" d="M398.389,88.04c-3.123,5.775-7.432,10.295-12.922,13.562c-5.49,3.266-11.598,4.898-18.316,4.898
	c-6.725,0-12.83-1.633-18.318-4.898c-5.492-3.267-9.799-7.786-12.922-13.562c-3.125-5.772-4.688-12.212-4.688-19.312
	c0-7.101,1.563-13.537,4.688-19.313c3.123-5.773,7.43-10.316,12.922-13.632c5.488-3.313,11.594-4.97,18.318-4.97
	c6.719,0,12.826,1.657,18.316,4.97c5.49,3.315,9.799,7.858,12.922,13.632c3.125,5.775,4.688,12.212,4.688,19.313
	C403.076,75.828,401.514,82.268,398.389,88.04z M391.006,53.393c-2.367-4.545-5.658-8.117-9.869-10.722
	c-4.213-2.603-8.875-3.905-13.986-3.905c-5.113,0-9.752,1.303-13.916,3.905c-4.168,2.604-7.455,6.177-9.869,10.722
	c-2.414,4.543-3.621,9.655-3.621,15.336c0,5.586,1.207,10.649,3.621,15.193c2.414,4.545,5.701,8.119,9.869,10.721
	c4.164,2.605,8.803,3.905,13.916,3.905c5.111,0,9.773-1.278,13.986-3.834c4.211-2.556,7.502-6.106,9.869-10.649
	c2.365-4.545,3.549-9.656,3.549-15.336C394.555,63.048,393.371,57.936,391.006,53.393z"/>
<path fill="#FFFFFF" d="M477.197,88.04c-3.123,5.775-7.432,10.295-12.922,13.562c-5.49,3.266-11.598,4.898-18.316,4.898
	c-6.725,0-12.83-1.633-18.318-4.898c-5.492-3.267-9.799-7.786-12.922-13.562c-3.125-5.772-4.688-12.212-4.688-19.312
	c0-7.101,1.563-13.537,4.688-19.313c3.123-5.773,7.43-10.316,12.922-13.632c5.488-3.313,11.594-4.97,18.318-4.97
	c6.719,0,12.826,1.657,18.316,4.97c5.49,3.315,9.799,7.858,12.922,13.632c3.125,5.775,4.688,12.212,4.688,19.313
	C481.885,75.828,480.322,82.268,477.197,88.04z M469.814,53.393c-2.367-4.545-5.658-8.117-9.869-10.722
	c-4.213-2.603-8.875-3.905-13.986-3.905c-5.113,0-9.752,1.303-13.916,3.905c-4.168,2.604-7.455,6.177-9.869,10.722
	c-2.414,4.543-3.621,9.655-3.621,15.336c0,5.586,1.207,10.649,3.621,15.193c2.414,4.545,5.701,8.119,9.869,10.721
	c4.164,2.605,8.803,3.905,13.916,3.905c5.111,0,9.773-1.278,13.986-3.834c4.211-2.556,7.502-6.106,9.869-10.649
	c2.365-4.545,3.549-9.656,3.549-15.336C473.363,63.048,472.18,57.936,469.814,53.393z"/>
<path fill="#FFFFFF" d="M551.455,100.82c0,1.23-0.496,2.25-1.49,3.053c-0.994,0.806-1.918,1.207-2.77,1.207
	c-1.23,0-2.271-0.52-3.123-1.563L512.689,70.29l-10.65,9.088v21.442c0,1.23-0.402,2.25-1.207,3.053
	c-0.805,0.806-1.822,1.207-3.053,1.207s-2.25-0.401-3.053-1.207c-0.805-0.803-1.207-1.822-1.207-3.053V4.26
	c0-1.229,0.402-2.247,1.207-3.053C495.529,0.404,496.549,0,497.779,0s2.248,0.404,3.053,1.207c0.805,0.806,1.207,1.824,1.207,3.053
	v64.752l41.039-35.357c0.852-0.945,1.846-1.42,2.982-1.42c1.039,0,1.986,0.45,2.84,1.349c0.852,0.901,1.277,1.87,1.277,2.911
	c0,1.136-0.521,2.226-1.563,3.266l-29.252,24.85l30.814,32.945C551.029,98.502,551.455,99.591,551.455,100.82z"/>
<polygon fill="#FFD15C" points="39.281,5.68 39.281,43.771 21.82,13.528 18.271,16.326 37.25,49.198 6.096,31.212 4.14,35.247 
	35.138,53.144 0,53.144 0,57.616 35.679,57.616 4.249,75.763 6.226,79.785 37.25,61.874 18.393,94.536 21.984,97.26 39.281,67.302 
	39.315,104.934 46.888,106.253 46.888,57.616 46.888,53.144 46.888,4.684 "/>
<g>
	<path fill="#FFFFFF" d="M59.025,13.264c9.503,1.795,18.181,6.81,24.535,14.204c6.667,7.757,10.338,17.671,10.338,27.916
		c0,10.213-3.652,20.104-10.283,27.85C77.258,90.658,68.556,95.7,59.025,97.5V13.264 M55.285,4.684c-1.231,0-2.25,0.404-3.053,1.207
		c-0.806,0.806-1.207,1.824-1.207,3.053v92.881c0,1.23,0.401,2.25,1.207,3.053c0.803,0.806,1.821,1.207,3.053,1.207l2.26-0.27
		l1.433-0.192v0.012c0.085-0.014,0.169-0.032,0.254-0.046l0.175-0.023v-0.008c24.106-3.998,42.491-24.933,42.491-50.173
		c0-25.313-18.489-46.297-42.697-50.21V5.17l-0.083-0.011c-0.047-0.008-0.093-0.018-0.14-0.025v0.007l-1.376-0.179L55.285,4.684
		L55.285,4.684z"/>
</g>
</svg>
