<?xml version="1.0" encoding="utf-8"?>
<!-- Generator: Adobe Illustrator 15.0.0, SVG Export Plug-In  -->
<!DOCTYPE svg [
	<!ENTITY ns_flows "http://ns.adobe.com/Flows/1.0/">
]>
<svg version="1.2" baseProfile="tiny"
	 xmlns="http://www.w3.org/2000/svg" xmlns:xlink="http://www.w3.org/1999/xlink" xmlns:a="http://ns.adobe.com/AdobeSVGViewerExtensions/3.0/"
	 x="0px" y="0px" width="250px" height="250px" viewBox="0.008 -45.096 250 250" xml:space="preserve">
<defs>
</defs>
<path fill-rule="evenodd" d="M0.134,55.014c0-3.374,0-6.747,0-10.121C2.398,27.042,20.511,1.423,38.59,0.365
	c14.562-0.852,28.273,10.751,45.541,11.132C96.257,0.633,122.134-1.231,136.382,0.633c9.053,1.184,23.754,7.771,32.76,10.864
	c25.565,8.783,40.831,11.299,62.745-4.048c14.354,9.074,21.939,34.051,16.191,56.673c-20.406,4.218-41.571,9.104-60.655,15.04
	c3.5,7.375,12.928,11.676,8.03,20.381c-7.11,12.637-27.273-4.311-35.421-9.109c-13.979-8.232-29.988-19.314-32.109-16.311
	c10.301,7.164,18.03,12.318,31.209,19.729c8.525,4.795,30.25,16.375,27.212,24.92c-6.436,18.102-32.712-3.92-43.087-10.17
	c-11.588-6.98-26.75-20.5-27.753-16.143c7.48,6.223,16.771,12.375,28.336,20.24c9.8,6.662,27.167,17.152,25.302,23.277
	c-5.625,18.471-28.119,2.576-34.409-2.025c-9.607-7.027-16.262-12.42-25.301-17.203c9.442,15.521,39.414,24.104,37.445,37.443
	c-7.182,16.289-37.324-12.293-49.589-13.156c-4.703-0.33-8.242,4.432-13.156,3.037c-4.077-1.158-7.062-5.35-6.072-11.133
	c-10.881,0.086-18.348-3.242-19.228-13.156c-9.639-0.48-15.947-4.293-16.192-14.168c-10.095,0.313-15.384-3.676-16.192-11.133
	c-0.569-5.25,5.447-9.9,5.06-13.156c-0.357-3.006-7.567-8.744-12.144-11.132C10.946,65.802-1.423,67.127,0.134,55.014z
	 M139.007,5.758c-16.488-3.426-37.187,1.659-41.625,4.25c-15.125,6.25-20.591,16.337-23.371,24.766
	c15.616,16.377,27.478-10.935,39.469-12.145c12.359-1.246,28.854,14.121,38.457,22.264c5.93,5.029,24.816,28.075,32.385,29.349
	c3.808,0.641,10.688-3.171,14.168-4.048c18.351-4.622,27.703-5.8,45.014-10.7c4.129-14.486-0.559-37.021-11.496-45.986
	C194.132,38.133,167.882,11.758,139.007,5.758z M32.882,90.132c-1.875,4.75-1.377,6.148,1.66,9.41
	c3.465,1.84,4.145,1.266,8.382-1.248c7.985-7.869,17.333-16.162,17.931-25.064C50.007,63.883,39.048,82.804,32.882,90.132z
	 M69.963,81.326c-7.144,1.734-23.064,24.121-22.264,27.324c3.581,14.336,18.615-3.924,22.264-8.096
	c5.225-5.973,11.544-12.422,8.096-18.215C74.349,81.39,73.643,80.433,69.963,81.326z M63.891,120.794
	c0.55,4.334,5.327,6.922,11.132,6.072c8.559-1.252,17.631-17.879,18.216-27.324C84.974,90.445,63.539,118.021,63.891,120.794z
	 M83.12,136.988c2.108,9.309,20.034-6.746,16.192-17.205C91.114,118.802,82.729,126.041,83.12,136.988z"/>
</svg>
