<?xml version="1.0" encoding="utf-8"?>
<!-- Generator: Adobe Illustrator 15.0.0, SVG Export Plug-In  -->
<!DOCTYPE svg [
	<!ENTITY ns_flows "http://ns.adobe.com/Flows/1.0/">
]>
<svg version="1.2" baseProfile="tiny"
	 xmlns="http://www.w3.org/2000/svg" xmlns:xlink="http://www.w3.org/1999/xlink" xmlns:a="http://ns.adobe.com/AdobeSVGViewerExtensions/3.0/"
	 x="0px" y="0px" width="250px" height="250px" viewBox="-0.016 -0.015 250 250" xml:space="preserve">
<defs>
</defs>
<path fill-rule="evenodd" d="M124.984,0C55.958,0,0,55.958,0,124.985s55.958,124.984,124.984,124.984
	s124.984-55.957,124.984-124.984S194.011,0,124.984,0z M125,238.012c-62.423,0-113.027-50.605-113.027-113.027
	C11.973,62.561,62.577,11.957,125,11.957s113.027,50.604,113.027,113.028C238.027,187.407,187.423,238.012,125,238.012z"/>
<path d="M148.859,186.447h-0.016c-0.32-12.913-10.88-23.284-23.869-23.284c-12.99,0-23.549,10.371-23.869,23.284h-0.001
	c0,0.003,0,0.005,0.001,0.007c0,0.005-0.001,0.01-0.001,0.015h0.002c0.003,0.031,0.009,0.063,0.01,0.095
	c0.063,2.804,2.345,5.059,5.163,5.059c2.851,0,5.162-2.305,5.174-5.153h0.016c0.294-7.222,6.226-12.991,13.52-12.991
	c7.294,0,13.226,5.77,13.521,12.991h0.035c0.012,2.849,2.321,5.153,5.172,5.153c2.766,0,5.006-2.174,5.148-4.904
	C148.865,186.627,148.861,186.538,148.859,186.447z"/>
<circle cx="86.633" cy="98.19" r="22.967"/>
<circle cx="163.633" cy="98.19" r="22.967"/>
<path d="M173.4,56.789c1.636,2.673,0.605,6.28-2.3,8.056l-29.745,18.188c-2.905,1.775-6.584,1.049-8.219-1.624l0,0
	c-1.635-2.673-0.605-6.28,2.301-8.056l29.745-18.188C168.084,53.389,171.765,54.115,173.4,56.789L173.4,56.789z"/>
<path d="M77.32,56.789c-1.636,2.673-0.605,6.28,2.3,8.056l29.745,18.188c2.905,1.775,6.584,1.05,8.219-1.623l0,0
	c1.634-2.674,0.605-6.28-2.301-8.057L85.538,55.165C82.635,53.389,78.955,54.115,77.32,56.789L77.32,56.789z"/>
</svg>
