<?xml version="1.0" encoding="utf-8"?>
<!-- Generator: Adobe Illustrator 15.0.0, SVG Export Plug-In  -->
<!DOCTYPE svg [
	<!ENTITY ns_flows "http://ns.adobe.com/Flows/1.0/">
]>
<svg version="1.2" baseProfile="tiny"
	 xmlns="http://www.w3.org/2000/svg" xmlns:xlink="http://www.w3.org/1999/xlink" xmlns:a="http://ns.adobe.com/AdobeSVGViewerExtensions/3.0/"
	 x="0px" y="0px" width="250px" height="250px" viewBox="0 -24 250 250" xml:space="preserve">
<defs>
</defs>
<path fill-rule="evenodd" d="M184.938,41.438c0-5.225,0.039-12.625,0.039-16.44c8.773,0,25.336,0.146,32.729,0.146
	c0,8.688,0.223,22.982,0.223,34.805c13.271,8.803,17.464,12.152,32.041,21.042c0,40.329,0,80.657,0,120.985
	c-50.327,0-100.654,0-150.981,0c0-26.996,0-53.993,0-80.989c-13.665,0-28.08,0-41.745,0c0,27.139-0.243,53.265-0.243,80.989
	c-18.998,0-38.002,0-57,0c0-40.661,0-81.323,0-121.984C40.505,53.418,81.24,27.407,121.833,0 M145.981,147.981
	c8.999,0,17.998,0,26.997,0c0-8.999,0-17.998,0-26.996c-8.999,0-17.998,0-26.997,0C145.981,129.983,145.981,138.982,145.981,147.981
	z M181.978,147.981c8.999,0,17.997,0,26.996,0c0-8.999,0-17.998,0-26.996c-8.999,0-17.997,0-26.996,0
	C181.978,129.983,181.978,138.982,181.978,147.981z M145.981,183.977c8.999,0,17.998,0,26.997,0c0-8.998,0-17.997,0-26.996
	c-8.999,0-17.998,0-26.997,0C145.981,165.979,145.981,174.979,145.981,183.977z M181.978,183.977c8.999,0,17.997,0,26.996,0
	c0-8.998,0-17.997,0-26.996c-8.999,0-17.997,0-26.996,0C181.978,165.979,181.978,174.979,181.978,183.977z"/>
</svg>
