<?xml version="1.0" encoding="utf-8"?>
<!-- Generator: Adobe Illustrator 15.0.0, SVG Export Plug-In  -->
<!DOCTYPE svg [
	<!ENTITY ns_flows "http://ns.adobe.com/Flows/1.0/">
]>
<svg version="1.2" baseProfile="tiny"
	 xmlns="http://www.w3.org/2000/svg" xmlns:xlink="http://www.w3.org/1999/xlink" xmlns:a="http://ns.adobe.com/AdobeSVGViewerExtensions/3.0/"
	 x="0px" y="0px" width="250px" height="250px" viewBox="0 -50.612 250 250" xml:space="preserve">
<defs>
</defs>
<path fill-rule="evenodd" d="M197.278,102.095c-13.998,0-25.345,11.348-25.345,25.344c0,13.997,11.347,25.343,25.345,25.343
	c13.996,0,25.342-11.346,25.342-25.343C222.62,113.442,211.274,102.095,197.278,102.095z M197.278,137.992
	c-5.829,0-10.555-4.727-10.555-10.555s4.726-10.555,10.555-10.555c5.828,0,10.554,4.727,10.554,10.555
	S203.106,137.992,197.278,137.992z"/>
<path fill-rule="evenodd" d="M47.354,102.095c-13.997,0-25.344,11.348-25.344,25.344c0,13.997,11.347,25.343,25.344,25.343
	s25.343-11.346,25.343-25.343C72.697,113.442,61.351,102.095,47.354,102.095z M47.354,137.992c-5.828,0-10.554-4.727-10.554-10.555
	s4.726-10.555,10.554-10.555c5.829,0,10.555,4.727,10.555,10.555S53.183,137.992,47.354,137.992z"/>
<path fill-rule="evenodd" d="M248.942,103.813c-7.757-0.763-3.203-16.038-5.722-24.589c-2.287-7.759-6.592-5.369-10.885-10.459
	c-6.111-20.815-20.523-65.964-23.957-68.761C176.62,0.004,142.776,0,102.444,0C72.736,0,0,0,0,0c0,12.334,0.224,23.173,0.224,50.996
	c0,23.017-3.442,73.246,16.649,77.803C15.22,105.93,32.671,98.302,40.121,97.53c23.293-2.409,35.374,8.018,38.172,29.902
	c27.763-0.235,60.782,0.038,87.459,0.273c-0.863-24.655,26.464-37.426,45.679-27.881c19.71,9.792,13.605,26.419,18.249,26.319
	c13.887-0.3,11.831,0.139,19.145,0.139C251.105,125.258,250.362,103.813,248.942,103.813z M43.768,61.168
	c-9.097,0-18.458-0.044-27.554-0.044c0-12.665-0.074-24.189-0.074-36.02c8.368,0,19.335,0,27.704,0
	C43.993,37.326,43.768,46.928,43.768,61.168z M82.87,60.876c-9.096,0-18.562,0-27.658,0c0-12.665-0.074-24.19-0.074-36.021
	c8.368,0,19.335,0,27.703,0C82.991,37.078,82.87,46.635,82.87,60.876z M121.082,60.948c-9.096,0-18.493,0-27.588,0
	c0-12.665-0.074-24.19-0.074-36.021c8.368,0,19.335,0,27.703,0C121.272,37.149,121.082,46.707,121.082,60.948z M158.276,61.007
	c-9.096,0-18.814,0-27.91,0c0-12.665-0.074-24.19-0.074-36.02c11.421,0,22.388,0,27.704,0
	C158.145,37.208,158.276,46.766,158.276,61.007z M183.922,61.084c0-9.271-0.588-22.152-0.588-33.53
	c0-2.404,5.566-2.589,10.734-2.589c4.835,12.336,9.437,24.638,14.189,36.049C200.394,61.015,193.982,61.084,183.922,61.084z"/>
</svg>
