<?xml version="1.0" encoding="utf-8"?>
<!-- Generator: Adobe Illustrator 15.0.0, SVG Export Plug-In  -->
<!DOCTYPE svg [
	<!ENTITY ns_flows "http://ns.adobe.com/Flows/1.0/">
]>
<svg version="1.2" baseProfile="tiny"
	 xmlns="http://www.w3.org/2000/svg" xmlns:xlink="http://www.w3.org/1999/xlink" xmlns:a="http://ns.adobe.com/AdobeSVGViewerExtensions/3.0/"
	 x="0px" y="0px" width="250px" height="250px" viewBox="-0.564 -18.146 250 250" xml:space="preserve">
<defs>
</defs>
<path d="M236.727,0H12.709C5.69,0,0,5.69,0,12.709v188.482C0,208.21,5.69,213.9,12.709,213.9h224.018
	c7.018,0,12.709-5.69,12.709-12.709V12.709C249.436,5.69,243.745,0,236.727,0z M35.765,197.209H9.691v-29.113h26.074V197.209z
	 M35.765,158.291H9.691v-30.442h26.074V158.291z M35.765,118.834H9.691V89.721h26.074V118.834z M35.765,79.567H9.691V50.533h26.074
	V79.567z M35.765,40.38H9.691V13.613h26.074V40.38z M100.836,142.139V69.223l63.686,38.331L100.836,142.139z M239.117,197.209
	h-26.073v-29.113h26.073V197.209z M239.117,158.291h-26.073v-30.442h26.073V158.291z M239.117,118.834h-26.073V89.721h26.073
	V118.834z M239.117,79.567h-26.073V50.533h26.073V79.567z M239.117,40.38h-26.073V13.613h26.073V40.38z"/>
</svg>
