<?xml version="1.0" encoding="utf-8"?>
<!-- Generator: Adobe Illustrator 15.0.0, SVG Export Plug-In  -->
<!DOCTYPE svg [
	<!ENTITY ns_flows "http://ns.adobe.com/Flows/1.0/">
]>
<svg version="1.2" baseProfile="tiny"
	 xmlns="http://www.w3.org/2000/svg" xmlns:xlink="http://www.w3.org/1999/xlink" xmlns:a="http://ns.adobe.com/AdobeSVGViewerExtensions/3.0/"
	 x="0px" y="0px" width="250px" height="250px" viewBox="-0.016 -0.015 250 250" xml:space="preserve">
<defs>
</defs>
<path fill-rule="evenodd" d="M124.984,0C55.958,0,0,55.958,0,124.985s55.958,124.984,124.984,124.984
	s124.984-55.957,124.984-124.984S194.011,0,124.984,0z M125,238.012c-62.423,0-113.027-50.605-113.027-113.027
	C11.973,62.561,62.577,11.957,125,11.957s113.027,50.604,113.027,113.028C238.027,187.407,187.423,238.012,125,238.012z"/>
<path d="M115.615,94.507H115.6c-0.32-12.913-10.879-23.284-23.868-23.284c-12.99,0-23.549,10.371-23.869,23.284h-0.001
	c0,0.003,0,0.005,0.001,0.007c0,0.005-0.001,0.01-0.001,0.015h0.002c0.003,0.031,0.009,0.063,0.01,0.095
	c0.063,2.804,2.345,5.059,5.163,5.059c2.851,0,5.162-2.305,5.174-5.153h0.016c0.294-7.222,6.226-12.991,13.52-12.991
	c7.293,0,13.226,5.77,13.52,12.991h0.035c0.012,2.849,2.322,5.153,5.173,5.153c2.766,0,5.005-2.174,5.148-4.904
	C115.621,94.688,115.617,94.598,115.615,94.507z"/>
<path d="M182.505,94.507h-0.016c-0.319-12.913-10.879-23.284-23.867-23.284c-12.99,0-23.55,10.371-23.869,23.284h-0.002
	c0,0.003,0.001,0.005,0.002,0.007c-0.001,0.005-0.002,0.01-0.002,0.015h0.002c0.004,0.031,0.01,0.063,0.01,0.095
	c0.064,2.804,2.346,5.059,5.164,5.059c2.851,0,5.161-2.305,5.174-5.153h0.016c0.294-7.222,6.225-12.991,13.52-12.991
	c7.293,0,13.226,5.77,13.52,12.991h0.035c0.013,2.849,2.322,5.153,5.174,5.153c2.766,0,5.004-2.174,5.148-4.904
	C182.511,94.688,182.507,94.598,182.505,94.507z"/>
<circle cx="85.606" cy="152.859" r="5.238"/>
<path fill="none" d="M125,186.964c18.874,0,34.175-15.301,34.175-34.174v-0.001h-68.35v0.001
	C90.825,171.664,106.125,186.964,125,186.964z"/>
<path d="M159.174,152.791c0,18.873-15.301,34.174-34.175,34.174s-34.175-15.301-34.175-34.174v-0.001h-10.44
	c0.001,24.641,19.975,44.615,44.615,44.615s44.615-19.975,44.616-44.615L159.174,152.791L159.174,152.791z"/>
<circle cx="164.377" cy="152.823" r="5.203"/>
</svg>
